{
.appVersion = "965";
DisplayStrings = (
/infinity
);
classes = (
{
automatic = 1;

glyphs = (
{
glyphname = A;
layers = (
{
anchors = (
{
name = bottom;
position = "{343, 0}";
},
{
name = mark0;
position = "{329, -83}";
},
{
name = ogonek;
position = "{617, 10}";
},
{
name = top;
position = "{343, 743}";
}
);
layerId = UUID0;
paths = (
{
closed = 1;
nodes = (
"-11 43 LINE",
"-11 0 LINE",
"214 0 LINE",
"214 43 LINE",
"125 53 LINE",
"178 211 LINE",
"490 211 LINE",
"543 52 LINE",
"455 43 LINE",
"455 0 LINE",
"699 0 LINE",
"699 43 LINE",
"634 52 LINE",
"384 750 LINE",
"302 750 LINE",
"53 52 LINE"
);
},
{
closed = 1;
nodes = (
"195 263 LINE",
"305 593 LINE",
"332 691 LINE",
"360 596 LINE",
"472 263 LINE"
);
}
);
width = 686;
},
{
anchors = (
{
name = bottom;
position = "{358, 0}";
},
{
name = mark0;
position = "{280, -83}";
},
{
name = ogonek;
position = "{643, 10}";
},
{
name = top;
position = "{358, 743}";
}
);
layerId = "D0FF1146-32FF-444C-BC95-9626761FC64D";
paths = (
{
closed = 1;
nodes = (
"-22 74 LINE",
"-21 0 LINE",
"260 0 LINE",
"260 74 LINE",
"186 83 LINE",
"213 191 LINE",
"426 191 LINE",
"454 85 LINE",
"389 74 LINE",
"389 0 LINE",
"729 0 LINE",
"729 74 LINE",
"677 85 LINE",
"463 745 LINE",
"248 745 LINE",
"34 86 LINE"
);
},
{
closed = 1;
nodes = (
"234 276 LINE",
"306 563 LINE",
"317 625 LINE",
"328 563 LINE",
"404 276 LINE"
);
}
);
width = 715;
}
);
unicode = 0041;
},
{
glyphname = Abreve;
layers = (
{
anchors = (
{
name = mark0;
position = "{329, -83}";
}
);
layerId = UUID0;
paths = (
{
closed = 1;
nodes = (
"443 808 OFFCURVE",
"502 872 OFFCURVE",
"502 955 CURVE SMOOTH",
"502 961 OFFCURVE",
"502 967 OFFCURVE",
"501 974 CURVE",
"457 974 LINE",
"457 971 OFFCURVE",
"457 967 OFFCURVE",
"456 961 CURVE SMOOTH",
"453 925 OFFCURVE",
"427 874 OFFCURVE",
"344 874 CURVE SMOOTH",
"261 874 OFFCURVE",
"234 924 OFFCURVE",
"230 960 CURVE SMOOTH",
"229 966 OFFCURVE",
"229 971 OFFCURVE",
"229 974 CURVE",
"183 974 LINE",
"182 967 OFFCURVE",
"182 961 OFFCURVE",
"182 954 CURVE SMOOTH",
"182 872 OFFCURVE",
"240 808 OFFCURVE",
"344 808 CURVE SMOOTH"
);
},
{
closed = 1;
nodes = (
"-11 43 LINE",
"-11 0 LINE",
"214 0 LINE",
"214 43 LINE",
"125 53 LINE",
"178 211 LINE",
"490 211 LINE",
"543 52 LINE",
"455 43 LINE",
"455 0 LINE",
"699 0 LINE",
"699 43 LINE",
"634 52 LINE",
"384 750 LINE",
"302 750 LINE",
"53 52 LINE"
);
},
{
closed = 1;
nodes = (
"195 263 LINE",
"305 593 LINE",
"332 691 LINE",
"360 596 LINE",
"472 263 LINE"
);
}
);
width = 686;
},
{
anchors = (
{
name = mark0;
position = "{280, -83}";
}
);
layerId = "D0FF1146-32FF-444C-BC95-9626761FC64D";
paths = (
{
closed = 1;
nodes = (
"487 789 OFFCURVE",
"553 871 OFFCURVE",
"553 959 CURVE SMOOTH",
"553 967 OFFCURVE",
"553 974 OFFCURVE",
"552 981 CURVE",
"459 981 LINE",
"459 979 OFFCURVE",
"459 975 OFFCURVE",
"458 971 CURVE SMOOTH",
"455 943 OFFCURVE",
"436 902 OFFCURVE",
"357 902 CURVE SMOOTH",
"277 902 OFFCURVE",
"255 944 OFFCURVE",
"251 971 CURVE SMOOTH",
"250 975 OFFCURVE",
"250 979 OFFCURVE",
"250 981 CURVE",
"159 981 LINE",
"158 974 OFFCURVE",
"158 966 OFFCURVE",
"158 958 CURVE SMOOTH",
"158 870 OFFCURVE",
"221 789 OFFCURVE",
"356 789 CURVE SMOOTH"
);
},
{
closed = 1;
nodes = (
"-22 74 LINE",
"-21 0 LINE",
"260 0 LINE",
"260 74 LINE",
"186 83 LINE",
"213 191 LINE",
"426 191 LINE",
"454 85 LINE",
"389 74 LINE",
"389 0 LINE",
"729 0 LINE",
"729 74 LINE",
"677 85 LINE",
"463 745 LINE",
"248 745 LINE",
"34 86 LINE"
);
},
{
closed = 1;
nodes = (
"234 276 LINE",
"306 563 LINE",
"317 625 LINE",
"328 563 LINE",
"404 276 LINE"
);
}
);
width = 715;
}
);
unicode = 0102;
},
{
glyphname = Acircumflex;
layers = (
{
anchors = (
{
name = mark0;
position = "{329, -83}";
}
);
layerId = UUID0;
paths = (
{
closed = 1;
nodes = (
"177 838 LINE",
"210 817 LINE",
"343 923 LINE",
"473 817 LINE",
"509 839 LINE",
"380 983 LINE",
"305 983 LINE"
);
},
{
closed = 1;
nodes = (
"-11 43 LINE",
"-11 0 LINE",
"214 0 LINE",
"214 43 LINE",
"125 53 LINE",
"178 211 LINE",
"490 211 LINE",
"543 52 LINE",
"455 43 LINE",
"455 0 LINE",
"699 0 LINE",
"699 43 LINE",
"634 52 LINE",
"384 750 LINE",
"302 750 LINE",
"53 52 LINE"
);
},
{
closed = 1;
nodes = (
"195 263 LINE",
"305 593 LINE",
"332 691 LINE",
"360 596 LINE",
"472 263 LINE"
);
}
);
width = 686;
},
{
anchors = (
{
name = mark0;
position = "{280, -83}";
}
);
layerId = "D0FF1146-32FF-444C-BC95-9626761FC64D";
paths = (
{
closed = 1;
nodes = (
"144 832 LINE",
"205 779 LINE",
"353 870 LINE",
"501 779 LINE",
"562 833 LINE",
"405 979 LINE",
"303 979 LINE"
);
},
{
closed = 1;
nodes = (
"-22 74 LINE",
"-21 0 LINE",
"260 0 LINE",
"260 74 LINE",
"186 83 LINE",
"213 191 LINE",
"426 191 LINE",
"454 85 LINE",
"389 74 LINE",
"389 0 LINE",
"729 0 LINE",
"729 74 LINE",
"677 85 LINE",
"463 745 LINE",
"248 745 LINE",
"34 86 LINE"
);
},
{
closed = 1;
nodes = (
"234 276 LINE",
"306 563 LINE",
"317 625 LINE",
"328 563 LINE",
"404 276 LINE"
);
}
);
width = 715;
}
);
unicode = 00C2;
},
{
glyphname = Adieresis;
layers = (
{
anchors = (
{
name = mark0;
position = "{329, -83}";
}
);
layerId = UUID0;
paths = (
{
closed = 1;
nodes = (
"220 834 LINE",
"261 834 OFFCURVE",
"281 864 OFFCURVE",
"281 899 CURVE SMOOTH",
"281 928 OFFCURVE",
"261 958 OFFCURVE",
"228 958 CURVE",
"227 958 LINE",
"188 958 OFFCURVE",
"169 925 OFFCURVE",
"169 891 CURVE SMOOTH",
"169 860 OFFCURVE",
"188 834 OFFCURVE",
"219 834 CURVE"
);
},
{
closed = 1;
nodes = (
"498 834 OFFCURVE",
"518 864 OFFCURVE",
"518 899 CURVE SMOOTH",
"518 928 OFFCURVE",
"500 958 OFFCURVE",
"466 958 CURVE",
"465 958 LINE",
"426 958 OFFCURVE",
"407 925 OFFCURVE",
"407 891 CURVE SMOOTH",
"407 860 OFFCURVE",
"426 834 OFFCURVE",
"457 834 CURVE SMOOTH"
);
},
{
closed = 1;
nodes = (
"-11 43 LINE",
"-11 0 LINE",
"214 0 LINE",
"214 43 LINE",
"125 53 LINE",
"178 211 LINE",
"490 211 LINE",
"543 52 LINE",
"455 43 LINE",
"455 0 LINE",
"699 0 LINE",
"699 43 LINE",
"634 52 LINE",
"384 750 LINE",
"302 750 LINE",
"53 52 LINE"
);
},
{
closed = 1;
nodes = (
"195 263 LINE",
"305 593 LINE",
"332 691 LINE",
"360 596 LINE",
"472 263 LINE"
);
}
);
width = 686;
},
{
anchors = (
{
name = mark0;
position = "{280, -83}";
}
);
layerId = "D0FF1146-32FF-444C-BC95-9626761FC64D";
paths = (
{
closed = 1;
nodes = (
"207 794 LINE",
"281 794 OFFCURVE",
"313 838 OFFCURVE",
"313 894 CURVE SMOOTH",
"313 938 OFFCURVE",
"286 977 OFFCURVE",
"224 977 CURVE",
"223 977 LINE",
"157 977 OFFCURVE",
"127 934 OFFCURVE",
"127 878 CURVE SMOOTH",
"127 833 OFFCURVE",
"160 794 OFFCURVE",
"206 794 CURVE"
);
},
{
closed = 1;
nodes = (
"550 794 OFFCURVE",
"581 838 OFFCURVE",
"581 894 CURVE SMOOTH",
"581 938 OFFCURVE",
"555 977 OFFCURVE",
"492 977 CURVE",
"491 977 LINE",
"425 977 OFFCURVE",
"396 934 OFFCURVE",
"396 878 CURVE SMOOTH",
"396 839 OFFCURVE",
"428 794 OFFCURVE",
"475 794 CURVE SMOOTH"
);
},
{
closed = 1;
nodes = (
"-22 74 LINE",
"-21 0 LINE",
"260 0 LINE",
"260 74 LINE",
"186 83 LINE",
"213 191 LINE",
"426 191 LINE",
"454 85 LINE",
"389 74 LINE",
"389 0 LINE",
"729 0 LINE",
"729 74 LINE",
"677 85 LINE",
"463 745 LINE",
"248 745 LINE",
"34 86 LINE"
);
},
{
closed = 1;
nodes = (
"234 276 LINE",
"306 563 LINE",
"317 625 LINE",
"328 563 LINE",
"404 276 LINE"
);
}
);
width = 715;
}
);
unicode = 00C4;
},
{
glyphname = Amacron;
layers = (
{
anchors = (
{
name = mark0;
position = "{329, -83}";
}
);
layerId = UUID0;
paths = (
{
closed = 1;
nodes = (
"214 920 LINE",
"214 859 LINE",
"477 859 LINE",
"477 920 LINE"
);
},
{
closed = 1;
nodes = (
"-11 43 LINE",
"-11 0 LINE",
"214 0 LINE",
"214 43 LINE",
"125 53 LINE",
"178 211 LINE",
"490 211 LINE",
"543 52 LINE",
"455 43 LINE",
"455 0 LINE",
"699 0 LINE",
"699 43 LINE",
"634 52 LINE",
"384 750 LINE",
"302 750 LINE",
"53 52 LINE"
);
},
{
closed = 1;
nodes = (
"195 263 LINE",
"305 593 LINE",
"332 691 LINE",
"360 596 LINE",
"472 263 LINE"
);
}
);
width = 686;
},
{
anchors = (
{
name = mark0;
position = "{280, -83}";
}
);
layerId = "D0FF1146-32FF-444C-BC95-9626761FC64D";
paths = (
{
closed = 1;
nodes = (
"184 937 LINE",
"184 829 LINE",
"524 829 LINE",
"524 937 LINE"
);
},
{
closed = 1;
nodes = (
"-22 74 LINE",
"-21 0 LINE",
"260 0 LINE",
"260 74 LINE",
"186 83 LINE",
"213 191 LINE",
"426 191 LINE",
"454 85 LINE",
"389 74 LINE",
"389 0 LINE",
"729 0 LINE",
"729 74 LINE",
"677 85 LINE",
"463 745 LINE",
"248 745 LINE",
"34 86 LINE"
);
},
{
closed = 1;
nodes = (
"234 276 LINE",
"306 563 LINE",
"317 625 LINE",
"328 563 LINE",
"404 276 LINE"
);
}
);
width = 715;
}
);
unicode = 0100;
},
{
glyphname = Aogonek;
layers = (
{
layerId = UUID0;
paths = (
{
closed = 1;
nodes = (
"-11 43 LINE",
"-11 0 LINE",
"214 0 LINE",
"214 43 LINE",
"125 53 LINE",
"178 211 LINE",
"490 211 LINE",
"543 52 LINE",
"455 43 LINE",
"455 0 LINE",
"554 0 LINE",
"484 -30 OFFCURVE",
"427 -101 OFFCURVE",
"427 -155 CURVE SMOOTH",
"427 -226 OFFCURVE",
"487 -249 OFFCURVE",
"548 -249 CURVE SMOOTH",
"589 -249 OFFCURVE",
"633 -236 OFFCURVE",
"661 -215 CURVE",
"661 -173 LINE",
"638 -185 OFFCURVE",
"609 -193 OFFCURVE",
"583 -193 CURVE SMOOTH",
"542 -193 OFFCURVE",
"505 -176 OFFCURVE",
"505 -129 CURVE SMOOTH",
"505 -87 OFFCURVE",
"552 -28 OFFCURVE",
"617 0 CURVE",
"699 0 LINE",
"699 43 LINE",
"634 52 LINE",
"384 750 LINE",
"302 750 LINE",
"53 52 LINE"
);
},
{
closed = 1;
nodes = (
"195 263 LINE",
"305 593 LINE",
"332 691 LINE",
"360 596 LINE",
"472 263 LINE"
);
}
);
width = 678;
},
{
layerId = "D0FF1146-32FF-444C-BC95-9626761FC64D";
paths = (
{
closed = 1;
nodes = (
"-22 74 LINE",
"-21 0 LINE",
"260 0 LINE",
"260 74 LINE",
"186 83 LINE",
"213 191 LINE",
"426 191 LINE",
"454 85 LINE",
"389 74 LINE",
"389 0 LINE",
"577 0 LINE",
"488 -25 OFFCURVE",
"428 -89 OFFCURVE",
"428 -149 CURVE SMOOTH",
"428 -209 OFFCURVE",
"484 -251 OFFCURVE",
"573 -251 CURVE SMOOTH",
"614 -251 OFFCURVE",
"674 -240 OFFCURVE",
"702 -219 CURVE",
"702 -139 LINE",
"680 -148 OFFCURVE",
"668 -150 OFFCURVE",
"646 -150 CURVE SMOOTH",
"602 -150 OFFCURVE",
"575 -132 OFFCURVE",
"575 -104 CURVE SMOOTH",
"575 -66 OFFCURVE",
"614 -22 OFFCURVE",
"679 0 CURVE",
"729 0 LINE",
"729 74 LINE",
"677 85 LINE",
"463 745 LINE",
"248 745 LINE",
"34 86 LINE"
);
},
{
closed = 1;
nodes = (
"234 276 LINE",
"306 563 LINE",
"317 625 LINE",
"328 563 LINE",
"404 276 LINE"
);
}
);
width = 715;
}
);
unicode = 0104;
},
{
glyphname = Atilde;
layers = (
{
anchors = (
{
name = mark0;
position = "{329, -83}";
}
);
layerId = UUID0;
paths = (
{
closed = 1;
nodes = (
"486 833 OFFCURVE",
"525 882 OFFCURVE",
"541 934 CURVE",
"499 957 LINE",
"490 937 OFFCURVE",
"474 893 OFFCURVE",
"427 893 CURVE SMOOTH",
"369 893 OFFCURVE",
"357 978 OFFCURVE",
"277 978 CURVE SMOOTH",
"207 978 OFFCURVE",
"157 920 OFFCURVE",
"146 877 CURVE",
"188 854 LINE",
"197 874 OFFCURVE",
"217 918 OFFCURVE",
"264 918 CURVE SMOOTH",
"325 918 OFFCURVE",
"341 833 OFFCURVE",
"421 833 CURVE SMOOTH"
);
},
{
closed = 1;
nodes = (
"-11 43 LINE",
"-11 0 LINE",
"214 0 LINE",
"214 43 LINE",
"125 53 LINE",
"178 211 LINE",
"490 211 LINE",
"543 52 LINE",
"455 43 LINE",
"455 0 LINE",
"699 0 LINE",
"699 43 LINE",
"634 52 LINE",
"384 750 LINE",
"302 750 LINE",
"53 52 LINE"
);
},
{
closed = 1;
nodes = (
"195 263 LINE",
"305 593 LINE",
"332 691 LINE",
"360 596 LINE",
"472 263 LINE"
);
}
);
width = 686;
},
{
anchors = (
{
name = mark0;
position = "{280, -83}";
}
);
layerId = "D0FF1146-32FF-444C-BC95-9626761FC64D";
paths = (
{
closed = 1;
nodes = (
"519 795 OFFCURVE",
"563 848 OFFCURVE",
"593 901 CURVE",
"541 954 LINE",
"522 933 OFFCURVE",
"506 907 OFFCURVE",
"461 907 CURVE SMOOTH",
"401 907 OFFCURVE",
"364 980 OFFCURVE",
"275 980 CURVE SMOOTH",
"187 980 OFFCURVE",
"138 917 OFFCURVE",
"115 875 CURVE",
"167 822 LINE",
"183 839 OFFCURVE",
"207 869 OFFCURVE",
"246 869 CURVE SMOOTH",
"310 869 OFFCURVE",
"355 795 OFFCURVE",
"440 795 CURVE SMOOTH"
);
},
{
closed = 1;
nodes = (
"-22 74 LINE",
"-21 0 LINE",
"260 0 LINE",
"260 74 LINE",
"186 83 LINE",
"213 191 LINE",
"426 191 LINE",
"454 85 LINE",
"389 74 LINE",
"389 0 LINE",
"729 0 LINE",
"729 74 LINE",
"677 85 LINE",
"463 745 LINE",
"248 745 LINE",
"34 86 LINE"
);
},
{
closed = 1;
nodes = (
"234 276 LINE",
"306 563 LINE",
"317 625 LINE",
"328 563 LINE",
"404 276 LINE"
);
}
);
width = 715;
}
);
unicode = 00C3;
},
{
glyphname = AE;
layers = (
{
anchors = (
{
name = bottom;
position = "{456, 0}";
},
{
name = mark0;
position = "{434, -83}";
},
{
name = top;
position = "{456, 743}";
}
);
layerId = UUID0;
paths = (
{
closed = 1;
nodes = (
"313 42 LINE",
"313 0 LINE",
"857 0 LINE",
"895 171 LINE",
"847 184 LINE",
"789 59 LINE",
"483 49 LINE",
"483 359 LINE",
"664 357 LINE",
"676 271 LINE",
"727 271 LINE",
"727 492 LINE",
"676 492 LINE",
"664 409 LINE",
"483 406 LINE",
"483 698 LINE",
"748 694 LINE",
"778 593 LINE",
"826 593 LINE",
"809 743 LINE",
"135 743 LINE",
"135 702 LINE",
"271 691 LINE",
"-17 52 LINE",
"-90 42 LINE",
"-90 0 LINE",
"139 0 LINE",
"139 42 LINE",
"61 52 LINE",
"131 220 LINE",
"401 220 LINE",
"401 52 LINE"
);
},
{
closed = 1;
nodes = (
"153 272 LINE",
"276 567 LINE",
"332 695 LINE",
"401 695 LINE",
"401 272 LINE"
);
}
);
width = 911;
},
{
anchors = (
{
name = bottom;
position = "{480, 0}";
},
{
name = mark0;
position = "{462, -83}";
},
{
name = top;
position = "{480, 743}";
}
);
layerId = "D0FF1146-32FF-444C-BC95-9626761FC64D";
paths = (
{
closed = 1;
nodes = (
"325 73 LINE",
"325 0 LINE",
"935 0 LINE",
"967 191 LINE",
"856 222 LINE",
"791 91 LINE",
"601 76 LINE",
"601 334 LINE",
"703 331 LINE",
"721 244 LINE",
"796 244 LINE",
"796 505 LINE",
"720 505 LINE",
"702 425 LINE",
"601 421 LINE",
"601 671 LINE",
"776 658 LINE",
"813 556 LINE",
"903 556 LINE",
"889 743 LINE",
"95 743 LINE",
"95 664 LINE",
"220 649 LINE",
"-8 85 LINE",
"-78 73 LINE",
"-78 0 LINE",
"219 0 LINE",
"219 73 LINE",
"146 85 LINE",
"186 200 LINE",
"399 200 LINE",
"399 85 LINE"
);
},
{
closed = 1;
nodes = (
"217 288 LINE",
"297 518 LINE",
"345 662 LINE",
"399 662 LINE",
"399 288 LINE"
);
}
);
width = 959;
}
);
unicode = 00C6;
},
{
glyphname = B;
layers = (
{
anchors = (
{
name = bottom;
position = "{336, 0}";
},
{
name = mark0;
position = "{360, -83}";
},
{
name = top;
position = "{336, 743}";
}
);
layerId = UUID0;
paths = (
{
closed = 1;
nodes = (
"50 43 LINE",
"50 0 LINE",
"173 0 LINE SMOOTH",
"250 0 OFFCURVE",
"283 -6 OFFCURVE",
"332 -6 CURVE SMOOTH",
"563 -6 OFFCURVE",
"633 105 OFFCURVE",
"633 222 CURVE SMOOTH",
"633 328 OFFCURVE",
"559 400 OFFCURVE",
"432 396 CURVE",
"529 415 OFFCURVE",
"580 493 OFFCURVE",
"580 583 CURVE SMOOTH",
"580 688 OFFCURVE",
"512 751 OFFCURVE",
"333 751 CURVE SMOOTH",
"283 751 OFFCURVE",
"237 743 OFFCURVE",
"177 743 CURVE SMOOTH",
"52 743 LINE",
"52 700 LINE",
"136 689 LINE",
"136 52 LINE"
);
},
{
closed = 1;
nodes = (
"218 699 LINE",
"238 699 OFFCURVE",
"273 705 OFFCURVE",
"322 705 CURVE SMOOTH",
"455 705 OFFCURVE",
"497 657 OFFCURVE",
"497 564 CURVE SMOOTH",
"497 466 OFFCURVE",
"442 412 OFFCURVE",
"341 412 CURVE SMOOTH",
"315 412 OFFCURVE",
"249 411 OFFCURVE",
"218 413 CURVE"
);
},
{
closed = 1;
nodes = (
"218 359 LINE",
"248 361 OFFCURVE",
"325 360 OFFCURVE",
"361 360 CURVE SMOOTH",
"490 360 OFFCURVE",
"543 313 OFFCURVE",
"543 207 CURVE SMOOTH",
"543 105 OFFCURVE",
"486 42 OFFCURVE",
"331 42 CURVE SMOOTH",
"297 42 OFFCURVE",
"244 42 OFFCURVE",
"218 50 CURVE"
);
}
);
width = 672;
},
{
anchors = (
{
name = bottom;
position = "{367, 0}";
},
{
name = mark0;
position = "{370, -83}";
},
{
name = top;
position = "{367, 743}";
}
);
layerId = "D0FF1146-32FF-444C-BC95-9626761FC64D";
paths = (
{
closed = 1;
nodes = (
"29 74 LINE",
"29 0 LINE",
"204 0 LINE SMOOTH",
"265 0 OFFCURVE",
"293 -6 OFFCURVE",
"376 -6 CURVE SMOOTH",
"635 -6 OFFCURVE",
"708 93 OFFCURVE",
"708 226 CURVE SMOOTH",
"708 339 OFFCURVE",
"620 396 OFFCURVE",
"487 397 CURVE",
"579 408 OFFCURVE",
"658 471 OFFCURVE",
"658 579 CURVE SMOOTH",
"658 683 OFFCURVE",
"605 749 OFFCURVE",
"364 749 CURVE SMOOTH",
"313 749 OFFCURVE",
"264 743 OFFCURVE",
"200 743 CURVE SMOOTH",
"30 743 LINE",
"30 664 LINE",
"102 649 LINE",
"102 86 LINE"
);
},
{
closed = 1;
nodes = (
"302 672 LINE",
"312 674 OFFCURVE",
"356 676 OFFCURVE",
"359 676 CURVE SMOOTH",
"426 676 OFFCURVE",
"458 642 OFFCURVE",
"458 563 CURVE SMOOTH",
"458 479 OFFCURVE",
"435 423 OFFCURVE",
"368 423 CURVE SMOOTH",
"345 423 OFFCURVE",
"316 423 OFFCURVE",
"302 425 CURVE"
);
},
{
closed = 1;
nodes = (
"302 337 LINE",
"316 338 OFFCURVE",
"347 340 OFFCURVE",
"374 340 CURVE SMOOTH",
"447 340 OFFCURVE",
"485 310 OFFCURVE",
"485 218 CURVE SMOOTH",
"485 127 OFFCURVE",
"454 70 OFFCURVE",
"369 70 CURVE SMOOTH",
"344 70 OFFCURVE",
"313 73 OFFCURVE",
"302 79 CURVE"
);
}
);
width = 733;
}
);
unicode = 0042;
},
{
glyphname = C;
layers = (
{
anchors = (
{
name = bottom;
position = "{365, 0}";
},
{
name = mark0;
position = "{374, -83}";
},
{
name = top;
position = "{365, 743}";
}
);
layerId = UUID0;
paths = (
{
closed = 1;
nodes = (
"497 -11 OFFCURVE",
"534 25 OFFCURVE",
"586 27 CURVE",
"611 161 LINE",
"562 168 LINE",
"522 74 LINE",
"496 53 OFFCURVE",
"462 37 OFFCURVE",
"379 37 CURVE SMOOTH",
"208 37 OFFCURVE",
"130 203 OFFCURVE",
"130 384 CURVE SMOOTH",
"130 589 OFFCURVE",
"236 703 OFFCURVE",
"372 703 CURVE SMOOTH",
"451 703 OFFCURVE",
"503 688 OFFCURVE",
"521 672 CURVE",
"543 556 LINE",
"595 556 LINE",
"603 719 LINE",
"568 727 OFFCURVE",
"481 751 OFFCURVE",
"392 751 CURVE SMOOTH",
"191 751 OFFCURVE",
"36 598 OFFCURVE",
"36 375 CURVE SMOOTH",
"36 143 OFFCURVE",
"159 -11 OFFCURVE",
"377 -11 CURVE SMOOTH"
);
}
);
width = 649;
},
{
anchors = (
{
name = bottom;
position = "{363, 0}";
},
{
name = mark0;
position = "{362, -83}";
},
{
name = top;
position = "{383, 743}";
}
);
layerId = "D0FF1146-32FF-444C-BC95-9626761FC64D";
paths = (
{
closed = 1;
nodes = (
"507 -11 OFFCURVE",
"549 20 OFFCURVE",
"622 27 CURVE",
"638 200 LINE",
"523 210 LINE",
"476 98 LINE",
"462 83 OFFCURVE",
"444 69 OFFCURVE",
"393 69 CURVE SMOOTH",
"298 69 OFFCURVE",
"250 191 OFFCURVE",
"250 377 CURVE SMOOTH",
"250 579 OFFCURVE",
"304 672 OFFCURVE",
"390 672 CURVE SMOOTH",
"435 672 OFFCURVE",
"453 661 OFFCURVE",
"462 651 CURVE",
"500 484 LINE",
"626 484 LINE",
"640 729 LINE",
"598 729 OFFCURVE",
"500 751 OFFCURVE",
"398 751 CURVE SMOOTH",
"181 751 OFFCURVE",
"22 610 OFFCURVE",
"22 361 CURVE SMOOTH",
"22 136 OFFCURVE",
"137 -11 OFFCURVE",
"380 -11 CURVE SMOOTH"
);
}
);
width = 666;
}
);
unicode = 0043;
},
{
glyphname = Ccaron;
layers = (
{
anchors = (
{
name = mark0;
position = "{374, -83}";
}
);
layerId = UUID0;
paths = (
{
closed = 1;
nodes = (
"225 960 LINE",
"346 826 LINE",
"422 826 LINE",
"542 961 LINE",
"509 982 LINE",
"384 882 LINE",
"261 982 LINE"
);
},
{
closed = 1;
nodes = (
"497 -11 OFFCURVE",
"534 25 OFFCURVE",
"586 27 CURVE",
"611 161 LINE",
"562 168 LINE",
"522 74 LINE",
"496 53 OFFCURVE",
"462 37 OFFCURVE",
"379 37 CURVE SMOOTH",
"208 37 OFFCURVE",
"130 203 OFFCURVE",
"130 384 CURVE SMOOTH",
"130 589 OFFCURVE",
"236 703 OFFCURVE",
"372 703 CURVE SMOOTH",
"451 703 OFFCURVE",
"503 688 OFFCURVE",
"521 672 CURVE",
"543 556 LINE",
"595 556 LINE",
"603 719 LINE",
"568 727 OFFCURVE",
"481 751 OFFCURVE",
"392 751 CURVE SMOOTH",
"191 751 OFFCURVE",
"36 598 OFFCURVE",
"36 375 CURVE SMOOTH",
"36 143 OFFCURVE",
"159 -11 OFFCURVE",
"377 -11 CURVE SMOOTH"
);
}
);
width = 649;
},
{
anchors = (
{
name = mark0;
position = "{362, -83}";
}
);
layerId = "D0FF1146-32FF-444C-BC95-9626761FC64D";
paths = (
{
closed = 1;
nodes = (
"187 931 LINE",
"336 789 LINE",
"438 789 LINE",
"596 930 LINE",
"535 983 LINE",
"387 898 LINE",
"249 983 LINE"
);
},
{
closed = 1;
nodes = (
"507 -11 OFFCURVE",
"549 20 OFFCURVE",
"622 27 CURVE",
"638 200 LINE",
"523 210 LINE",
"476 98 LINE",
"462 83 OFFCURVE",
"444 69 OFFCURVE",
"393 69 CURVE SMOOTH",
"298 69 OFFCURVE",
"250 191 OFFCURVE",
"250 377 CURVE SMOOTH",
"250 579 OFFCURVE",
"304 672 OFFCURVE",
"390 672 CURVE SMOOTH",
"435 672 OFFCURVE",
"453 661 OFFCURVE",
"462 651 CURVE",
"500 484 LINE",
"626 484 LINE",
"640 729 LINE",
"598 729 OFFCURVE",
"500 751 OFFCURVE",
"398 751 CURVE SMOOTH",
"181 751 OFFCURVE",
"22 610 OFFCURVE",
"22 361 CURVE SMOOTH",
"22 136 OFFCURVE",
"137 -11 OFFCURVE",
"380 -11 CURVE SMOOTH"
);
}
);
width = 666;
}
);
unicode = 010C;
},
{
glyphname = Ccircumflex;
layers = (
{
anchors = (
{
name = mark0;
position = "{374, -83}";
}
);
layerId = UUID0;
paths = (
{
closed = 1;
nodes = (
"217 838 LINE",
"250 817 LINE",
"383 923 LINE",
"513 817 LINE",
"549 839 LINE",
"420 983 LINE",
"345 983 LINE"
);
},
{
closed = 1;
nodes = (
"497 -11 OFFCURVE",
"534 25 OFFCURVE",
"586 27 CURVE",
"611 161 LINE",
"562 168 LINE",
"522 74 LINE",
"496 53 OFFCURVE",
"462 37 OFFCURVE",
"379 37 CURVE SMOOTH",
"208 37 OFFCURVE",
"130 203 OFFCURVE",
"130 384 CURVE SMOOTH",
"130 589 OFFCURVE",
"236 703 OFFCURVE",
"372 703 CURVE SMOOTH",
"451 703 OFFCURVE",
"503 688 OFFCURVE",
"521 672 CURVE",
"543 556 LINE",
"595 556 LINE",
"603 719 LINE",
"568 727 OFFCURVE",
"481 751 OFFCURVE",
"392 751 CURVE SMOOTH",
"191 751 OFFCURVE",
"36 598 OFFCURVE",
"36 375 CURVE SMOOTH",
"36 143 OFFCURVE",
"159 -11 OFFCURVE",
"377 -11 CURVE SMOOTH"
);
}
);
width = 649;
},
{
anchors = (
{
name = mark0;
position = "{362, -83}";
}
);
layerId = "D0FF1146-32FF-444C-BC95-9626761FC64D";
paths = (
{
closed = 1;
nodes = (
"178 832 LINE",
"239 779 LINE",
"387 870 LINE",
"535 779 LINE",
"596 833 LINE",
"439 979 LINE",
"337 979 LINE"
);
},
{
closed = 1;
nodes = (
"507 -11 OFFCURVE",
"549 20 OFFCURVE",
"622 27 CURVE",
"638 200 LINE",
"523 210 LINE",
"476 98 LINE",
"462 83 OFFCURVE",
"444 69 OFFCURVE",
"393 69 CURVE SMOOTH",
"298 69 OFFCURVE",
"250 191 OFFCURVE",
"250 377 CURVE SMOOTH",
"250 579 OFFCURVE",
"304 672 OFFCURVE",
"390 672 CURVE SMOOTH",
"435 672 OFFCURVE",
"453 661 OFFCURVE",
"462 651 CURVE",
"500 484 LINE",
"626 484 LINE",
"640 729 LINE",
"598 729 OFFCURVE",
"500 751 OFFCURVE",
"398 751 CURVE SMOOTH",
"181 751 OFFCURVE",
"22 610 OFFCURVE",
"22 361 CURVE SMOOTH",
"22 136 OFFCURVE",
"137 -11 OFFCURVE",
"380 -11 CURVE SMOOTH"
);
}
);
width = 666;
}
);
unicode = 0108;
},
{
glyphname = D;
layers = (
{
anchors = (
{
name = bottom;
position = "{378, 0}";
},
{
name = center;
position = "{378, 372}";
},
{
name = mark0;
position = "{393, -83}";
},
{
name = top;
position = "{378, 743}";
}
);
layerId = UUID0;
paths = (
{
closed = 1;
nodes = (
"50 43 LINE",
"50 0 LINE",
"178 0 LINE SMOOTH",
"236 0 OFFCURVE",
"293 -7 OFFCURVE",
"341 -8 CURVE SMOOTH",
"563 -13 OFFCURVE",
"720 149 OFFCURVE",
"720 394 CURVE SMOOTH",
"720 608 OFFCURVE",
"613 751 OFFCURVE",
"354 751 CURVE SMOOTH",
"294 751 OFFCURVE",
"238 743 OFFCURVE",
"177 743 CURVE SMOOTH",
"56 743 LINE",
"56 700 LINE",
"136 689 LINE",
"136 52 LINE"
);
},
{
closed = 1;
nodes = (
"218 697 LINE",
"246 698 OFFCURVE",
"283 703 OFFCURVE",
"328 703 CURVE SMOOTH",
"531 703 OFFCURVE",
"632 594 OFFCURVE",
"632 376 CURVE SMOOTH",
"632 159 OFFCURVE",
"514 43 OFFCURVE",
"353 41 CURVE SMOOTH",
"307 40 OFFCURVE",
"266 40 OFFCURVE",
"218 49 CURVE"
);
}
);
width = 756;
},
{
anchors = (
{
name = bottom;
position = "{383, 0}";
},
{
name = center;
position = "{383, 372}";
},
{
name = mark0;
position = "{400, -83}";
},
{
name = top;
position = "{383, 743}";
}
);
layerId = "D0FF1146-32FF-444C-BC95-9626761FC64D";
paths = (
{
closed = 1;
nodes = (
"29 74 LINE",
"29 0 LINE",
"202 0 LINE SMOOTH",
"234 0 OFFCURVE",
"305 -6 OFFCURVE",
"359 -8 CURVE",
"603 -13 OFFCURVE",
"742 166 OFFCURVE",
"742 399 CURVE SMOOTH",
"742 625 OFFCURVE",
"619 749 OFFCURVE",
"375 749 CURVE SMOOTH",
"311 749 OFFCURVE",
"266 743 OFFCURVE",
"200 743 CURVE SMOOTH",
"31 743 LINE",
"31 664 LINE",
"102 649 LINE",
"102 86 LINE"
);
},
{
closed = 1;
nodes = (
"302 664 LINE",
"308 665 OFFCURVE",
"325 672 OFFCURVE",
"355 672 CURVE SMOOTH",
"480 672 OFFCURVE",
"520 541 OFFCURVE",
"520 372 CURVE SMOOTH",
"520 157 OFFCURVE",
"462 74 OFFCURVE",
"363 73 CURVE SMOOTH",
"339 73 OFFCURVE",
"316 76 OFFCURVE",
"302 83 CURVE"
);
}
);
width = 766;
}
);
unicode = 0044;
},
{
glyphname = Eth;
layers = (
{
layerId = UUID0;
paths = (
{
closed = 1;
nodes = (
"59 411 LINE",
"59 365 LINE",
"136 365 LINE",
"136 52 LINE",
"50 43 LINE",
"50 0 LINE",
"178 0 LINE SMOOTH",
"236 0 OFFCURVE",
"293 -7 OFFCURVE",
"341 -8 CURVE SMOOTH",
"563 -13 OFFCURVE",
"720 149 OFFCURVE",
"720 394 CURVE SMOOTH",
"720 608 OFFCURVE",
"613 751 OFFCURVE",
"354 751 CURVE SMOOTH",
"294 751 OFFCURVE",
"238 743 OFFCURVE",
"177 743 CURVE SMOOTH",
"56 743 LINE",
"56 700 LINE",
"136 689 LINE",
"136 411 LINE"
);
},
{
closed = 1;
nodes = (
"218 411 LINE",
"218 697 LINE",
"246 698 OFFCURVE",
"283 703 OFFCURVE",
"328 703 CURVE SMOOTH",
"531 703 OFFCURVE",
"632 594 OFFCURVE",
"632 376 CURVE SMOOTH",
"632 159 OFFCURVE",
"514 43 OFFCURVE",
"353 41 CURVE SMOOTH",
"307 40 OFFCURVE",
"266 40 OFFCURVE",
"218 49 CURVE",
"218 365 LINE",
"406 365 LINE",
"406 411 LINE"
);
}
);
width = 756;
},
{
layerId = "D0FF1146-32FF-444C-BC95-9626761FC64D";
paths = (
{
closed = 1;
nodes = (
"36 422 LINE",
"36 345 LINE",
"102 345 LINE",
"102 86 LINE",
"29 74 LINE",
"29 0 LINE",
"202 0 LINE SMOOTH",
"234 0 OFFCURVE",
"305 -6 OFFCURVE",
"359 -8 CURVE",
"603 -13 OFFCURVE",
"742 166 OFFCURVE",
"742 399 CURVE SMOOTH",
"742 625 OFFCURVE",
"619 749 OFFCURVE",
"375 749 CURVE SMOOTH",
"311 749 OFFCURVE",
"266 743 OFFCURVE",
"200 743 CURVE SMOOTH",
"31 743 LINE",
"31 664 LINE",
"102 649 LINE",
"102 422 LINE"
);
},
{
closed = 1;
nodes = (
"302 422 LINE",
"302 664 LINE",
"308 665 OFFCURVE",
"325 672 OFFCURVE",
"355 672 CURVE SMOOTH",
"480 672 OFFCURVE",
"520 541 OFFCURVE",
"520 372 CURVE SMOOTH",
"520 157 OFFCURVE",
"462 74 OFFCURVE",
"363 73 CURVE SMOOTH",
"339 73 OFFCURVE",
"316 76 OFFCURVE",
"302 83 CURVE",
"302 345 LINE",
"424 345 LINE",
"424 422 LINE"
);
}
);
width = 766;
}
);
unicode = 00D0;
},
{
glyphname = Dcaron;
layers = (
{
anchors = (
{
name = mark0;
position = "{393, -83}";
}
);
layerId = UUID0;
paths = (
{
closed = 1;
nodes = (
"231 960 LINE",
"352 826 LINE",
"428 826 LINE",
"548 961 LINE",
"515 982 LINE",
"390 882 LINE",
"267 982 LINE"
);
},
{
closed = 1;
nodes = (
"50 43 LINE",
"50 0 LINE",
"178 0 LINE SMOOTH",
"236 0 OFFCURVE",
"293 -7 OFFCURVE",
"341 -8 CURVE SMOOTH",
"563 -13 OFFCURVE",
"720 149 OFFCURVE",
"720 394 CURVE SMOOTH",
"720 608 OFFCURVE",
"613 751 OFFCURVE",
"354 751 CURVE SMOOTH",
"294 751 OFFCURVE",
"238 743 OFFCURVE",
"177 743 CURVE SMOOTH",
"56 743 LINE",
"56 700 LINE",
"136 689 LINE",
"136 52 LINE"
);
},
{
closed = 1;
nodes = (
"218 697 LINE",
"246 698 OFFCURVE",
"283 703 OFFCURVE",
"328 703 CURVE SMOOTH",
"531 703 OFFCURVE",
"632 594 OFFCURVE",
"632 376 CURVE SMOOTH",
"632 159 OFFCURVE",
"514 43 OFFCURVE",
"353 41 CURVE SMOOTH",
"307 40 OFFCURVE",
"266 40 OFFCURVE",
"218 49 CURVE"
);
}
);
width = 756;
},
{
anchors = (
{
name = mark0;
position = "{400, -83}";
}
);
layerId = "D0FF1146-32FF-444C-BC95-9626761FC64D";
paths = (
{
closed = 1;
nodes = (
"184 931 LINE",
"333 789 LINE",
"435 789 LINE",
"593 930 LINE",
"532 983 LINE",
"384 898 LINE",
"246 983 LINE"
);
},
{
closed = 1;
nodes = (
"29 74 LINE",
"29 0 LINE",
"202 0 LINE SMOOTH",
"234 0 OFFCURVE",
"305 -6 OFFCURVE",
"359 -8 CURVE",
"603 -13 OFFCURVE",
"742 166 OFFCURVE",
"742 399 CURVE SMOOTH",
"742 625 OFFCURVE",
"619 749 OFFCURVE",
"375 749 CURVE SMOOTH",
"311 749 OFFCURVE",
"266 743 OFFCURVE",
"200 743 CURVE SMOOTH",
"31 743 LINE",
"31 664 LINE",
"102 649 LINE",
"102 86 LINE"
);
},
{
closed = 1;
nodes = (
"302 664 LINE",
"308 665 OFFCURVE",
"325 672 OFFCURVE",
"355 672 CURVE SMOOTH",
"480 672 OFFCURVE",
"520 541 OFFCURVE",
"520 372 CURVE SMOOTH",
"520 157 OFFCURVE",
"462 74 OFFCURVE",
"363 73 CURVE SMOOTH",
"339 73 OFFCURVE",
"316 76 OFFCURVE",
"302 83 CURVE"
);
}
);
width = 766;
}
);
unicode = 010E;
},
{
glyphname = Dcroat;
layers = (
{
layerId = UUID0;
paths = (
{
closed = 1;
nodes = (
"59 408 LINE",
"59 356 LINE",
"136 356 LINE",
"136 52 LINE",
"50 43 LINE",
"50 0 LINE",
"178 0 LINE SMOOTH",
"236 0 OFFCURVE",
"293 -7 OFFCURVE",
"341 -8 CURVE SMOOTH",
"563 -13 OFFCURVE",
"720 149 OFFCURVE",
"720 394 CURVE SMOOTH",
"720 608 OFFCURVE",
"613 751 OFFCURVE",
"354 751 CURVE SMOOTH",
"294 751 OFFCURVE",
"238 743 OFFCURVE",
"177 743 CURVE SMOOTH",
"56 743 LINE",
"56 700 LINE",
"136 689 LINE",
"136 408 LINE"
);
},
{
closed = 1;
nodes = (
"218 408 LINE",
"218 697 LINE",
"246 698 OFFCURVE",
"283 703 OFFCURVE",
"328 703 CURVE SMOOTH",
"531 703 OFFCURVE",
"632 594 OFFCURVE",
"632 376 CURVE SMOOTH",
"632 159 OFFCURVE",
"514 43 OFFCURVE",
"353 41 CURVE SMOOTH",
"307 40 OFFCURVE",
"266 40 OFFCURVE",
"218 49 CURVE",
"218 356 LINE",
"406 356 LINE",
"406 408 LINE"
);
}
);
width = 756;
},
{
layerId = "D0FF1146-32FF-444C-BC95-9626761FC64D";
paths = (
{
closed = 1;
nodes = (
"25 421 LINE",
"25 341 LINE",
"102 341 LINE",
"102 86 LINE",
"29 74 LINE",
"29 0 LINE",
"202 0 LINE SMOOTH",
"234 0 OFFCURVE",
"305 -6 OFFCURVE",
"359 -8 CURVE",
"603 -13 OFFCURVE",
"742 166 OFFCURVE",
"742 399 CURVE SMOOTH",
"742 625 OFFCURVE",
"619 749 OFFCURVE",
"375 749 CURVE SMOOTH",
"311 749 OFFCURVE",
"266 743 OFFCURVE",
"200 743 CURVE SMOOTH",
"31 743 LINE",
"31 664 LINE",
"102 649 LINE",
"102 421 LINE"
);
},
{
closed = 1;
nodes = (
"302 421 LINE",
"302 664 LINE",
"308 665 OFFCURVE",
"325 672 OFFCURVE",
"355 672 CURVE SMOOTH",
"480 672 OFFCURVE",
"520 541 OFFCURVE",
"520 372 CURVE SMOOTH",
"520 157 OFFCURVE",
"462 74 OFFCURVE",
"363 73 CURVE SMOOTH",
"339 73 OFFCURVE",
"316 76 OFFCURVE",
"302 83 CURVE",
"302 341 LINE",
"413 341 LINE",
"413 421 LINE"
);
}
);
width = 766;
}
);
unicode = 0110;
},
{
glyphname = E;
layers = (
{
anchors = (
{
name = bottom;
position = "{325, 0}";
},
{
name = mark0;
position = "{341, -83}";
},
{
name = ogonek;
position = "{584, 10}";
},
{
name = top;
position = "{345, 743}";
},
{
name = topleft;
position = "{20, 743}";
}
);
layerId = UUID0;
paths = (
{
closed = 1;
nodes = (
"50 43 LINE",
"50 0 LINE",
"592 0 LINE",
"623 169 LINE",
"575 184 LINE",
"524 59 LINE",
"218 51 LINE",
"218 359 LINE",
"402 356 LINE",
"415 271 LINE",
"465 271 LINE",
"465 492 LINE",
"415 492 LINE",
"402 409 LINE",
"218 406 LINE",
"218 697 LINE",
"486 692 LINE",
"513 596 LINE",
"561 596 LINE",
"547 743 LINE",
"52 743 LINE",
"52 700 LINE",
"136 689 LINE",
"136 52 LINE"
);
}
);
width = 649;
},
{
anchors = (
{
name = bottom;
position = "{330, 0}";
},
{
name = mark0;
position = "{351, -83}";
},
{
name = ogonek;
position = "{594, 10}";
},
{
name = top;
position = "{350, 743}";
},
{
name = topleft;
position = "{20, 743}";
}
);
layerId = "D0FF1146-32FF-444C-BC95-9626761FC64D";
paths = (
{
closed = 1;
nodes = (
"29 74 LINE",
"29 0 LINE",
"634 0 LINE",
"655 195 LINE",
"557 222 LINE",
"493 91 LINE",
"305 76 LINE",
"305 334 LINE",
"406 332 LINE",
"424 244 LINE",
"500 244 LINE",
"500 505 LINE",
"424 505 LINE",
"405 424 LINE",
"305 421 LINE",
"305 670 LINE",
"477 658 LINE",
"514 556 LINE",
"604 556 LINE",
"591 743 LINE",
"26 743 LINE",
"26 664 LINE",
"102 649 LINE",
"102 85 LINE"
);
}
);
width = 660;
}
);
unicode = 0045;
},
{
glyphname = Ebreve;
layers = (
{
anchors = (
{
name = mark0;
position = "{341, -83}";
}
);
layerId = UUID0;
paths = (
{
closed = 1;
nodes = (
"440 808 OFFCURVE",
"499 872 OFFCURVE",
"499 955 CURVE SMOOTH",
"499 961 OFFCURVE",
"499 967 OFFCURVE",
"498 974 CURVE",
"454 974 LINE",
"454 971 OFFCURVE",
"454 967 OFFCURVE",
"453 961 CURVE SMOOTH",
"450 925 OFFCURVE",
"424 874 OFFCURVE",
"341 874 CURVE SMOOTH",
"258 874 OFFCURVE",
"231 924 OFFCURVE",
"227 960 CURVE SMOOTH",
"226 966 OFFCURVE",
"226 971 OFFCURVE",
"226 974 CURVE",
"180 974 LINE",
"179 967 OFFCURVE",
"179 961 OFFCURVE",
"179 954 CURVE SMOOTH",
"179 872 OFFCURVE",
"237 808 OFFCURVE",
"341 808 CURVE SMOOTH"
);
},
{
closed = 1;
nodes = (
"50 43 LINE",
"50 0 LINE",
"592 0 LINE",
"623 169 LINE",
"575 184 LINE",
"524 59 LINE",
"218 51 LINE",
"218 359 LINE",
"402 356 LINE",
"415 271 LINE",
"465 271 LINE",
"465 492 LINE",
"415 492 LINE",
"402 409 LINE",
"218 406 LINE",
"218 697 LINE",
"486 692 LINE",
"513 596 LINE",
"561 596 LINE",
"547 743 LINE",
"52 743 LINE",
"52 700 LINE",
"136 689 LINE",
"136 52 LINE"
);
}
);
width = 650;
},
{
anchors = (
{
name = mark0;
position = "{351, -83}";
}
);
layerId = "D0FF1146-32FF-444C-BC95-9626761FC64D";
paths = (
{
closed = 1;
nodes = (
"475 789 OFFCURVE",
"541 871 OFFCURVE",
"541 959 CURVE SMOOTH",
"541 967 OFFCURVE",
"541 974 OFFCURVE",
"540 981 CURVE",
"447 981 LINE",
"447 979 OFFCURVE",
"447 975 OFFCURVE",
"446 971 CURVE SMOOTH",
"443 943 OFFCURVE",
"424 902 OFFCURVE",
"345 902 CURVE SMOOTH",
"265 902 OFFCURVE",
"243 944 OFFCURVE",
"239 971 CURVE SMOOTH",
"238 975 OFFCURVE",
"238 979 OFFCURVE",
"238 981 CURVE",
"147 981 LINE",
"146 974 OFFCURVE",
"146 966 OFFCURVE",
"146 958 CURVE SMOOTH",
"146 870 OFFCURVE",
"209 789 OFFCURVE",
"344 789 CURVE SMOOTH"
);
},
{
closed = 1;
nodes = (
"29 74 LINE",
"29 0 LINE",
"634 0 LINE",
"655 195 LINE",
"557 222 LINE",
"493 91 LINE",
"305 76 LINE",
"305 334 LINE",
"406 332 LINE",
"424 244 LINE",
"500 244 LINE",
"500 505 LINE",
"424 505 LINE",
"405 424 LINE",
"305 421 LINE",
"305 670 LINE",
"477 658 LINE",
"514 556 LINE",
"604 556 LINE",
"591 743 LINE",
"26 743 LINE",
"26 664 LINE",
"102 649 LINE",
"102 85 LINE"
);
}
);
width = 660;
}
);
unicode = 0114;
},
{
glyphname = Ecaron;
layers = (
{
anchors = (
{
name = mark0;
position = "{341, -83}";
}
);
layerId = UUID0;
paths = (
{
closed = 1;
nodes = (
"182 960 LINE",
"303 826 LINE",
"379 826 LINE",
"499 961 LINE",
"466 982 LINE",
"341 882 LINE",
"218 982 LINE"
);
},
{
closed = 1;
nodes = (
"50 43 LINE",
"50 0 LINE",
"592 0 LINE",
"623 169 LINE",
"575 184 LINE",
"524 59 LINE",
"218 51 LINE",
"218 359 LINE",
"402 356 LINE",
"415 271 LINE",
"465 271 LINE",
"465 492 LINE",
"415 492 LINE",
"402 409 LINE",
"218 406 LINE",
"218 697 LINE",
"486 692 LINE",
"513 596 LINE",
"561 596 LINE",
"547 743 LINE",
"52 743 LINE",
"52 700 LINE",
"136 689 LINE",
"136 52 LINE"
);
}
);
width = 650;
},
{
anchors = (
{
name = mark0;
position = "{351, -83}";
}
);
layerId = "D0FF1146-32FF-444C-BC95-9626761FC64D";
paths = (
{
closed = 1;
nodes = (
"141 931 LINE",
"290 789 LINE",
"392 789 LINE",
"550 930 LINE",
"489 983 LINE",
"341 898 LINE",
"203 983 LINE"
);
},
{
closed = 1;
nodes = (
"29 74 LINE",
"29 0 LINE",
"634 0 LINE",
"655 195 LINE",
"557 222 LINE",
"493 91 LINE",
"305 76 LINE",
"305 334 LINE",
"406 332 LINE",
"424 244 LINE",
"500 244 LINE",
"500 505 LINE",
"424 505 LINE",
"405 424 LINE",
"305 421 LINE",
"305 670 LINE",
"477 658 LINE",
"514 556 LINE",
"604 556 LINE",
"591 743 LINE",
"26 743 LINE",
"26 664 LINE",
"102 649 LINE",
"102 85 LINE"
);
}
);
width = 660;
}
);
unicode = 011A;
},
{
glyphname = Ecircumflex;
layers = (
{
anchors = (
{
name = mark0;
position = "{341, -83}";
}
);
layerId = UUID0;
paths = (
{
closed = 1;
nodes = (
"174 838 LINE",
"207 817 LINE",
"340 923 LINE",
"470 817 LINE",
"506 839 LINE",
"377 983 LINE",
"302 983 LINE"
);
},
{
closed = 1;
nodes = (
"50 43 LINE",
"50 0 LINE",
"592 0 LINE",
"623 169 LINE",
"575 184 LINE",
"524 59 LINE",
"218 51 LINE",
"218 359 LINE",
"402 356 LINE",
"415 271 LINE",
"465 271 LINE",
"465 492 LINE",
"415 492 LINE",
"402 409 LINE",
"218 406 LINE",
"218 697 LINE",
"486 692 LINE",
"513 596 LINE",
"561 596 LINE",
"547 743 LINE",
"52 743 LINE",
"52 700 LINE",
"136 689 LINE",
"136 52 LINE"
);
}
);
width = 649;
},
{
anchors = (
{
name = mark0;
position = "{351, -83}";
}
);
layerId = "D0FF1146-32FF-444C-BC95-9626761FC64D";
paths = (
{
closed = 1;
nodes = (
"132 832 LINE",
"193 779 LINE",
"341 870 LINE",
"489 779 LINE",
"550 833 LINE",
"393 979 LINE",
"291 979 LINE"
);
},
{
closed = 1;
nodes = (
"29 74 LINE",
"29 0 LINE",
"634 0 LINE",
"655 195 LINE",
"557 222 LINE",
"493 91 LINE",
"305 76 LINE",
"305 334 LINE",
"406 332 LINE",
"424 244 LINE",
"500 244 LINE",
"500 505 LINE",
"424 505 LINE",
"405 424 LINE",
"305 421 LINE",
"305 670 LINE",
"477 658 LINE",
"514 556 LINE",
"604 556 LINE",
"591 743 LINE",
"26 743 LINE",
"26 664 LINE",
"102 649 LINE",
"102 85 LINE"
);
}
);
width = 660;
}
);
unicode = 00CA;
},
{
glyphname = Edieresis;
layers = (
{
anchors = (
{
name = mark0;
position = "{341, -83}";
}
);
layerId = UUID0;
paths = (
{
closed = 1;
nodes = (
"217 834 LINE",
"258 834 OFFCURVE",
"278 864 OFFCURVE",
"278 899 CURVE SMOOTH",
"278 928 OFFCURVE",
"258 958 OFFCURVE",
"225 958 CURVE",
"224 958 LINE",
"185 958 OFFCURVE",
"166 925 OFFCURVE",
"166 891 CURVE SMOOTH",
"166 860 OFFCURVE",
"185 834 OFFCURVE",
"216 834 CURVE"
);
},
{
closed = 1;
nodes = (
"495 834 OFFCURVE",
"515 864 OFFCURVE",
"515 899 CURVE SMOOTH",
"515 928 OFFCURVE",
"497 958 OFFCURVE",
"463 958 CURVE",
"462 958 LINE",
"423 958 OFFCURVE",
"404 925 OFFCURVE",
"404 891 CURVE SMOOTH",
"404 860 OFFCURVE",
"423 834 OFFCURVE",
"454 834 CURVE SMOOTH"
);
},
{
closed = 1;
nodes = (
"50 43 LINE",
"50 0 LINE",
"592 0 LINE",
"623 169 LINE",
"575 184 LINE",
"524 59 LINE",
"218 51 LINE",
"218 359 LINE",
"402 356 LINE",
"415 271 LINE",
"465 271 LINE",
"465 492 LINE",
"415 492 LINE",
"402 409 LINE",
"218 406 LINE",
"218 697 LINE",
"486 692 LINE",
"513 596 LINE",
"561 596 LINE",
"547 743 LINE",
"52 743 LINE",
"52 700 LINE",
"136 689 LINE",
"136 52 LINE"
);
}
);
width = 650;
},
{
anchors = (
{
name = mark0;
position = "{351, -83}";
}
);
layerId = "D0FF1146-32FF-444C-BC95-9626761FC64D";
paths = (
{
closed = 1;
nodes = (
"195 794 LINE",
"269 794 OFFCURVE",
"301 838 OFFCURVE",
"301 894 CURVE SMOOTH",
"301 938 OFFCURVE",
"274 977 OFFCURVE",
"212 977 CURVE",
"211 977 LINE",
"145 977 OFFCURVE",
"115 934 OFFCURVE",
"115 878 CURVE SMOOTH",
"115 833 OFFCURVE",
"148 794 OFFCURVE",
"194 794 CURVE"
);
},
{
closed = 1;
nodes = (
"538 794 OFFCURVE",
"569 838 OFFCURVE",
"569 894 CURVE SMOOTH",
"569 938 OFFCURVE",
"543 977 OFFCURVE",
"480 977 CURVE",
"479 977 LINE",
"413 977 OFFCURVE",
"384 934 OFFCURVE",
"384 878 CURVE SMOOTH",
"384 839 OFFCURVE",
"416 794 OFFCURVE",
"463 794 CURVE SMOOTH"
);
},
{
closed = 1;
nodes = (
"29 74 LINE",
"29 0 LINE",
"634 0 LINE",
"655 195 LINE",
"557 222 LINE",
"493 91 LINE",
"305 76 LINE",
"305 334 LINE",
"406 332 LINE",
"424 244 LINE",
"500 244 LINE",
"500 505 LINE",
"424 505 LINE",
"405 424 LINE",
"305 421 LINE",
"305 670 LINE",
"477 658 LINE",
"514 556 LINE",
"604 556 LINE",
"591 743 LINE",
"26 743 LINE",
"26 664 LINE",
"102 649 LINE",
"102 85 LINE"
);
}
);
width = 660;
}
);
unicode = 00CB;
},
{
glyphname = Emacron;
layers = (
{
anchors = (
{
name = mark0;
position = "{341, -83}";
}
);
layerId = UUID0;
paths = (
{
closed = 1;
nodes = (
"211 920 LINE",
"211 859 LINE",
"474 859 LINE",
"474 920 LINE"
);
},
{
closed = 1;
nodes = (
"50 43 LINE",
"50 0 LINE",
"592 0 LINE",
"623 169 LINE",
"575 184 LINE",
"524 59 LINE",
"218 51 LINE",
"218 359 LINE",
"402 356 LINE",
"415 271 LINE",
"465 271 LINE",
"465 492 LINE",
"415 492 LINE",
"402 409 LINE",
"218 406 LINE",
"218 697 LINE",
"486 692 LINE",
"513 596 LINE",
"561 596 LINE",
"547 743 LINE",
"52 743 LINE",
"52 700 LINE",
"136 689 LINE",
"136 52 LINE"
);
}
);
width = 650;
},
{
anchors = (
{
name = mark0;
position = "{351, -83}";
}
);
layerId = "D0FF1146-32FF-444C-BC95-9626761FC64D";
paths = (
{
closed = 1;
nodes = (
"172 937 LINE",
"172 829 LINE",
"512 829 LINE",
"512 937 LINE"
);
},
{
closed = 1;
nodes = (
"29 74 LINE",
"29 0 LINE",
"634 0 LINE",
"655 195 LINE",
"557 222 LINE",
"493 91 LINE",
"305 76 LINE",
"305 334 LINE",
"406 332 LINE",
"424 244 LINE",
"500 244 LINE",
"500 505 LINE",
"424 505 LINE",
"405 424 LINE",
"305 421 LINE",
"305 670 LINE",
"477 658 LINE",
"514 556 LINE",
"604 556 LINE",
"591 743 LINE",
"26 743 LINE",
"26 664 LINE",
"102 649 LINE",
"102 85 LINE"
);
}
);
width = 660;
}
);
unicode = 0112;
},
{
glyphname = Eogonek;
layers = (
{
layerId = UUID0;
paths = (
{
closed = 1;
nodes = (
"50 43 LINE",
"50 0 LINE",
"499 0 LINE",
"423 -30 OFFCURVE",
"357 -100 OFFCURVE",
"357 -155 CURVE SMOOTH",
"357 -226 OFFCURVE",
"418 -249 OFFCURVE",
"479 -249 CURVE SMOOTH",
"520 -249 OFFCURVE",
"564 -236 OFFCURVE",
"592 -215 CURVE",
"592 -173 LINE",
"569 -185 OFFCURVE",
"540 -193 OFFCURVE",
"514 -193 CURVE SMOOTH",
"473 -193 OFFCURVE",
"437 -176 OFFCURVE",
"437 -129 CURVE SMOOTH",
"437 -83 OFFCURVE",
"512 -13 OFFCURVE",
"579 0 CURVE",
"592 0 LINE",
"623 169 LINE",
"575 184 LINE",
"524 59 LINE",
"218 51 LINE",
"218 359 LINE",
"402 356 LINE",
"415 271 LINE",
"465 271 LINE",
"465 492 LINE",
"415 492 LINE",
"402 409 LINE",
"218 406 LINE",
"218 697 LINE",
"486 692 LINE",
"513 596 LINE",
"561 596 LINE",
"547 743 LINE",
"52 743 LINE",
"52 700 LINE",
"136 689 LINE",
"136 52 LINE"
);
}
);
width = 650;
},
{
layerId = "D0FF1146-32FF-444C-BC95-9626761FC64D";
paths = (
{
closed = 1;
nodes = (
"29 74 LINE",
"29 0 LINE",
"508 0 LINE",
"410 -33 OFFCURVE",
"361 -89 OFFCURVE",
"361 -149 CURVE SMOOTH",
"361 -209 OFFCURVE",
"410 -251 OFFCURVE",
"499 -251 CURVE SMOOTH",
"540 -251 OFFCURVE",
"597 -240 OFFCURVE",
"625 -219 CURVE",
"625 -139 LINE",
"603 -148 OFFCURVE",
"594 -150 OFFCURVE",
"571 -150 CURVE SMOOTH",
"531 -150 OFFCURVE",
"511 -129 OFFCURVE",
"511 -100 CURVE SMOOTH",
"511 -68 OFFCURVE",
"560 -17 OFFCURVE",
"627 0 CURVE",
"634 0 LINE",
"655 195 LINE",
"557 222 LINE",
"493 91 LINE",
"305 76 LINE",
"305 334 LINE",
"406 332 LINE",
"424 244 LINE",
"500 244 LINE",
"500 505 LINE",
"424 505 LINE",
"405 424 LINE",
"305 421 LINE",
"305 670 LINE",
"477 658 LINE",
"514 556 LINE",
"604 556 LINE",
"591 743 LINE",
"26 743 LINE",
"26 664 LINE",
"102 649 LINE",
"102 85 LINE"
);
}
);
width = 660;
}
);
unicode = 0118;
},
{
glyphname = F;
layers = (
{
anchors = (
{
name = bottom;
position = "{309, 0}";
},
{
name = mark0;
position = "{314, -83}";
},
{
name = top;
position = "{339, 743}";
}
);
layerId = UUID0;
paths = (
{
closed = 1;
nodes = (
"54 43 LINE",
"54 0 LINE",
"375 0 LINE",
"375 43 LINE",
"218 52 LINE",
"218 353 LINE",
"418 349 LINE",
"435 264 LINE",
"481 264 LINE",
"481 485 LINE",
"435 485 LINE",
"418 404 LINE",
"218 401 LINE",
"218 697 LINE",
"500 692 LINE",
"527 579 LINE",
"582 579 LINE",
"572 743 LINE",
"48 743 LINE",
"48 700 LINE",
"136 689 LINE",
"136 52 LINE"
);
}
);
width = 617;
},
{
anchors = (
{
name = bottom;
position = "{313, 0}";
},
{
name = mark0;
position = "{324, -83}";
},
{
name = top;
position = "{333, 743}";
}
);
layerId = "D0FF1146-32FF-444C-BC95-9626761FC64D";
paths = (
{
closed = 1;
nodes = (
"29 74 LINE",
"29 0 LINE",
"456 0 LINE",
"456 74 LINE",
"305 86 LINE",
"305 312 LINE",
"411 308 LINE",
"433 213 LINE",
"511 213 LINE",
"511 496 LINE",
"432 496 LINE",
"411 403 LINE",
"305 400 LINE",
"305 670 LINE",
"465 655 LINE",
"510 548 LINE",
"612 548 LINE",
"601 743 LINE",
"25 743 LINE",
"25 664 LINE",
"102 649 LINE",
"102 86 LINE"
);
}
);
width = 626;
}
);
unicode = 0046;
},
{
glyphname = G;
layers = (
{
anchors = (
{
name = bottom;
position = "{369, 0}";
},
{
name = mark0;
position = "{383, -83}";
},
{
name = top;
position = "{399, 743}";
}
);
layerId = UUID0;
paths = (
{
closed = 1;
nodes = (
"526 -11 OFFCURVE",
"604 38 OFFCURVE",
"657 40 CURVE",
"657 311 LINE",
"718 321 LINE",
"718 374 LINE",
"434 374 LINE",
"434 321 LINE",
"573 311 LINE",
"573 83 LINE",
"537 55 OFFCURVE",
"469 37 OFFCURVE",
"398 37 CURVE SMOOTH",
"224 37 OFFCURVE",
"142 209 OFFCURVE",
"142 385 CURVE SMOOTH",
"142 596 OFFCURVE",
"259 703 OFFCURVE",
"414 703 CURVE SMOOTH",
"508 703 OFFCURVE",
"552 681 OFFCURVE",
"567 669 CURVE",
"589 554 LINE",
"641 554 LINE",
"649 720 LINE",
"615 728 OFFCURVE",
"526 751 OFFCURVE",
"423 751 CURVE SMOOTH",
"214 751 OFFCURVE",
"48 610 OFFCURVE",
"48 359 CURVE SMOOTH",
"48 148 OFFCURVE",
"175 -11 OFFCURVE",
"392 -11 CURVE SMOOTH"
);
}
);
width = 738;
},
{
anchors = (
{
name = bottom;
position = "{375, 0}";
},
{
name = mark0;
position = "{377, -83}";
},
{
name = top;
position = "{405, 743}";
}
);
layerId = "D0FF1146-32FF-444C-BC95-9626761FC64D";
paths = (
{
closed = 1;
nodes = (
"517 -11 OFFCURVE",
"632 38 OFFCURVE",
"685 40 CURVE",
"685 300 LINE",
"731 308 LINE",
"731 387 LINE",
"410 387 LINE",
"410 308 LINE",
"487 297 LINE",
"487 95 LINE",
"473 79 OFFCURVE",
"440 66 OFFCURVE",
"400 66 CURVE SMOOTH",
"295 66 OFFCURVE",
"259 187 OFFCURVE",
"259 377 CURVE SMOOTH",
"259 574 OFFCURVE",
"310 679 OFFCURVE",
"415 679 CURVE SMOOTH",
"462 679 OFFCURVE",
"484 666 OFFCURVE",
"491 657 CURVE",
"521 519 LINE",
"666 519 LINE",
"679 722 LINE",
"643 730 OFFCURVE",
"524 753 OFFCURVE",
"417 753 CURVE SMOOTH",
"166 753 OFFCURVE",
"23 618 OFFCURVE",
"23 367 CURVE SMOOTH",
"23 154 OFFCURVE",
"147 -11 OFFCURVE",
"381 -11 CURVE SMOOTH"
);
}
);
width = 750;
}
);
unicode = 0047;
},
{
glyphname = Gbreve;
layers = (
{
anchors = (
{
name = mark0;
position = "{384, -83}";
}
);
layerId = UUID0;
paths = (
{
closed = 1;
nodes = (
"501 808 OFFCURVE",
"560 872 OFFCURVE",
"560 955 CURVE SMOOTH",
"560 961 OFFCURVE",
"560 967 OFFCURVE",
"559 974 CURVE",
"515 974 LINE",
"515 971 OFFCURVE",
"515 967 OFFCURVE",
"514 961 CURVE SMOOTH",
"511 925 OFFCURVE",
"485 874 OFFCURVE",
"402 874 CURVE SMOOTH",
"319 874 OFFCURVE",
"292 924 OFFCURVE",
"288 960 CURVE SMOOTH",
"287 966 OFFCURVE",
"287 971 OFFCURVE",
"287 974 CURVE",
"241 974 LINE",
"240 967 OFFCURVE",
"240 961 OFFCURVE",
"240 954 CURVE SMOOTH",
"240 872 OFFCURVE",
"298 808 OFFCURVE",
"402 808 CURVE SMOOTH"
);
},
{
closed = 1;
nodes = (
"527 -11 OFFCURVE",
"605 38 OFFCURVE",
"658 40 CURVE",
"658 311 LINE",
"719 321 LINE",
"719 374 LINE",
"435 374 LINE",
"435 321 LINE",
"574 311 LINE",
"574 83 LINE",
"538 55 OFFCURVE",
"470 37 OFFCURVE",
"399 37 CURVE SMOOTH",
"225 37 OFFCURVE",
"143 209 OFFCURVE",
"143 385 CURVE SMOOTH",
"143 596 OFFCURVE",
"260 703 OFFCURVE",
"415 703 CURVE SMOOTH",
"509 703 OFFCURVE",
"553 681 OFFCURVE",
"568 669 CURVE",
"590 554 LINE",
"642 554 LINE",
"650 720 LINE",
"616 728 OFFCURVE",
"527 751 OFFCURVE",
"424 751 CURVE SMOOTH",
"215 751 OFFCURVE",
"49 610 OFFCURVE",
"49 359 CURVE SMOOTH",
"49 148 OFFCURVE",
"176 -11 OFFCURVE",
"393 -11 CURVE SMOOTH"
);
}
);
width = 739;
},
{
anchors = (
{
name = mark0;
position = "{376, -83}";
}
);
layerId = "D0FF1146-32FF-444C-BC95-9626761FC64D";
paths = (
{
closed = 1;
nodes = (
"534 789 OFFCURVE",
"600 871 OFFCURVE",
"600 959 CURVE SMOOTH",
"600 967 OFFCURVE",
"600 974 OFFCURVE",
"599 981 CURVE",
"506 981 LINE",
"506 979 OFFCURVE",
"506 975 OFFCURVE",
"505 971 CURVE SMOOTH",
"502 943 OFFCURVE",
"483 902 OFFCURVE",
"404 902 CURVE SMOOTH",
"324 902 OFFCURVE",
"302 944 OFFCURVE",
"298 971 CURVE SMOOTH",
"297 975 OFFCURVE",
"297 979 OFFCURVE",
"297 981 CURVE",
"206 981 LINE",
"205 974 OFFCURVE",
"205 966 OFFCURVE",
"205 958 CURVE SMOOTH",
"205 870 OFFCURVE",
"268 789 OFFCURVE",
"403 789 CURVE SMOOTH"
);
},
{
closed = 1;
nodes = (
"516 -11 OFFCURVE",
"631 38 OFFCURVE",
"684 40 CURVE",
"684 300 LINE",
"730 308 LINE",
"730 387 LINE",
"409 387 LINE",
"409 308 LINE",
"486 297 LINE",
"486 95 LINE",
"472 79 OFFCURVE",
"439 66 OFFCURVE",
"399 66 CURVE SMOOTH",
"294 66 OFFCURVE",
"258 187 OFFCURVE",
"258 377 CURVE SMOOTH",
"258 574 OFFCURVE",
"309 679 OFFCURVE",
"414 679 CURVE SMOOTH",
"461 679 OFFCURVE",
"483 666 OFFCURVE",
"490 657 CURVE",
"520 519 LINE",
"665 519 LINE",
"678 722 LINE",
"642 730 OFFCURVE",
"523 753 OFFCURVE",
"416 753 CURVE SMOOTH",
"165 753 OFFCURVE",
"22 618 OFFCURVE",
"22 367 CURVE SMOOTH",
"22 154 OFFCURVE",
"146 -11 OFFCURVE",
"380 -11 CURVE SMOOTH"
);
}
);
width = 751;
}
);
unicode = 011E;
},
{
glyphname = Gcircumflex;
layers = (
{
anchors = (
{
name = mark0;
position = "{383, -83}";
}
);
layerId = UUID0;
paths = (
{
closed = 1;
nodes = (
"234 838 LINE",
"267 817 LINE",
"400 923 LINE",
"530 817 LINE",
"566 839 LINE",
"437 983 LINE",
"362 983 LINE"
);
},
{
closed = 1;
nodes = (
"526 -11 OFFCURVE",
"604 38 OFFCURVE",
"657 40 CURVE",
"657 311 LINE",
"718 321 LINE",
"718 374 LINE",
"434 374 LINE",
"434 321 LINE",
"573 311 LINE",
"573 83 LINE",
"537 55 OFFCURVE",
"469 37 OFFCURVE",
"398 37 CURVE SMOOTH",
"224 37 OFFCURVE",
"142 209 OFFCURVE",
"142 385 CURVE SMOOTH",
"142 596 OFFCURVE",
"259 703 OFFCURVE",
"414 703 CURVE SMOOTH",
"508 703 OFFCURVE",
"552 681 OFFCURVE",
"567 669 CURVE",
"589 554 LINE",
"641 554 LINE",
"649 720 LINE",
"615 728 OFFCURVE",
"526 751 OFFCURVE",
"423 751 CURVE SMOOTH",
"214 751 OFFCURVE",
"48 610 OFFCURVE",
"48 359 CURVE SMOOTH",
"48 148 OFFCURVE",
"175 -11 OFFCURVE",
"392 -11 CURVE SMOOTH"
);
}
);
width = 738;
},
{
anchors = (
{
name = mark0;
position = "{377, -83}";
}
);
layerId = "D0FF1146-32FF-444C-BC95-9626761FC64D";
paths = (
{
closed = 1;
nodes = (
"214 832 LINE",
"275 779 LINE",
"423 870 LINE",
"571 779 LINE",
"632 833 LINE",
"475 979 LINE",
"373 979 LINE"
);
},
{
closed = 1;
nodes = (
"517 -11 OFFCURVE",
"632 38 OFFCURVE",
"685 40 CURVE",
"685 300 LINE",
"731 308 LINE",
"731 387 LINE",
"410 387 LINE",
"410 308 LINE",
"487 297 LINE",
"487 95 LINE",
"473 79 OFFCURVE",
"440 66 OFFCURVE",
"400 66 CURVE SMOOTH",
"295 66 OFFCURVE",
"259 187 OFFCURVE",
"259 377 CURVE SMOOTH",
"259 574 OFFCURVE",
"310 679 OFFCURVE",
"415 679 CURVE SMOOTH",
"462 679 OFFCURVE",
"484 666 OFFCURVE",
"491 657 CURVE",
"521 519 LINE",
"666 519 LINE",
"679 722 LINE",
"643 730 OFFCURVE",
"524 753 OFFCURVE",
"417 753 CURVE SMOOTH",
"166 753 OFFCURVE",
"23 618 OFFCURVE",
"23 367 CURVE SMOOTH",
"23 154 OFFCURVE",
"147 -11 OFFCURVE",
"381 -11 CURVE SMOOTH"
);
}
);
width = 750;
}
);
unicode = 011C;
},
{
glyphname = Gcommaaccent;
layers = (
{
anchors = (
{
name = mark0;
position = "{386, -83}";
}
);
layerId = UUID0;
paths = (
{
closed = 1;
nodes = (
"529 -11 OFFCURVE",
"607 38 OFFCURVE",
"660 40 CURVE",
"660 311 LINE",
"721 321 LINE",
"721 374 LINE",
"437 374 LINE",
"437 321 LINE",
"576 311 LINE",
"576 83 LINE",
"540 55 OFFCURVE",
"472 37 OFFCURVE",
"401 37 CURVE SMOOTH",
"227 37 OFFCURVE",
"145 209 OFFCURVE",
"145 385 CURVE SMOOTH",
"145 596 OFFCURVE",
"262 703 OFFCURVE",
"417 703 CURVE SMOOTH",
"511 703 OFFCURVE",
"555 681 OFFCURVE",
"570 669 CURVE",
"592 554 LINE",
"644 554 LINE",
"652 720 LINE",
"618 728 OFFCURVE",
"529 751 OFFCURVE",
"426 751 CURVE SMOOTH",
"217 751 OFFCURVE",
"51 610 OFFCURVE",
"51 359 CURVE SMOOTH",
"51 148 OFFCURVE",
"178 -11 OFFCURVE",
"395 -11 CURVE SMOOTH"
);
},
{
closed = 1;
nodes = (
"454 -86 OFFCURVE",
"430 -58 OFFCURVE",
"393 -58 CURVE SMOOTH",
"389 -58 LINE SMOOTH",
"377 -58 OFFCURVE",
"345 -65 OFFCURVE",
"345 -102 CURVE SMOOTH",
"345 -123 OFFCURVE",
"354 -132 OFFCURVE",
"364 -139 CURVE SMOOTH",
"374 -146 OFFCURVE",
"385 -155 OFFCURVE",
"385 -175 CURVE SMOOTH",
"385 -206 OFFCURVE",
"371 -237 OFFCURVE",
"351 -247 CURVE",
"351 -253 LINE",
"378 -272 LINE",
"379 -272 LINE",
"390 -268 OFFCURVE",
"454 -219 OFFCURVE",
"454 -138 CURVE SMOOTH"
);
}
);
width = 742;
},
{
anchors = (
{
name = mark0;
position = "{376, -83}";
}
);
layerId = "D0FF1146-32FF-444C-BC95-9626761FC64D";
paths = (
{
closed = 1;
nodes = (
"516 -11 OFFCURVE",
"631 38 OFFCURVE",
"684 40 CURVE",
"684 300 LINE",
"730 308 LINE",
"730 387 LINE",
"409 387 LINE",
"409 308 LINE",
"486 297 LINE",
"486 95 LINE",
"472 79 OFFCURVE",
"439 66 OFFCURVE",
"399 66 CURVE SMOOTH",
"294 66 OFFCURVE",
"258 187 OFFCURVE",
"258 377 CURVE SMOOTH",
"258 574 OFFCURVE",
"309 679 OFFCURVE",
"414 679 CURVE SMOOTH",
"461 679 OFFCURVE",
"483 666 OFFCURVE",
"490 657 CURVE",
"520 519 LINE",
"665 519 LINE",
"678 722 LINE",
"642 730 OFFCURVE",
"523 753 OFFCURVE",
"416 753 CURVE SMOOTH",
"165 753 OFFCURVE",
"22 618 OFFCURVE",
"22 367 CURVE SMOOTH",
"22 154 OFFCURVE",
"146 -11 OFFCURVE",
"380 -11 CURVE SMOOTH"
);
},
{
closed = 1;
nodes = (
"479 -70 OFFCURVE",
"444 -42 OFFCURVE",
"395 -42 CURVE SMOOTH",
"392 -42 LINE SMOOTH",
"356 -42 OFFCURVE",
"305 -57 OFFCURVE",
"305 -107 CURVE SMOOTH",
"305 -134 OFFCURVE",
"318 -150 OFFCURVE",
"329 -158 CURVE SMOOTH",
"337 -163 OFFCURVE",
"347 -172 OFFCURVE",
"347 -193 CURVE SMOOTH",
"347 -215 OFFCURVE",
"339 -247 OFFCURVE",
"326 -252 CURVE",
"329 -260 LINE",
"389 -273 LINE",
"391 -273 LINE",
"419 -263 OFFCURVE",
"478 -195 OFFCURVE",
"479 -123 CURVE SMOOTH"
);
}
);
width = 751;
}
);
unicode = 0122;
},
{
glyphname = H;
layers = (
{
anchors = (
{
name = mark0;
position = "{410, -83}";
}
);
layerId = UUID0;
paths = (
{
closed = 1;
nodes = (
"54 43 LINE",
"54 0 LINE",
"309 0 LINE",
"309 43 LINE",
"221 52 LINE",
"221 355 LINE",
"603 355 LINE",
"603 52 LINE",
"519 43 LINE",
"519 0 LINE",
"768 0 LINE",
"768 43 LINE",
"686 52 LINE",
"686 689 LINE",
"768 700 LINE",
"768 743 LINE",
"520 743 LINE",
"520 700 LINE",
"603 689 LINE",
"603 408 LINE",
"221 408 LINE",
"221 689 LINE",
"308 700 LINE",
"308 743 LINE",
"57 743 LINE",
"57 700 LINE",
"139 689 LINE",
"139 52 LINE"
);
}
);
width = 824;
},
{
anchors = (
{
name = mark0;
position = "{379, -83}";
}
);
layerId = "D0FF1146-32FF-444C-BC95-9626761FC64D";
paths = (
{
closed = 1;
nodes = (
"33 74 LINE",
"33 0 LINE",
"384 0 LINE",
"384 74 LINE",
"304 85 LINE",
"304 329 LINE",
"540 329 LINE",
"540 86 LINE",
"467 74 LINE",
"467 0 LINE",
"813 0 LINE",
"813 74 LINE",
"742 85 LINE",
"742 650 LINE",
"813 664 LINE",
"813 743 LINE",
"467 743 LINE",
"467 664 LINE",
"540 649 LINE",
"540 425 LINE",
"304 425 LINE",
"304 650 LINE",
"384 664 LINE",
"384 743 LINE",
"34 743 LINE",
"34 664 LINE",
"102 650 LINE",
"102 85 LINE"
);
}
);
width = 844;
}
);
unicode = 0048;
},
{
glyphname = Hbar;
layers = (
{
layerId = UUID0;
paths = (
{
closed = 1;
nodes = (
"24 555 LINE",
"24 509 LINE",
"139 509 LINE",
"139 52 LINE",
"54 43 LINE",
"54 0 LINE",
"308 0 LINE",
"308 43 LINE",
"220 52 LINE",
"220 309 LINE",
"604 309 LINE",
"604 54 LINE",
"521 42 LINE",
"521 0 LINE",
"768 0 LINE",
"768 42 LINE",
"686 54 LINE",
"686 509 LINE",
"800 509 LINE",
"800 555 LINE",
"686 555 LINE",
"686 689 LINE",
"768 700 LINE",
"768 744 LINE",
"521 744 LINE",
"521 700 LINE",
"604 689 LINE",
"604 555 LINE",
"220 555 LINE",
"220 689 LINE",
"307 700 LINE",
"307 744 LINE",
"57 744 LINE",
"57 700 LINE",
"139 689 LINE",
"139 555 LINE"
);
},
{
closed = 1;
nodes = (
"604 360 LINE",
"220 360 LINE",
"220 509 LINE",
"604 509 LINE"
);
}
);
width = 824;
},
{
layerId = "D0FF1146-32FF-444C-BC95-9626761FC64D";
paths = (
{
closed = 1;
nodes = (
"27 554 LINE",
"27 483 LINE",
"102 483 LINE",
"102 85 LINE",
"28 74 LINE",
"28 0 LINE",
"384 0 LINE",
"384 74 LINE",
"305 86 LINE",
"305 279 LINE",
"539 279 LINE",
"539 86 LINE",
"466 74 LINE",
"466 0 LINE",
"817 0 LINE",
"817 74 LINE",
"742 85 LINE",
"742 483 LINE",
"832 483 LINE",
"832 554 LINE",
"742 554 LINE",
"742 650 LINE",
"818 664 LINE",
"818 743 LINE",
"466 743 LINE",
"466 664 LINE",
"539 649 LINE",
"539 554 LINE",
"305 554 LINE",
"305 649 LINE",
"384 664 LINE",
"384 743 LINE",
"27 743 LINE",
"27 664 LINE",
"102 649 LINE",
"102 554 LINE"
);
},
{
closed = 1;
nodes = (
"539 375 LINE",
"305 375 LINE",
"305 483 LINE",
"539 483 LINE"
);
}
);
width = 844;
}
);
unicode = 0126;
},
{
glyphname = Hcircumflex;
layers = (
{
anchors = (
{
name = mark0;
position = "{410, -83}";
}
);
layerId = UUID0;
paths = (
{
closed = 1;
nodes = (
"246 838 LINE",
"279 817 LINE",
"412 923 LINE",
"542 817 LINE",
"578 839 LINE",
"449 983 LINE",
"374 983 LINE"
);
},
{
closed = 1;
nodes = (
"54 43 LINE",
"54 0 LINE",
"309 0 LINE",
"309 43 LINE",
"221 52 LINE",
"221 355 LINE",
"603 355 LINE",
"603 52 LINE",
"519 43 LINE",
"519 0 LINE",
"768 0 LINE",
"768 43 LINE",
"686 52 LINE",
"686 689 LINE",
"768 700 LINE",
"768 743 LINE",
"520 743 LINE",
"520 700 LINE",
"603 689 LINE",
"603 408 LINE",
"221 408 LINE",
"221 689 LINE",
"308 700 LINE",
"308 743 LINE",
"57 743 LINE",
"57 700 LINE",
"139 689 LINE",
"139 52 LINE"
);
}
);
width = 824;
},
{
anchors = (
{
name = mark0;
position = "{379, -83}";
}
);
layerId = "D0FF1146-32FF-444C-BC95-9626761FC64D";
paths = (
{
closed = 1;
nodes = (
"214 832 LINE",
"275 779 LINE",
"423 870 LINE",
"571 779 LINE",
"632 833 LINE",
"475 979 LINE",
"373 979 LINE"
);
},
{
closed = 1;
nodes = (
"33 74 LINE",
"33 0 LINE",
"384 0 LINE",
"384 74 LINE",
"304 85 LINE",
"304 329 LINE",
"540 329 LINE",
"540 86 LINE",
"467 74 LINE",
"467 0 LINE",
"813 0 LINE",
"813 74 LINE",
"742 85 LINE",
"742 650 LINE",
"813 664 LINE",
"813 743 LINE",
"467 743 LINE",
"467 664 LINE",
"540 649 LINE",
"540 425 LINE",
"304 425 LINE",
"304 650 LINE",
"384 664 LINE",
"384 743 LINE",
"34 743 LINE",
"34 664 LINE",
"102 650 LINE",
"102 85 LINE"
);
}
);
width = 844;
}
);
unicode = 0124;
},
{
glyphname = I;
layers = (
{
anchors = (
{
name = bottom;
position = "{199, 0}";
},
{
name = mark0;
position = "{200, -83}";
},
{
name = ogonek;
position = "{357, 10}";
},
{
name = top;
position = "{199, 743}";
},
{
name = topleft;
position = "{20, 743}";
}
);
layerId = UUID0;
paths = (
{
closed = 1;
nodes = (
"60 43 LINE",
"60 0 LINE",
"337 0 LINE",
"337 42 LINE",
"240 52 LINE",
"240 689 LINE",
"337 700 LINE",
"337 743 LINE",
"60 743 LINE",
"60 700 LINE",
"157 689 LINE",
"157 52 LINE"
);
}
);
width = 397;
},
{
anchors = (
{
name = bottom;
position = "{213, 0}";
},
{
name = mark0;
position = "{229, -83}";
},
{
name = ogonek;
position = "{382, 10}";
},
{
name = top;
position = "{213, 743}";
},
{
name = topleft;
position = "{20, 743}";
}
);
layerId = "D0FF1146-32FF-444C-BC95-9626761FC64D";
paths = (
{
closed = 1;
nodes = (
"36 74 LINE",
"36 0 LINE",
"393 0 LINE",
"393 73 LINE",
"314 85 LINE",
"314 649 LINE",
"393 664 LINE",
"393 743 LINE",
"35 743 LINE",
"35 664 LINE",
"111 649 LINE",
"111 86 LINE"
);
}
);
width = 425;
}
);
unicode = 0049;
},
{
glyphname = IJ;
layers = (
{
anchors = (
{
name = mark0;
position = "{541, -83}";
}
);
layerId = UUID0;
paths = (
{
closed = 1;
nodes = (
"60 43 LINE",
"60 0 LINE",
"337 0 LINE",
"337 42 LINE",
"240 52 LINE",
"240 689 LINE",
"337 700 LINE",
"337 743 LINE",
"60 743 LINE",
"60 700 LINE",
"157 689 LINE",
"157 52 LINE"
);
},
{
closed = 1;
nodes = (
"418 -173 LINE",
"504 -157 OFFCURVE",
"599 -94 OFFCURVE",
"622 21 CURVE SMOOTH",
"634 83 OFFCURVE",
"632 164 OFFCURVE",
"632 275 CURVE SMOOTH",
"632 688 LINE",
"728 700 LINE",
"728 743 LINE",
"449 743 LINE",
"449 700 LINE",
"549 688 LINE",
"549 253 LINE SMOOTH",
"549 104 OFFCURVE",
"547 48 OFFCURVE",
"529 -9 CURVE SMOOTH",
"508 -76 OFFCURVE",
"455 -121 OFFCURVE",
"396 -137 CURVE"
);
}
);
width = 772;
},
{
anchors = (
{
name = mark0;
position = "{594, -83}";
}
);
layerId = "D0FF1146-32FF-444C-BC95-9626761FC64D";
paths = (
{
closed = 1;
nodes = (
"36 74 LINE",
"36 0 LINE",
"393 0 LINE",
"393 73 LINE",
"314 85 LINE",
"314 649 LINE",
"393 664 LINE",
"393 743 LINE",
"35 743 LINE",
"35 664 LINE",
"111 649 LINE",
"111 86 LINE"
);
},
{
closed = 1;
nodes = (
"445 -201 LINE",
"606 -176 OFFCURVE",
"694 -91 OFFCURVE",
"726 12 CURVE SMOOTH",
"738 53 OFFCURVE",
"742 144 OFFCURVE",
"742 275 CURVE SMOOTH",
"742 650 LINE",
"816 664 LINE",
"816 743 LINE",
"461 743 LINE",
"461 664 LINE",
"541 649 LINE",
"541 169 LINE SMOOTH",
"541 79 OFFCURVE",
"532 29 OFFCURVE",
"520 -5 CURVE SMOOTH",
"495 -78 OFFCURVE",
"443 -119 OFFCURVE",
"401 -135 CURVE"
);
}
);
width = 830;
}
);
unicode = 0132;
},
{
glyphname = IJ_acutecomb;
layers = (
{
anchors = (
{
name = _top;
position = "{247, 743}";
},
{
name = mark0;
position = "{541, -83}";
},
{
name = top;
position = "{308, 980}";
}
);
components = (
{
name = IJ;
}
);
layerId = UUID0;
paths = (
{
closed = 1;
nodes = (
"250 823 OFFCURVE",
"365 885 OFFCURVE",
"398 929 CURVE",
"342 980 LINE",
"177 830 LINE",
"204 804 LINE"
);
},
{
closed = 1;
nodes = (
"590 823 OFFCURVE",
"705 885 OFFCURVE",
"738 929 CURVE",
"682 980 LINE",
"517 830 LINE",
"544 804 LINE"
);
}
);
width = 772;
},
{
anchors = (
{
name = _top;
position = "{232, 743}";
},
{
name = mark0;
position = "{594, -83}";
},
{
name = top;
position = "{283, 983}";
}
);
components = (
{
name = IJ;
}
);
layerId = "D0FF1146-32FF-444C-BC95-9626761FC64D";
paths = (
{
closed = 1;
nodes = (
"255 787 OFFCURVE",
"352 840 OFFCURVE",
"414 905 CURVE",
"295 983 LINE",
"151 828 LINE",
"221 778 LINE"
);
},
{
closed = 1;
nodes = (
"645 787 OFFCURVE",
"742 840 OFFCURVE",
"804 905 CURVE",
"685 983 LINE",
"541 828 LINE",
"611 778 LINE"
);
}
);
width = 830;
}
);
},
{
glyphname = Ibreve;
layers = (
{
anchors = (
{
name = mark0;
position = "{200, -83}";
}
);
layerId = UUID0;
paths = (
{
closed = 1;
nodes = (
"300 808 OFFCURVE",
"359 872 OFFCURVE",
"359 955 CURVE SMOOTH",
"359 961 OFFCURVE",
"359 967 OFFCURVE",
"358 974 CURVE",
"314 974 LINE",
"314 971 OFFCURVE",
"314 967 OFFCURVE",
"313 961 CURVE SMOOTH",
"310 925 OFFCURVE",
"284 874 OFFCURVE",
"201 874 CURVE SMOOTH",
"118 874 OFFCURVE",
"91 924 OFFCURVE",
"87 960 CURVE SMOOTH",
"86 966 OFFCURVE",
"86 971 OFFCURVE",
"86 974 CURVE",
"40 974 LINE",
"39 967 OFFCURVE",
"39 961 OFFCURVE",
"39 954 CURVE SMOOTH",
"39 872 OFFCURVE",
"97 808 OFFCURVE",
"201 808 CURVE SMOOTH"
);
},
{
closed = 1;
nodes = (
"60 43 LINE",
"60 0 LINE",
"337 0 LINE",
"337 42 LINE",
"240 52 LINE",
"240 689 LINE",
"337 700 LINE",
"337 743 LINE",
"60 743 LINE",
"60 700 LINE",
"157 689 LINE",
"157 52 LINE"
);
}
);
width = 397;
},
{
anchors = (
{
name = mark0;
position = "{229, -83}";
}
);
layerId = "D0FF1146-32FF-444C-BC95-9626761FC64D";
paths = (
{
closed = 1;
nodes = (
"343 789 OFFCURVE",
"409 871 OFFCURVE",
"409 959 CURVE SMOOTH",
"409 967 OFFCURVE",
"409 974 OFFCURVE",
"408 981 CURVE",
"315 981 LINE",
"315 979 OFFCURVE",
"315 975 OFFCURVE",
"314 971 CURVE SMOOTH",
"311 943 OFFCURVE",
"292 902 OFFCURVE",
"213 902 CURVE SMOOTH",
"133 902 OFFCURVE",
"111 944 OFFCURVE",
"107 971 CURVE SMOOTH",
"106 975 OFFCURVE",
"106 979 OFFCURVE",
"106 981 CURVE",
"15 981 LINE",
"14 974 OFFCURVE",
"14 966 OFFCURVE",
"14 958 CURVE SMOOTH",
"14 870 OFFCURVE",
"77 789 OFFCURVE",
"212 789 CURVE SMOOTH"
);
},
{
closed = 1;
nodes = (
"36 74 LINE",
"36 0 LINE",
"393 0 LINE",
"393 73 LINE",
"314 85 LINE",
"314 649 LINE",
"393 664 LINE",
"393 743 LINE",
"35 743 LINE",
"35 664 LINE",
"111 649 LINE",
"111 86 LINE"
);
}
);
width = 425;
}
);
unicode = 012C;
},
{
glyphname = Icircumflex;
layers = (
{
anchors = (
{
name = mark0;
position = "{200, -83}";
}
);
layerId = UUID0;
paths = (
{
closed = 1;
nodes = (
"34 838 LINE",
"67 817 LINE",
"200 923 LINE",
"330 817 LINE",
"366 839 LINE",
"237 983 LINE",
"162 983 LINE"
);
},
{
closed = 1;
nodes = (
"60 43 LINE",
"60 0 LINE",
"337 0 LINE",
"337 42 LINE",
"240 52 LINE",
"240 689 LINE",
"337 700 LINE",
"337 743 LINE",
"60 743 LINE",
"60 700 LINE",
"157 689 LINE",
"157 52 LINE"
);
}
);
width = 397;
},
{
anchors = (
{
name = mark0;
position = "{229, -83}";
}
);
layerId = "D0FF1146-32FF-444C-BC95-9626761FC64D";
paths = (
{
closed = 1;
nodes = (
"0 832 LINE",
"61 779 LINE",
"209 870 LINE",
"357 779 LINE",
"418 833 LINE",
"261 979 LINE",
"159 979 LINE"
);
},
{
closed = 1;
nodes = (
"36 74 LINE",
"36 0 LINE",
"393 0 LINE",
"393 73 LINE",
"314 85 LINE",
"314 649 LINE",
"393 664 LINE",
"393 743 LINE",
"35 743 LINE",
"35 664 LINE",
"111 649 LINE",
"111 86 LINE"
);
}
);
width = 425;
}
);
unicode = 00CE;
},
{
glyphname = Idieresis;
layers = (
{
anchors = (
{
name = mark0;
position = "{200, -83}";
}
);
layerId = UUID0;
paths = (
{
closed = 1;
nodes = (
"77 834 LINE",
"118 834 OFFCURVE",
"138 864 OFFCURVE",
"138 899 CURVE SMOOTH",
"138 928 OFFCURVE",
"118 958 OFFCURVE",
"85 958 CURVE",
"84 958 LINE",
"45 958 OFFCURVE",
"26 925 OFFCURVE",
"26 891 CURVE SMOOTH",
"26 860 OFFCURVE",
"45 834 OFFCURVE",
"76 834 CURVE"
);
},
{
closed = 1;
nodes = (
"355 834 OFFCURVE",
"375 864 OFFCURVE",
"375 899 CURVE SMOOTH",
"375 928 OFFCURVE",
"357 958 OFFCURVE",
"323 958 CURVE",
"322 958 LINE",
"283 958 OFFCURVE",
"264 925 OFFCURVE",
"264 891 CURVE SMOOTH",
"264 860 OFFCURVE",
"283 834 OFFCURVE",
"314 834 CURVE SMOOTH"
);
},
{
closed = 1;
nodes = (
"60 43 LINE",
"60 0 LINE",
"337 0 LINE",
"337 42 LINE",
"240 52 LINE",
"240 689 LINE",
"337 700 LINE",
"337 743 LINE",
"60 743 LINE",
"60 700 LINE",
"157 689 LINE",
"157 52 LINE"
);
}
);
width = 397;
},
{
anchors = (
{
name = mark0;
position = "{229, -83}";
}
);
layerId = "D0FF1146-32FF-444C-BC95-9626761FC64D";
paths = (
{
closed = 1;
nodes = (
"63 794 LINE",
"137 794 OFFCURVE",
"169 838 OFFCURVE",
"169 894 CURVE SMOOTH",
"169 938 OFFCURVE",
"142 977 OFFCURVE",
"80 977 CURVE",
"79 977 LINE",
"13 977 OFFCURVE",
"-17 934 OFFCURVE",
"-17 878 CURVE SMOOTH",
"-17 833 OFFCURVE",
"16 794 OFFCURVE",
"62 794 CURVE"
);
},
{
closed = 1;
nodes = (
"406 794 OFFCURVE",
"437 838 OFFCURVE",
"437 894 CURVE SMOOTH",
"437 938 OFFCURVE",
"411 977 OFFCURVE",
"348 977 CURVE",
"347 977 LINE",
"281 977 OFFCURVE",
"252 934 OFFCURVE",
"252 878 CURVE SMOOTH",
"252 839 OFFCURVE",
"284 794 OFFCURVE",
"331 794 CURVE SMOOTH"
);
},
{
closed = 1;
nodes = (
"36 74 LINE",
"36 0 LINE",
"393 0 LINE",
"393 73 LINE",
"314 85 LINE",
"314 649 LINE",
"393 664 LINE",
"393 743 LINE",
"35 743 LINE",
"35 664 LINE",
"111 649 LINE",
"111 86 LINE"
);
}
);
width = 425;
}
);
unicode = 00CF;
},
{
glyphname = Imacron;
layers = (
{
anchors = (
{
name = mark0;
position = "{200, -83}";
}
);
layerId = UUID0;
paths = (
{
closed = 1;
nodes = (
"71 920 LINE",
"71 859 LINE",
"334 859 LINE",
"334 920 LINE"
);
},
{
closed = 1;
nodes = (
"60 43 LINE",
"60 0 LINE",
"337 0 LINE",
"337 42 LINE",
"240 52 LINE",
"240 689 LINE",
"337 700 LINE",
"337 743 LINE",
"60 743 LINE",
"60 700 LINE",
"157 689 LINE",
"157 52 LINE"
);
}
);
width = 397;
},
{
anchors = (
{
name = mark0;
position = "{229, -83}";
}
);
layerId = "D0FF1146-32FF-444C-BC95-9626761FC64D";
paths = (
{
closed = 1;
nodes = (
"40 937 LINE",
"40 829 LINE",
"380 829 LINE",
"380 937 LINE"
);
},
{
closed = 1;
nodes = (
"36 74 LINE",
"36 0 LINE",
"393 0 LINE",
"393 73 LINE",
"314 85 LINE",
"314 649 LINE",
"393 664 LINE",
"393 743 LINE",
"35 743 LINE",
"35 664 LINE",
"111 649 LINE",
"111 86 LINE"
);
}
);
width = 425;
}
);
unicode = 012A;
},
{
glyphname = Iogonek;
layers = (
{
layerId = UUID0;
paths = (
{
closed = 1;
nodes = (
"60 43 LINE",
"60 0 LINE",
"188 0 LINE",
"122 -30 OFFCURVE",
"56 -101 OFFCURVE",
"56 -155 CURVE SMOOTH",
"56 -226 OFFCURVE",
"117 -249 OFFCURVE",
"178 -249 CURVE SMOOTH",
"219 -249 OFFCURVE",
"263 -236 OFFCURVE",
"291 -215 CURVE",
"291 -173 LINE",
"268 -185 OFFCURVE",
"239 -193 OFFCURVE",
"213 -193 CURVE SMOOTH",
"171 -193 OFFCURVE",
"135 -176 OFFCURVE",
"135 -129 CURVE SMOOTH",
"135 -87 OFFCURVE",
"188 -28 OFFCURVE",
"250 0 CURVE",
"337 0 LINE",
"337 42 LINE",
"240 52 LINE",
"240 689 LINE",
"337 700 LINE",
"337 743 LINE",
"60 743 LINE",
"60 700 LINE",
"157 689 LINE",
"157 52 LINE"
);
}
);
width = 397;
},
{
layerId = "D0FF1146-32FF-444C-BC95-9626761FC64D";
paths = (
{
closed = 1;
nodes = (
"36 74 LINE",
"36 0 LINE",
"206 0 LINE",
"121 -33 OFFCURVE",
"63 -89 OFFCURVE",
"63 -149 CURVE SMOOTH",
"63 -209 OFFCURVE",
"119 -251 OFFCURVE",
"208 -251 CURVE SMOOTH",
"249 -251 OFFCURVE",
"309 -240 OFFCURVE",
"337 -219 CURVE",
"337 -139 LINE",
"315 -148 OFFCURVE",
"307 -150 OFFCURVE",
"284 -150 CURVE SMOOTH",
"235 -150 OFFCURVE",
"213 -129 OFFCURVE",
"213 -100 CURVE SMOOTH",
"213 -69 OFFCURVE",
"251 -22 OFFCURVE",
"314 0 CURVE",
"393 0 LINE",
"393 73 LINE",
"314 85 LINE",
"314 649 LINE",
"393 664 LINE",
"393 743 LINE",
"35 743 LINE",
"35 664 LINE",
"111 649 LINE",
"111 86 LINE"
);
}
);
width = 425;
}
);
unicode = 012E;
},
{
glyphname = Itilde;
layers = (
{
anchors = (
{
name = mark0;
position = "{200, -83}";
}
);
layerId = UUID0;
paths = (
{
closed = 1;
nodes = (
"343 833 OFFCURVE",
"382 882 OFFCURVE",
"398 934 CURVE",
"356 957 LINE",
"347 937 OFFCURVE",
"331 893 OFFCURVE",
"284 893 CURVE SMOOTH",
"226 893 OFFCURVE",
"214 978 OFFCURVE",
"134 978 CURVE SMOOTH",
"64 978 OFFCURVE",
"14 920 OFFCURVE",
"3 877 CURVE",
"45 854 LINE",
"54 874 OFFCURVE",
"74 918 OFFCURVE",
"121 918 CURVE SMOOTH",
"182 918 OFFCURVE",
"198 833 OFFCURVE",
"278 833 CURVE SMOOTH"
);
},
{
closed = 1;
nodes = (
"60 43 LINE",
"60 0 LINE",
"337 0 LINE",
"337 42 LINE",
"240 52 LINE",
"240 689 LINE",
"337 700 LINE",
"337 743 LINE",
"60 743 LINE",
"60 700 LINE",
"157 689 LINE",
"157 52 LINE"
);
}
);
width = 397;
},
{
anchors = (
{
name = mark0;
position = "{229, -83}";
}
);
layerId = "D0FF1146-32FF-444C-BC95-9626761FC64D";
paths = (
{
closed = 1;
nodes = (
"375 795 OFFCURVE",
"419 848 OFFCURVE",
"449 901 CURVE",
"397 954 LINE",
"378 933 OFFCURVE",
"362 907 OFFCURVE",
"317 907 CURVE SMOOTH",
"257 907 OFFCURVE",
"220 980 OFFCURVE",
"131 980 CURVE SMOOTH",
"43 980 OFFCURVE",
"-6 917 OFFCURVE",
"-29 875 CURVE",
"23 822 LINE",
"39 839 OFFCURVE",
"63 869 OFFCURVE",
"102 869 CURVE SMOOTH",
"166 869 OFFCURVE",
"211 795 OFFCURVE",
"296 795 CURVE SMOOTH"
);
},
{
closed = 1;
nodes = (
"36 74 LINE",
"36 0 LINE",
"393 0 LINE",
"393 73 LINE",
"314 85 LINE",
"314 649 LINE",
"393 664 LINE",
"393 743 LINE",
"35 743 LINE",
"35 664 LINE",
"111 649 LINE",
"111 86 LINE"
);
}
);
width = 425;
}
);
unicode = 0128;
},
{
glyphname = J;
layers = (
{
anchors = (
{
name = mark0;
position = "{144, -83}";
}
);
layerId = UUID0;
paths = (
{
closed = 1;
nodes = (
"21 -173 LINE",
"107 -157 OFFCURVE",
"202 -94 OFFCURVE",
"225 21 CURVE SMOOTH",
"237 83 OFFCURVE",
"235 164 OFFCURVE",
"235 275 CURVE SMOOTH",
"235 688 LINE",
"331 700 LINE",
"331 743 LINE",
"52 743 LINE",
"52 700 LINE",
"152 688 LINE",
"152 253 LINE SMOOTH",
"152 104 OFFCURVE",
"150 48 OFFCURVE",
"132 -9 CURVE SMOOTH",
"111 -76 OFFCURVE",
"58 -121 OFFCURVE",
"-1 -137 CURVE"
);
}
);
width = 375;
},
{
anchors = (
{
name = mark0;
position = "{169, -83}";
}
);
layerId = "D0FF1146-32FF-444C-BC95-9626761FC64D";
paths = (
{
closed = 1;
nodes = (
"20 -201 LINE",
"181 -176 OFFCURVE",
"269 -91 OFFCURVE",
"301 12 CURVE SMOOTH",
"313 53 OFFCURVE",
"317 144 OFFCURVE",
"317 275 CURVE SMOOTH",
"317 650 LINE",
"391 664 LINE",
"391 743 LINE",
"36 743 LINE",
"36 664 LINE",
"116 649 LINE",
"116 169 LINE SMOOTH",
"116 79 OFFCURVE",
"107 29 OFFCURVE",
"95 -5 CURVE SMOOTH",
"70 -78 OFFCURVE",
"18 -119 OFFCURVE",
"-24 -135 CURVE"
);
}
);
width = 405;
}
);
unicode = 004A;
},
{
glyphname = Jcircumflex;
layers = (
{
anchors = (
{
name = mark0;
position = "{144, -83}";
}
);
layerId = UUID0;
paths = (
{
closed = 1;
nodes = (
"24 838 LINE",
"57 817 LINE",
"190 923 LINE",
"320 817 LINE",
"356 839 LINE",
"227 983 LINE",
"152 983 LINE"
);
},
{
closed = 1;
nodes = (
"21 -173 LINE",
"107 -157 OFFCURVE",
"202 -94 OFFCURVE",
"225 21 CURVE SMOOTH",
"237 83 OFFCURVE",
"235 164 OFFCURVE",
"235 275 CURVE SMOOTH",
"235 688 LINE",
"331 700 LINE",
"331 743 LINE",
"52 743 LINE",
"52 700 LINE",
"152 688 LINE",
"152 253 LINE SMOOTH",
"152 104 OFFCURVE",
"150 48 OFFCURVE",
"132 -9 CURVE SMOOTH",
"111 -76 OFFCURVE",
"58 -121 OFFCURVE",
"-1 -137 CURVE"
);
}
);
width = 375;
},
{
anchors = (
{
name = mark0;
position = "{169, -83}";
}
);
layerId = "D0FF1146-32FF-444C-BC95-9626761FC64D";
paths = (
{
closed = 1;
nodes = (
"6 832 LINE",
"67 779 LINE",
"215 870 LINE",
"363 779 LINE",
"424 833 LINE",
"267 979 LINE",
"165 979 LINE"
);
},
{
closed = 1;
nodes = (
"20 -201 LINE",
"181 -176 OFFCURVE",
"269 -91 OFFCURVE",
"301 12 CURVE SMOOTH",
"313 53 OFFCURVE",
"317 144 OFFCURVE",
"317 275 CURVE SMOOTH",
"317 650 LINE",
"391 664 LINE",
"391 743 LINE",
"36 743 LINE",
"36 664 LINE",
"116 649 LINE",
"116 169 LINE SMOOTH",
"116 79 OFFCURVE",
"107 29 OFFCURVE",
"95 -5 CURVE SMOOTH",
"70 -78 OFFCURVE",
"18 -119 OFFCURVE",
"-24 -135 CURVE"
);
}
);
width = 405;
}
);
unicode = 0134;
},
{
glyphname = K;
layers = (
{
anchors = (
{
name = mark0;
position = "{385, -83}";
}
);
layerId = UUID0;
paths = (
{
closed = 1;
nodes = (
"713 0 LINE",
"713 42 LINE",
"666 53 LINE",
"625 58 OFFCURVE",
"479 345 OFFCURVE",
"378 432 CURVE",
"608 689 LINE",
"681 700 LINE",
"681 743 LINE",
"449 743 LINE",
"449 700 LINE",
"534 689 LINE",
"221 325 LINE",
"221 689 LINE",
"307 700 LINE",
"307 743 LINE",
"55 743 LINE",
"55 700 LINE",
"139 689 LINE",
"139 52 LINE",
"53 43 LINE",
"53 0 LINE",
"315 0 LINE",
"315 42 LINE",
"221 52 LINE",
"221 254 LINE",
"330 377 LINE",
"423 282 OFFCURVE",
"541 0 OFFCURVE",
"593 0 CURVE"
);
}
);
width = 714;
},
{
anchors = (
{
name = mark0;
position = "{392, -83}";
}
);
layerId = "D0FF1146-32FF-444C-BC95-9626761FC64D";
paths = (
{
closed = 1;
nodes = (
"781 0 LINE",
"781 74 LINE",
"733 85 LINE",
"696 113 OFFCURVE",
"583 381 OFFCURVE",
"492 465 CURVE",
"654 650 LINE",
"747 665 LINE",
"747 743 LINE",
"443 743 LINE",
"443 664 LINE",
"523 649 LINE",
"304 356 LINE",
"304 649 LINE",
"373 664 LINE",
"373 743 LINE",
"28 743 LINE",
"28 664 LINE",
"102 649 LINE",
"102 86 LINE",
"28 74 LINE",
"28 0 LINE",
"383 0 LINE",
"383 74 LINE",
"304 85 LINE",
"304 243 LINE",
"374 326 LINE",
"439 229 OFFCURVE",
"516 0 OFFCURVE",
"550 0 CURVE"
);
}
);
width = 774;
}
);
unicode = 004B;
},
{
glyphname = Kcommaaccent;
layers = (
{
anchors = (
{
name = mark0;
position = "{385, -83}";
}
);
layerId = UUID0;
paths = (
{
closed = 1;
nodes = (
"713 0 LINE",
"713 42 LINE",
"666 53 LINE",
"625 58 OFFCURVE",
"479 345 OFFCURVE",
"378 432 CURVE",
"608 689 LINE",
"681 700 LINE",
"681 743 LINE",
"449 743 LINE",
"449 700 LINE",
"534 689 LINE",
"221 325 LINE",
"221 689 LINE",
"307 700 LINE",
"307 743 LINE",
"55 743 LINE",
"55 700 LINE",
"139 689 LINE",
"139 52 LINE",
"53 43 LINE",
"53 0 LINE",
"315 0 LINE",
"315 42 LINE",
"221 52 LINE",
"221 254 LINE",
"330 377 LINE",
"423 282 OFFCURVE",
"541 0 OFFCURVE",
"593 0 CURVE"
);
},
{
closed = 1;
nodes = (
"453 -86 OFFCURVE",
"429 -58 OFFCURVE",
"392 -58 CURVE SMOOTH",
"388 -58 LINE SMOOTH",
"376 -58 OFFCURVE",
"344 -65 OFFCURVE",
"344 -102 CURVE SMOOTH",
"344 -123 OFFCURVE",
"353 -132 OFFCURVE",
"363 -139 CURVE SMOOTH",
"373 -146 OFFCURVE",
"384 -155 OFFCURVE",
"384 -175 CURVE SMOOTH",
"384 -206 OFFCURVE",
"370 -237 OFFCURVE",
"350 -247 CURVE",
"350 -253 LINE",
"377 -272 LINE",
"378 -272 LINE",
"389 -268 OFFCURVE",
"453 -219 OFFCURVE",
"453 -138 CURVE SMOOTH"
);
}
);
width = 714;
},
{
anchors = (
{
name = mark0;
position = "{392, -83}";
}
);
layerId = "D0FF1146-32FF-444C-BC95-9626761FC64D";
paths = (
{
closed = 1;
nodes = (
"781 0 LINE",
"781 74 LINE",
"733 85 LINE",
"696 113 OFFCURVE",
"583 381 OFFCURVE",
"492 465 CURVE",
"654 650 LINE",
"747 665 LINE",
"747 743 LINE",
"443 743 LINE",
"443 664 LINE",
"523 649 LINE",
"304 356 LINE",
"304 649 LINE",
"373 664 LINE",
"373 743 LINE",
"28 743 LINE",
"28 664 LINE",
"102 649 LINE",
"102 86 LINE",
"28 74 LINE",
"28 0 LINE",
"383 0 LINE",
"383 74 LINE",
"304 85 LINE",
"304 243 LINE",
"374 326 LINE",
"439 229 OFFCURVE",
"516 0 OFFCURVE",
"550 0 CURVE"
);
},
{
closed = 1;
nodes = (
"479 -70 OFFCURVE",
"444 -42 OFFCURVE",
"395 -42 CURVE SMOOTH",
"392 -42 LINE SMOOTH",
"356 -42 OFFCURVE",
"305 -57 OFFCURVE",
"305 -107 CURVE SMOOTH",
"305 -134 OFFCURVE",
"318 -150 OFFCURVE",
"329 -158 CURVE SMOOTH",
"337 -163 OFFCURVE",
"347 -172 OFFCURVE",
"347 -193 CURVE SMOOTH",
"347 -215 OFFCURVE",
"339 -247 OFFCURVE",
"326 -252 CURVE",
"329 -260 LINE",
"389 -273 LINE",
"391 -273 LINE",
"419 -263 OFFCURVE",
"478 -195 OFFCURVE",
"479 -123 CURVE SMOOTH"
);
}
);
width = 774;
}
);
unicode = 0136;
},
{
glyphname = L;
layers = (
{
anchors = (
{
name = bottom;
position = "{316, 0}";
},
{
name = center;
position = "{316, 372}";
},
{
name = mark0;
position = "{339, -83}";
},
{
name = top;
position = "{181, 743}";
},
{
name = topright;
position = "{611, 743}";
}
);
layerId = UUID0;
paths = (
{
closed = 1;
nodes = (
"53 43 LINE",
"53 0 LINE",
"573 0 LINE",
"610 208 LINE",
"562 216 LINE",
"506 60 LINE",
"221 52 LINE",
"221 689 LINE",
"321 700 LINE",
"321 743 LINE",
"55 743 LINE",
"55 700 LINE",
"139 689 LINE",
"139 52 LINE"
);
}
);
width = 631;
},
{
anchors = (
{
name = bottom;
position = "{322, 0}";
},
{
name = center;
position = "{322, 372}";
},
{
name = mark0;
position = "{346, -83}";
},
{
name = top;
position = "{192, 743}";
},
{
name = topright;
position = "{624, 743}";
}
);
layerId = "D0FF1146-32FF-444C-BC95-9626761FC64D";
paths = (
{
closed = 1;
nodes = (
"29 74 LINE",
"29 0 LINE",
"611 0 LINE",
"637 297 LINE",
"527 311 LINE",
"458 98 LINE",
"305 87 LINE",
"305 649 LINE",
"398 664 LINE",
"398 743 LINE",
"30 743 LINE",
"30 664 LINE",
"102 649 LINE",
"102 85 LINE"
);
}
);
width = 644;
}
);
unicode = 004C;
},
{
glyphname = Lcaron;
layers = (
{
anchors = (
{
name = mark0;
position = "{339, -83}";
}
);
layerId = UUID0;
paths = (
{
closed = 1;
nodes = (
"457 524 LINE",
"492 510 LINE",
"523 541 OFFCURVE",
"549 624 OFFCURVE",
"549 702 CURVE SMOOTH",
"549 749 OFFCURVE",
"538 800 OFFCURVE",
"520 819 CURVE",
"456 805 LINE",
"451 788 LINE",
"463 771 OFFCURVE",
"476 715 OFFCURVE",
"476 660 CURVE SMOOTH",
"476 623 OFFCURVE",
"469 575 OFFCURVE",
"456 535 CURVE"
);
},
{
closed = 1;
nodes = (
"53 43 LINE",
"53 0 LINE",
"573 0 LINE",
"610 208 LINE",
"562 216 LINE",
"506 60 LINE",
"221 52 LINE",
"221 689 LINE",
"321 700 LINE",
"321 743 LINE",
"55 743 LINE",
"55 700 LINE",
"139 689 LINE",
"139 52 LINE"
);
}
);
width = 631;
},
{
anchors = (
{
name = mark0;
position = "{346, -83}";
}
);
layerId = "D0FF1146-32FF-444C-BC95-9626761FC64D";
paths = (
{
closed = 1;
nodes = (
"457 484 LINE",
"536 465 LINE",
"551 481 OFFCURVE",
"597 571 OFFCURVE",
"597 696 CURVE SMOOTH",
"597 769 OFFCURVE",
"582 814 OFFCURVE",
"569 830 CURVE",
"442 803 LINE",
"438 782 LINE",
"445 772 OFFCURVE",
"465 732 OFFCURVE",
"465 651 CURVE SMOOTH",
"465 546 OFFCURVE",
"458 518 OFFCURVE",
"453 497 CURVE"
);
},
{
closed = 1;
nodes = (
"29 74 LINE",
"29 0 LINE",
"611 0 LINE",
"637 297 LINE",
"527 311 LINE",
"458 98 LINE",
"305 87 LINE",
"305 649 LINE",
"398 664 LINE",
"398 743 LINE",
"30 743 LINE",
"30 664 LINE",
"102 649 LINE",
"102 85 LINE"
);
}
);
width = 644;
}
);
unicode = 013D;
},
{
glyphname = Lcommaaccent;
layers = (
{
anchors = (
{
name = mark0;
position = "{339, -83}";
}
);
layerId = UUID0;
paths = (
{
closed = 1;
nodes = (
"53 43 LINE",
"53 0 LINE",
"573 0 LINE",
"610 208 LINE",
"562 216 LINE",
"506 60 LINE",
"221 52 LINE",
"221 689 LINE",
"321 700 LINE",
"321 743 LINE",
"55 743 LINE",
"55 700 LINE",
"139 689 LINE",
"139 52 LINE"
);
},
{
closed = 1;
nodes = (
"404 -86 OFFCURVE",
"380 -58 OFFCURVE",
"343 -58 CURVE SMOOTH",
"339 -58 LINE SMOOTH",
"327 -58 OFFCURVE",
"295 -65 OFFCURVE",
"295 -102 CURVE SMOOTH",
"295 -123 OFFCURVE",
"304 -132 OFFCURVE",
"314 -139 CURVE SMOOTH",
"324 -146 OFFCURVE",
"335 -155 OFFCURVE",
"335 -175 CURVE SMOOTH",
"335 -206 OFFCURVE",
"321 -237 OFFCURVE",
"301 -247 CURVE",
"301 -253 LINE",
"328 -272 LINE",
"329 -272 LINE",
"340 -268 OFFCURVE",
"404 -219 OFFCURVE",
"404 -138 CURVE SMOOTH"
);
}
);
width = 631;
},
{
anchors = (
{
name = mark0;
position = "{346, -83}";
}
);
layerId = "D0FF1146-32FF-444C-BC95-9626761FC64D";
paths = (
{
closed = 1;
nodes = (
"29 74 LINE",
"29 0 LINE",
"611 0 LINE",
"637 297 LINE",
"527 311 LINE",
"458 98 LINE",
"305 87 LINE",
"305 649 LINE",
"398 664 LINE",
"398 743 LINE",
"30 743 LINE",
"30 664 LINE",
"102 649 LINE",
"102 85 LINE"
);
},
{
closed = 1;
nodes = (
"432 -70 OFFCURVE",
"397 -42 OFFCURVE",
"348 -42 CURVE SMOOTH",
"345 -42 LINE SMOOTH",
"309 -42 OFFCURVE",
"258 -57 OFFCURVE",
"258 -107 CURVE SMOOTH",
"258 -134 OFFCURVE",
"271 -150 OFFCURVE",
"282 -158 CURVE SMOOTH",
"290 -163 OFFCURVE",
"300 -172 OFFCURVE",
"300 -193 CURVE SMOOTH",
"300 -215 OFFCURVE",
"292 -247 OFFCURVE",
"279 -252 CURVE",
"282 -260 LINE",
"342 -273 LINE",
"344 -273 LINE",
"372 -263 OFFCURVE",
"431 -195 OFFCURVE",
"432 -123 CURVE SMOOTH"
);
}
);
width = 640;
}
);
unicode = 013B;
},
{
glyphname = Ldot;
layers = (
{
anchors = (
{
name = mark0;
position = "{339, -83}";
}
);
layerId = UUID0;
paths = (
{
closed = 1;
nodes = (
"53 43 LINE",
"53 0 LINE",
"573 0 LINE",
"610 208 LINE",
"562 216 LINE",
"506 60 LINE",
"221 52 LINE",
"221 689 LINE",
"321 700 LINE",
"321 743 LINE",
"55 743 LINE",
"55 700 LINE",
"139 689 LINE",
"139 52 LINE"
);
},
{
closed = 1;
nodes = (
"504 346 OFFCURVE",
"535 373 OFFCURVE",
"535 412 CURVE SMOOTH",
"535 441 OFFCURVE",
"519 468 OFFCURVE",
"481 468 CURVE SMOOTH",
"448 468 OFFCURVE",
"416 440 OFFCURVE",
"416 402 CURVE SMOOTH",
"416 368 OFFCURVE",
"441 346 OFFCURVE",
"471 346 CURVE SMOOTH"
);
}
);
width = 631;
},
{
anchors = (
{
name = mark0;
position = "{346, -83}";
}
);
layerId = "D0FF1146-32FF-444C-BC95-9626761FC64D";
paths = (
{
closed = 1;
nodes = (
"29 74 LINE",
"29 0 LINE",
"611 0 LINE",
"637 297 LINE",
"527 311 LINE",
"458 98 LINE",
"305 87 LINE",
"305 649 LINE",
"398 664 LINE",
"398 743 LINE",
"30 743 LINE",
"30 664 LINE",
"102 649 LINE",
"102 85 LINE"
);
},
{
closed = 1;
nodes = (
"609 357 OFFCURVE",
"656 392 OFFCURVE",
"656 456 CURVE SMOOTH",
"656 504 OFFCURVE",
"618 550 OFFCURVE",
"556 550 CURVE SMOOTH",
"493 550 OFFCURVE",
"443 510 OFFCURVE",
"443 450 CURVE SMOOTH",
"443 396 OFFCURVE",
"490 357 OFFCURVE",
"539 357 CURVE SMOOTH"
);
}
);
width = 685;
}
);
unicode = 013F;
},
{
glyphname = Lslash;
layers = (
{
layerId = UUID0;
paths = (
{
closed = 1;
nodes = (
"25 311 LINE",
"25 260 LINE",
"139 309 LINE",
"139 52 LINE",
"53 43 LINE",
"53 0 LINE",
"573 0 LINE",
"610 208 LINE",
"562 216 LINE",
"506 60 LINE",
"221 52 LINE",
"221 343 LINE",
"430 435 LINE",
"430 489 LINE",
"221 396 LINE",
"221 689 LINE",
"321 700 LINE",
"321 743 LINE",
"55 743 LINE",
"55 700 LINE",
"139 689 LINE",
"139 361 LINE"
);
}
);
width = 633;
},
{
layerId = "D0FF1146-32FF-444C-BC95-9626761FC64D";
paths = (
{
closed = 1;
nodes = (
"21 330 LINE",
"21 250 LINE",
"102 281 LINE",
"102 85 LINE",
"29 74 LINE",
"29 0 LINE",
"611 0 LINE",
"637 297 LINE",
"527 311 LINE",
"458 98 LINE",
"305 87 LINE",
"305 357 LINE",
"461 418 LINE",
"461 502 LINE",
"305 439 LINE",
"305 649 LINE",
"398 664 LINE",
"398 743 LINE",
"30 743 LINE",
"30 664 LINE",
"102 649 LINE",
"102 361 LINE"
);
}
);
width = 640;
}
);
unicode = 0141;
},
{
glyphname = M;
layers = (
{
anchors = (
{
name = bottom;
position = "{494, 0}";
},
{
name = mark0;
position = "{486, -83}";
},
{
name = top;
position = "{494, 743}";
}
);
layerId = UUID0;
paths = (
{
closed = 1;
nodes = (
"2 43 LINE",
"2 0 LINE",
"254 0 LINE",
"254 43 LINE",
"156 52 LINE",
"201 508 LINE",
"222 708 LINE",
"285 514 LINE",
"472 36 LINE",
"507 36 LINE",
"672 570 LINE",
"713 708 LINE",
"739 508 LINE",
"811 52 LINE",
"718 43 LINE",
"718 0 LINE",
"985 0 LINE",
"985 43 LINE",
"896 53 LINE",
"789 689 LINE",
"903 700 LINE",
"903 743 LINE",
"671 743 LINE",
"526 281 LINE",
"496 147 LINE",
"458 281 LINE",
"289 743 LINE",
"55 743 LINE",
"55 700 LINE",
"168 689 LINE",
"89 52 LINE"
);
}
);
width = 987;
},
{
anchors = (
{
name = bottom;
position = "{528, 0}";
},
{
name = mark0;
position = "{447, -83}";
},
{
name = top;
position = "{528, 743}";
}
);
layerId = "D0FF1146-32FF-444C-BC95-9626761FC64D";
paths = (
{
closed = 1;
nodes = (
"-1 74 LINE",
"-1 0 LINE",
"301 0 LINE",
"301 74 LINE",
"198 86 LINE",
"225 508 LINE",
"235 677 LINE",
"271 509 LINE",
"412 26 LINE",
"578 26 LINE",
"687 527 LINE",
"715 676 LINE",
"734 508 LINE",
"777 86 LINE",
"695 74 LINE",
"695 0 LINE",
"1065 0 LINE",
"1065 74 LINE",
"986 86 LINE",
"901 649 LINE",
"1008 664 LINE",
"1008 743 LINE",
"635 743 LINE",
"553 342 LINE",
"538 240 LINE",
"521 342 LINE",
"417 743 LINE",
"51 743 LINE",
"51 664 LINE",
"146 649 LINE",
"81 85 LINE"
);
}
);
width = 1056;
}
);
unicode = 004D;
},
{
glyphname = N;
layers = (
{
anchors = (
{
name = bottom;
position = "{399, 0}";
},
{
name = mark0;
position = "{408, -83}";
},
{
name = top;
position = "{409, 743}";
}
);
layerId = UUID0;
paths = (
{
closed = 1;
nodes = (
"56 43 LINE",
"56 0 LINE",
"285 0 LINE",
"285 43 LINE",
"194 52 LINE",
"194 648 LINE",
"276 515 LINE",
"634 0 LINE",
"686 0 LINE",
"686 689 LINE",
"768 700 LINE",
"768 743 LINE",
"540 743 LINE",
"540 700 LINE",
"628 689 LINE",
"628 130 LINE",
"571 230 LINE",
"217 743 LINE",
"56 743 LINE",
"56 700 LINE",
"136 689 LINE",
"136 53 LINE"
);
}
);
width = 797;
},
{
anchors = (
{
name = bottom;
position = "{404, 0}";
},
{
name = mark0;
position = "{438, -83}";
},
{
name = top;
position = "{424, 743}";
}
);
layerId = "D0FF1146-32FF-444C-BC95-9626761FC64D";
paths = (
{
closed = 1;
nodes = (
"27 74 LINE",
"27 0 LINE",
"323 0 LINE",
"323 74 LINE",
"212 86 LINE",
"212 568 LINE",
"272 436 LINE",
"542 0 LINE",
"723 0 LINE",
"723 650 LINE",
"796 664 LINE",
"796 743 LINE",
"531 743 LINE",
"531 664 LINE",
"615 650 LINE",
"615 221 LINE",
"559 348 LINE",
"310 743 LINE",
"27 743 LINE",
"27 664 LINE",
"105 650 LINE",
"105 85 LINE"
);
}
);
width = 808;
}
);
unicode = 004E;
},
{
glyphname = Ncaron;
layers = (
{
anchors = (
{
name = mark0;
position = "{408, -83}";
}
);
layerId = UUID0;
paths = (
{
closed = 1;
nodes = (
"262 960 LINE",
"383 826 LINE",
"459 826 LINE",
"579 961 LINE",
"546 982 LINE",
"421 882 LINE",
"298 982 LINE"
);
},
{
closed = 1;
nodes = (
"56 43 LINE",
"56 0 LINE",
"285 0 LINE",
"285 43 LINE",
"194 52 LINE",
"194 648 LINE",
"276 515 LINE",
"634 0 LINE",
"686 0 LINE",
"686 689 LINE",
"768 700 LINE",
"768 743 LINE",
"540 743 LINE",
"540 700 LINE",
"628 689 LINE",
"628 130 LINE",
"571 230 LINE",
"217 743 LINE",
"56 743 LINE",
"56 700 LINE",
"136 689 LINE",
"136 53 LINE"
);
}
);
width = 798;
},
{
anchors = (
{
name = mark0;
position = "{438, -83}";
}
);
layerId = "D0FF1146-32FF-444C-BC95-9626761FC64D";
paths = (
{
closed = 1;
nodes = (
"216 931 LINE",
"365 789 LINE",
"467 789 LINE",
"625 930 LINE",
"564 983 LINE",
"416 898 LINE",
"278 983 LINE"
);
},
{
closed = 1;
nodes = (
"27 74 LINE",
"27 0 LINE",
"323 0 LINE",
"323 74 LINE",
"212 86 LINE",
"212 568 LINE",
"272 436 LINE",
"542 0 LINE",
"723 0 LINE",
"723 650 LINE",
"796 664 LINE",
"796 743 LINE",
"531 743 LINE",
"531 664 LINE",
"615 650 LINE",
"615 221 LINE",
"559 348 LINE",
"310 743 LINE",
"27 743 LINE",
"27 664 LINE",
"105 650 LINE",
"105 85 LINE"
);
}
);
width = 811;
}
);
unicode = 0147;
},
{
glyphname = Ncommaaccent;
layers = (
{
anchors = (
{
name = mark0;
position = "{408, -83}";
}
);
layerId = UUID0;
paths = (
{
closed = 1;
nodes = (
"56 43 LINE",
"56 0 LINE",
"285 0 LINE",
"285 43 LINE",
"194 52 LINE",
"194 648 LINE",
"276 515 LINE",
"634 0 LINE",
"686 0 LINE",
"686 689 LINE",
"768 700 LINE",
"768 743 LINE",
"540 743 LINE",
"540 700 LINE",
"628 689 LINE",
"628 130 LINE",
"571 230 LINE",
"217 743 LINE",
"56 743 LINE",
"56 700 LINE",
"136 689 LINE",
"136 53 LINE"
);
},
{
closed = 1;
nodes = (
"481 -86 OFFCURVE",
"457 -58 OFFCURVE",
"420 -58 CURVE SMOOTH",
"416 -58 LINE SMOOTH",
"404 -58 OFFCURVE",
"372 -65 OFFCURVE",
"372 -102 CURVE SMOOTH",
"372 -123 OFFCURVE",
"381 -132 OFFCURVE",
"391 -139 CURVE SMOOTH",
"401 -146 OFFCURVE",
"412 -155 OFFCURVE",
"412 -175 CURVE SMOOTH",
"412 -206 OFFCURVE",
"398 -237 OFFCURVE",
"378 -247 CURVE",
"378 -253 LINE",
"405 -272 LINE",
"406 -272 LINE",
"417 -268 OFFCURVE",
"481 -219 OFFCURVE",
"481 -138 CURVE SMOOTH"
);
}
);
width = 798;
},
{
anchors = (
{
name = mark0;
position = "{438, -83}";
}
);
layerId = "D0FF1146-32FF-444C-BC95-9626761FC64D";
paths = (
{
closed = 1;
nodes = (
"27 74 LINE",
"27 0 LINE",
"323 0 LINE",
"323 74 LINE",
"212 86 LINE",
"212 568 LINE",
"272 436 LINE",
"542 0 LINE",
"723 0 LINE",
"723 650 LINE",
"796 664 LINE",
"796 743 LINE",
"531 743 LINE",
"531 664 LINE",
"615 650 LINE",
"615 221 LINE",
"559 348 LINE",
"310 743 LINE",
"27 743 LINE",
"27 664 LINE",
"105 650 LINE",
"105 85 LINE"
);
},
{
closed = 1;
nodes = (
"511 -70 OFFCURVE",
"476 -42 OFFCURVE",
"427 -42 CURVE SMOOTH",
"424 -42 LINE SMOOTH",
"388 -42 OFFCURVE",
"337 -57 OFFCURVE",
"337 -107 CURVE SMOOTH",
"337 -134 OFFCURVE",
"350 -150 OFFCURVE",
"361 -158 CURVE SMOOTH",
"369 -163 OFFCURVE",
"379 -172 OFFCURVE",
"379 -193 CURVE SMOOTH",
"379 -215 OFFCURVE",
"371 -247 OFFCURVE",
"358 -252 CURVE",
"361 -260 LINE",
"421 -273 LINE",
"423 -273 LINE",
"451 -263 OFFCURVE",
"510 -195 OFFCURVE",
"511 -123 CURVE SMOOTH"
);
}
);
width = 811;
}
);
unicode = 0145;
},
{
glyphname = Eng;
layers = (
{
layerId = UUID0;
paths = (
{
closed = 1;
nodes = (
"57 42 LINE",
"57 0 LINE",
"286 0 LINE",
"286 42 LINE",
"195 52 LINE",
"195 655 LINE",
"272 515 LINE",
"601 13 LINE",
"595 -6 OFFCURVE",
"585 -25 OFFCURVE",
"573 -42 CURVE SMOOTH",
"540 -90 OFFCURVE",
"488 -121 OFFCURVE",
"424 -135 CURVE",
"446 -170 LINE",
"512 -163 OFFCURVE",
"569 -141 OFFCURVE",
"625 -79 CURVE SMOOTH",
"660 -39 OFFCURVE",
"687 14 OFFCURVE",
"687 169 CURVE SMOOTH",
"687 689 LINE",
"768 701 LINE",
"768 743 LINE",
"544 743 LINE",
"544 701 LINE",
"629 689 LINE",
"629 95 LINE",
"553 230 LINE",
"221 743 LINE",
"57 743 LINE",
"57 701 LINE",
"137 689 LINE",
"137 52 LINE"
);
}
);
width = 784;
},
{
layerId = "D0FF1146-32FF-444C-BC95-9626761FC64D";
paths = (
{
closed = 1;
nodes = (
"22 73 LINE",
"22 0 LINE",
"316 0 LINE",
"316 73 LINE",
"219 85 LINE",
"219 551 LINE",
"263 455 LINE",
"547 -5 LINE",
"541 -20 OFFCURVE",
"534 -34 OFFCURVE",
"527 -44 CURVE SMOOTH",
"498 -92 OFFCURVE",
"457 -129 OFFCURVE",
"396 -148 CURVE",
"433 -207 LINE",
"492 -198 OFFCURVE",
"561 -168 OFFCURVE",
"617 -106 CURVE",
"654 -61 OFFCURVE",
"724 -1 OFFCURVE",
"724 210 CURVE SMOOTH",
"724 650 LINE",
"808 665 LINE",
"808 743 LINE",
"527 743 LINE",
"527 665 LINE",
"617 650 LINE",
"617 217 LINE",
"554 347 LINE",
"306 743 LINE",
"22 743 LINE",
"22 677 LINE",
"111 659 LINE",
"111 85 LINE"
);
}
);
width = 803;
}
);
unicode = 014A;
},
{
glyphname = Ntilde;
layers = (
{
anchors = (
{
name = mark0;
position = "{408, -83}";
}
);
layerId = UUID0;
paths = (
{
closed = 1;
nodes = (
"543 833 OFFCURVE",
"582 882 OFFCURVE",
"598 934 CURVE",
"556 957 LINE",
"547 937 OFFCURVE",
"531 893 OFFCURVE",
"484 893 CURVE SMOOTH",
"426 893 OFFCURVE",
"414 978 OFFCURVE",
"334 978 CURVE SMOOTH",
"264 978 OFFCURVE",
"214 920 OFFCURVE",
"203 877 CURVE",
"245 854 LINE",
"254 874 OFFCURVE",
"274 918 OFFCURVE",
"321 918 CURVE SMOOTH",
"382 918 OFFCURVE",
"398 833 OFFCURVE",
"478 833 CURVE SMOOTH"
);
},
{
closed = 1;
nodes = (
"56 43 LINE",
"56 0 LINE",
"285 0 LINE",
"285 43 LINE",
"194 52 LINE",
"194 648 LINE",
"276 515 LINE",
"634 0 LINE",
"686 0 LINE",
"686 689 LINE",
"768 700 LINE",
"768 743 LINE",
"540 743 LINE",
"540 700 LINE",
"628 689 LINE",
"628 130 LINE",
"571 230 LINE",
"217 743 LINE",
"56 743 LINE",
"56 700 LINE",
"136 689 LINE",
"136 53 LINE"
);
}
);
width = 798;
},
{
anchors = (
{
name = mark0;
position = "{438, -83}";
}
);
layerId = "D0FF1146-32FF-444C-BC95-9626761FC64D";
paths = (
{
closed = 1;
nodes = (
"581 795 OFFCURVE",
"625 848 OFFCURVE",
"655 901 CURVE",
"603 954 LINE",
"584 933 OFFCURVE",
"568 907 OFFCURVE",
"523 907 CURVE SMOOTH",
"463 907 OFFCURVE",
"426 980 OFFCURVE",
"337 980 CURVE SMOOTH",
"249 980 OFFCURVE",
"200 917 OFFCURVE",
"177 875 CURVE",
"229 822 LINE",
"245 839 OFFCURVE",
"269 869 OFFCURVE",
"308 869 CURVE SMOOTH",
"372 869 OFFCURVE",
"417 795 OFFCURVE",
"502 795 CURVE SMOOTH"
);
},
{
closed = 1;
nodes = (
"27 74 LINE",
"27 0 LINE",
"323 0 LINE",
"323 74 LINE",
"212 86 LINE",
"212 568 LINE",
"272 436 LINE",
"542 0 LINE",
"723 0 LINE",
"723 650 LINE",
"796 664 LINE",
"796 743 LINE",
"531 743 LINE",
"531 664 LINE",
"615 650 LINE",
"615 221 LINE",
"559 348 LINE",
"310 743 LINE",
"27 743 LINE",
"27 664 LINE",
"105 650 LINE",
"105 85 LINE"
);
}
);
width = 811;
}
);
unicode = 00D1;
},
{
glyphname = O;
layers = (
{
anchors = (
{
name = bottom;
position = "{360, 0}";
},
{
name = center;
position = "{360, 372}";
},
{
name = mark0;
position = "{355, -83}";
},
{
name = ogonek;
position = "{647, 10}";
},
{
name = top;
position = "{360, 743}";
},
{
name = topleft;
position = "{20, 743}";
},
{
name = topright;
position = "{536, 743}";
}
);
layerId = UUID0;
paths = (
{
closed = 1;
nodes = (
"537 -8 OFFCURVE",
"683 143 OFFCURVE",
"683 378 CURVE SMOOTH",
"683 603 OFFCURVE",
"572 751 OFFCURVE",
"370 751 CURVE SMOOTH",
"184 751 OFFCURVE",
"37 602 OFFCURVE",
"37 366 CURVE SMOOTH",
"37 141 OFFCURVE",
"150 -15 OFFCURVE",
"353 -11 CURVE SMOOTH"
);
},
{
closed = 1;
nodes = (
"508 704 OFFCURVE",
"590 570 OFFCURVE",
"590 378 CURVE SMOOTH",
"590 151 OFFCURVE",
"496 36 OFFCURVE",
"358 36 CURVE SMOOTH",
"211 36 OFFCURVE",
"128 175 OFFCURVE",
"128 366 CURVE SMOOTH",
"128 593 OFFCURVE",
"223 704 OFFCURVE",
"361 704 CURVE SMOOTH"
);
}
);
width = 719;
},
{
anchors = (
{
name = bottom;
position = "{368, 0}";
},
{
name = center;
position = "{368, 372}";
},
{
name = mark0;
position = "{365, -83}";
},
{
name = ogonek;
position = "{661, 10}";
},
{
name = top;
position = "{368, 743}";
},
{
name = topleft;
position = "{20, 743}";
},
{
name = topright;
position = "{582, 743}";
}
);
layerId = "D0FF1146-32FF-444C-BC95-9626761FC64D";
paths = (
{
closed = 1;
nodes = (
"580 -10 OFFCURVE",
"712 153 OFFCURVE",
"712 386 CURVE SMOOTH",
"712 611 OFFCURVE",
"619 752 OFFCURVE",
"372 753 CURVE SMOOTH",
"155 754 OFFCURVE",
"23 604 OFFCURVE",
"23 372 CURVE SMOOTH",
"23 143 OFFCURVE",
"117 -12 OFFCURVE",
"364 -11 CURVE SMOOTH"
);
},
{
closed = 1;
nodes = (
"443 680 OFFCURVE",
"489 614 OFFCURVE",
"489 385 CURVE SMOOTH",
"489 175 OFFCURVE",
"445 63 OFFCURVE",
"367 63 CURVE SMOOTH",
"292 63 OFFCURVE",
"246 144 OFFCURVE",
"246 373 CURVE SMOOTH",
"246 582 OFFCURVE",
"289 680 OFFCURVE",
"368 680 CURVE SMOOTH"
);
}
);
width = 735;
}
);
unicode = 004F;
},
{
glyphname = Obreve;
layers = (
{
anchors = (
{
name = mark0;
position = "{355, -83}";
}
);
layerId = UUID0;
paths = (
{
closed = 1;
nodes = (
"462 808 OFFCURVE",
"521 872 OFFCURVE",
"521 955 CURVE SMOOTH",
"521 961 OFFCURVE",
"521 967 OFFCURVE",
"520 974 CURVE",
"476 974 LINE",
"476 971 OFFCURVE",
"476 967 OFFCURVE",
"475 961 CURVE SMOOTH",
"472 925 OFFCURVE",
"446 874 OFFCURVE",
"363 874 CURVE SMOOTH",
"280 874 OFFCURVE",
"253 924 OFFCURVE",
"249 960 CURVE SMOOTH",
"248 966 OFFCURVE",
"248 971 OFFCURVE",
"248 974 CURVE",
"202 974 LINE",
"201 967 OFFCURVE",
"201 961 OFFCURVE",
"201 954 CURVE SMOOTH",
"201 872 OFFCURVE",
"259 808 OFFCURVE",
"363 808 CURVE SMOOTH"
);
},
{
closed = 1;
nodes = (
"537 -8 OFFCURVE",
"683 143 OFFCURVE",
"683 378 CURVE SMOOTH",
"683 603 OFFCURVE",
"572 751 OFFCURVE",
"370 751 CURVE SMOOTH",
"184 751 OFFCURVE",
"37 602 OFFCURVE",
"37 366 CURVE SMOOTH",
"37 141 OFFCURVE",
"150 -15 OFFCURVE",
"353 -11 CURVE SMOOTH"
);
},
{
closed = 1;
nodes = (
"508 704 OFFCURVE",
"590 570 OFFCURVE",
"590 378 CURVE SMOOTH",
"590 151 OFFCURVE",
"496 36 OFFCURVE",
"358 36 CURVE SMOOTH",
"211 36 OFFCURVE",
"128 175 OFFCURVE",
"128 366 CURVE SMOOTH",
"128 593 OFFCURVE",
"223 704 OFFCURVE",
"361 704 CURVE SMOOTH"
);
}
);
width = 719;
},
{
anchors = (
{
name = mark0;
position = "{367, -83}";
}
);
layerId = "D0FF1146-32FF-444C-BC95-9626761FC64D";
paths = (
{
closed = 1;
nodes = (
"504 789 OFFCURVE",
"570 871 OFFCURVE",
"570 959 CURVE SMOOTH",
"570 967 OFFCURVE",
"570 974 OFFCURVE",
"569 981 CURVE",
"476 981 LINE",
"476 979 OFFCURVE",
"476 975 OFFCURVE",
"475 971 CURVE SMOOTH",
"472 943 OFFCURVE",
"453 902 OFFCURVE",
"374 902 CURVE SMOOTH",
"294 902 OFFCURVE",
"272 944 OFFCURVE",
"268 971 CURVE SMOOTH",
"267 975 OFFCURVE",
"267 979 OFFCURVE",
"267 981 CURVE",
"176 981 LINE",
"175 974 OFFCURVE",
"175 966 OFFCURVE",
"175 958 CURVE SMOOTH",
"175 870 OFFCURVE",
"238 789 OFFCURVE",
"373 789 CURVE SMOOTH"
);
},
{
closed = 1;
nodes = (
"582 -10 OFFCURVE",
"714 153 OFFCURVE",
"714 386 CURVE SMOOTH",
"714 611 OFFCURVE",
"621 752 OFFCURVE",
"374 753 CURVE SMOOTH",
"157 754 OFFCURVE",
"25 604 OFFCURVE",
"25 372 CURVE SMOOTH",
"25 143 OFFCURVE",
"119 -12 OFFCURVE",
"366 -11 CURVE SMOOTH"
);
},
{
closed = 1;
nodes = (
"445 680 OFFCURVE",
"491 614 OFFCURVE",
"491 385 CURVE SMOOTH",
"491 175 OFFCURVE",
"447 63 OFFCURVE",
"369 63 CURVE SMOOTH",
"294 63 OFFCURVE",
"248 144 OFFCURVE",
"248 373 CURVE SMOOTH",
"248 582 OFFCURVE",
"291 680 OFFCURVE",
"370 680 CURVE SMOOTH"
);
}
);
width = 740;
}
);
unicode = 014E;
},
{
glyphname = Ocircumflex;
layers = (
{
anchors = (
{
name = mark0;
position = "{355, -83}";
}
);
layerId = UUID0;
paths = (
{
closed = 1;
nodes = (
"196 838 LINE",
"229 817 LINE",
"362 923 LINE",
"492 817 LINE",
"528 839 LINE",
"399 983 LINE",
"324 983 LINE"
);
},
{
closed = 1;
nodes = (
"537 -8 OFFCURVE",
"683 143 OFFCURVE",
"683 378 CURVE SMOOTH",
"683 603 OFFCURVE",
"572 751 OFFCURVE",
"370 751 CURVE SMOOTH",
"184 751 OFFCURVE",
"37 602 OFFCURVE",
"37 366 CURVE SMOOTH",
"37 141 OFFCURVE",
"150 -15 OFFCURVE",
"353 -11 CURVE SMOOTH"
);
},
{
closed = 1;
nodes = (
"508 704 OFFCURVE",
"590 570 OFFCURVE",
"590 378 CURVE SMOOTH",
"590 151 OFFCURVE",
"496 36 OFFCURVE",
"358 36 CURVE SMOOTH",
"211 36 OFFCURVE",
"128 175 OFFCURVE",
"128 366 CURVE SMOOTH",
"128 593 OFFCURVE",
"223 704 OFFCURVE",
"361 704 CURVE SMOOTH"
);
}
);
width = 719;
},
{
anchors = (
{
name = mark0;
position = "{365, -83}";
}
);
layerId = "D0FF1146-32FF-444C-BC95-9626761FC64D";
paths = (
{
closed = 1;
nodes = (
"159 832 LINE",
"220 779 LINE",
"368 870 LINE",
"516 779 LINE",
"577 833 LINE",
"420 979 LINE",
"318 979 LINE"
);
},
{
closed = 1;
nodes = (
"580 -10 OFFCURVE",
"712 153 OFFCURVE",
"712 386 CURVE SMOOTH",
"712 611 OFFCURVE",
"619 752 OFFCURVE",
"372 753 CURVE SMOOTH",
"155 754 OFFCURVE",
"23 604 OFFCURVE",
"23 372 CURVE SMOOTH",
"23 143 OFFCURVE",
"117 -12 OFFCURVE",
"364 -11 CURVE SMOOTH"
);
},
{
closed = 1;
nodes = (
"443 680 OFFCURVE",
"489 614 OFFCURVE",
"489 385 CURVE SMOOTH",
"489 175 OFFCURVE",
"445 63 OFFCURVE",
"367 63 CURVE SMOOTH",
"292 63 OFFCURVE",
"246 144 OFFCURVE",
"246 373 CURVE SMOOTH",
"246 582 OFFCURVE",
"289 680 OFFCURVE",
"368 680 CURVE SMOOTH"
);
}
);
width = 735;
}
);
unicode = 00D4;
},
{
glyphname = Odieresis;
layers = (
{
anchors = (
{
name = mark0;
position = "{355, -83}";
}
);
layerId = UUID0;
paths = (
{
closed = 1;
nodes = (
"239 834 LINE",
"280 834 OFFCURVE",
"300 864 OFFCURVE",
"300 899 CURVE SMOOTH",
"300 928 OFFCURVE",
"280 958 OFFCURVE",
"247 958 CURVE",
"246 958 LINE",
"207 958 OFFCURVE",
"188 925 OFFCURVE",
"188 891 CURVE SMOOTH",
"188 860 OFFCURVE",
"207 834 OFFCURVE",
"238 834 CURVE"
);
},
{
closed = 1;
nodes = (
"517 834 OFFCURVE",
"537 864 OFFCURVE",
"537 899 CURVE SMOOTH",
"537 928 OFFCURVE",
"519 958 OFFCURVE",
"485 958 CURVE",
"484 958 LINE",
"445 958 OFFCURVE",
"426 925 OFFCURVE",
"426 891 CURVE SMOOTH",
"426 860 OFFCURVE",
"445 834 OFFCURVE",
"476 834 CURVE SMOOTH"
);
},
{
closed = 1;
nodes = (
"537 -8 OFFCURVE",
"683 143 OFFCURVE",
"683 378 CURVE SMOOTH",
"683 603 OFFCURVE",
"572 751 OFFCURVE",
"370 751 CURVE SMOOTH",
"184 751 OFFCURVE",
"37 602 OFFCURVE",
"37 366 CURVE SMOOTH",
"37 141 OFFCURVE",
"150 -15 OFFCURVE",
"353 -11 CURVE SMOOTH"
);
},
{
closed = 1;
nodes = (
"508 704 OFFCURVE",
"590 570 OFFCURVE",
"590 378 CURVE SMOOTH",
"590 151 OFFCURVE",
"496 36 OFFCURVE",
"358 36 CURVE SMOOTH",
"211 36 OFFCURVE",
"128 175 OFFCURVE",
"128 366 CURVE SMOOTH",
"128 593 OFFCURVE",
"223 704 OFFCURVE",
"361 704 CURVE SMOOTH"
);
}
);
width = 719;
},
{
anchors = (
{
name = mark0;
position = "{367, -83}";
}
);
layerId = "D0FF1146-32FF-444C-BC95-9626761FC64D";
paths = (
{
closed = 1;
nodes = (
"224 794 LINE",
"298 794 OFFCURVE",
"330 838 OFFCURVE",
"330 894 CURVE SMOOTH",
"330 938 OFFCURVE",
"303 977 OFFCURVE",
"241 977 CURVE",
"240 977 LINE",
"174 977 OFFCURVE",
"144 934 OFFCURVE",
"144 878 CURVE SMOOTH",
"144 833 OFFCURVE",
"177 794 OFFCURVE",
"223 794 CURVE"
);
},
{
closed = 1;
nodes = (
"567 794 OFFCURVE",
"598 838 OFFCURVE",
"598 894 CURVE SMOOTH",
"598 938 OFFCURVE",
"572 977 OFFCURVE",
"509 977 CURVE",
"508 977 LINE",
"442 977 OFFCURVE",
"413 934 OFFCURVE",
"413 878 CURVE SMOOTH",
"413 839 OFFCURVE",
"445 794 OFFCURVE",
"492 794 CURVE SMOOTH"
);
},
{
closed = 1;
nodes = (
"582 -10 OFFCURVE",
"714 153 OFFCURVE",
"714 386 CURVE SMOOTH",
"714 611 OFFCURVE",
"621 752 OFFCURVE",
"374 753 CURVE SMOOTH",
"157 754 OFFCURVE",
"25 604 OFFCURVE",
"25 372 CURVE SMOOTH",
"25 143 OFFCURVE",
"119 -12 OFFCURVE",
"366 -11 CURVE SMOOTH"
);
},
{
closed = 1;
nodes = (
"445 680 OFFCURVE",
"491 614 OFFCURVE",
"491 385 CURVE SMOOTH",
"491 175 OFFCURVE",
"447 63 OFFCURVE",
"369 63 CURVE SMOOTH",
"294 63 OFFCURVE",
"248 144 OFFCURVE",
"248 373 CURVE SMOOTH",
"248 582 OFFCURVE",
"291 680 OFFCURVE",
"370 680 CURVE SMOOTH"
);
}
);
width = 740;
}
);
unicode = 00D6;
},
{
glyphname = Ohungarumlaut;
layers = (
{
anchors = (
{
name = mark0;
position = "{355, -83}";
}
);
layerId = UUID0;
paths = (
{
closed = 1;
nodes = (
"186 839 LINE",
"221 809 LINE",
"267 838 OFFCURVE",
"330 885 OFFCURVE",
"375 936 CURVE",
"318 982 LINE"
);
},
{
closed = 1;
nodes = (
"423 840 LINE",
"458 809 LINE",
"506 837 OFFCURVE",
"575 886 OFFCURVE",
"616 932 CURVE",
"565 980 LINE"
);
},
{
closed = 1;
nodes = (
"537 -8 OFFCURVE",
"683 143 OFFCURVE",
"683 378 CURVE SMOOTH",
"683 603 OFFCURVE",
"572 751 OFFCURVE",
"370 751 CURVE SMOOTH",
"184 751 OFFCURVE",
"37 602 OFFCURVE",
"37 366 CURVE SMOOTH",
"37 141 OFFCURVE",
"150 -15 OFFCURVE",
"353 -11 CURVE SMOOTH"
);
},
{
closed = 1;
nodes = (
"508 704 OFFCURVE",
"590 570 OFFCURVE",
"590 378 CURVE SMOOTH",
"590 151 OFFCURVE",
"496 36 OFFCURVE",
"358 36 CURVE SMOOTH",
"211 36 OFFCURVE",
"128 175 OFFCURVE",
"128 366 CURVE SMOOTH",
"128 593 OFFCURVE",
"223 704 OFFCURVE",
"361 704 CURVE SMOOTH"
);
}
);
width = 719;
},
{
anchors = (
{
name = mark0;
position = "{365, -83}";
}
);
layerId = "D0FF1146-32FF-444C-BC95-9626761FC64D";
paths = (
{
closed = 1;
nodes = (
"156 835 LINE",
"229 774 LINE",
"278 798 OFFCURVE",
"358 857 OFFCURVE",
"400 910 CURVE",
"300 983 LINE"
);
},
{
closed = 1;
nodes = (
"439 835 LINE",
"513 774 LINE",
"563 797 OFFCURVE",
"650 864 OFFCURVE",
"683 912 CURVE",
"586 983 LINE"
);
},
{
closed = 1;
nodes = (
"580 -10 OFFCURVE",
"712 153 OFFCURVE",
"712 386 CURVE SMOOTH",
"712 611 OFFCURVE",
"619 752 OFFCURVE",
"372 753 CURVE SMOOTH",
"155 754 OFFCURVE",
"23 604 OFFCURVE",
"23 372 CURVE SMOOTH",
"23 143 OFFCURVE",
"117 -12 OFFCURVE",
"364 -11 CURVE SMOOTH"
);
},
{
closed = 1;
nodes = (
"443 680 OFFCURVE",
"489 614 OFFCURVE",
"489 385 CURVE SMOOTH",
"489 175 OFFCURVE",
"445 63 OFFCURVE",
"367 63 CURVE SMOOTH",
"292 63 OFFCURVE",
"246 144 OFFCURVE",
"246 373 CURVE SMOOTH",
"246 582 OFFCURVE",
"289 680 OFFCURVE",
"368 680 CURVE SMOOTH"
);
}
);
width = 735;
}
);
unicode = 0150;
},
{
glyphname = Omacron;
layers = (
{
anchors = (
{
name = mark0;
position = "{355, -83}";
}
);
layerId = UUID0;
paths = (
{
closed = 1;
nodes = (
"233 920 LINE",
"233 859 LINE",
"496 859 LINE",
"496 920 LINE"
);
},
{
closed = 1;
nodes = (
"537 -8 OFFCURVE",
"683 143 OFFCURVE",
"683 378 CURVE SMOOTH",
"683 603 OFFCURVE",
"572 751 OFFCURVE",
"370 751 CURVE SMOOTH",
"184 751 OFFCURVE",
"37 602 OFFCURVE",
"37 366 CURVE SMOOTH",
"37 141 OFFCURVE",
"150 -15 OFFCURVE",
"353 -11 CURVE SMOOTH"
);
},
{
closed = 1;
nodes = (
"508 704 OFFCURVE",
"590 570 OFFCURVE",
"590 378 CURVE SMOOTH",
"590 151 OFFCURVE",
"496 36 OFFCURVE",
"358 36 CURVE SMOOTH",
"211 36 OFFCURVE",
"128 175 OFFCURVE",
"128 366 CURVE SMOOTH",
"128 593 OFFCURVE",
"223 704 OFFCURVE",
"361 704 CURVE SMOOTH"
);
}
);
width = 719;
},
{
anchors = (
{
name = mark0;
position = "{367, -83}";
}
);
layerId = "D0FF1146-32FF-444C-BC95-9626761FC64D";
paths = (
{
closed = 1;
nodes = (
"201 937 LINE",
"201 829 LINE",
"541 829 LINE",
"541 937 LINE"
);
},
{
closed = 1;
nodes = (
"582 -10 OFFCURVE",
"714 153 OFFCURVE",
"714 386 CURVE SMOOTH",
"714 611 OFFCURVE",
"621 752 OFFCURVE",
"374 753 CURVE SMOOTH",
"157 754 OFFCURVE",
"25 604 OFFCURVE",
"25 372 CURVE SMOOTH",
"25 143 OFFCURVE",
"119 -12 OFFCURVE",
"366 -11 CURVE SMOOTH"
);
},
{
closed = 1;
nodes = (
"445 680 OFFCURVE",
"491 614 OFFCURVE",
"491 385 CURVE SMOOTH",
"491 175 OFFCURVE",
"447 63 OFFCURVE",
"369 63 CURVE SMOOTH",
"294 63 OFFCURVE",
"248 144 OFFCURVE",
"248 373 CURVE SMOOTH",
"248 582 OFFCURVE",
"291 680 OFFCURVE",
"370 680 CURVE SMOOTH"
);
}
);
width = 740;
}
);
unicode = 014C;
},
{
glyphname = Oslash;
layers = (
{
layerId = UUID0;
paths = (
{
closed = 1;
nodes = (
"159 -86 LINE",
"197 -99 LINE",
"241 5 LINE",
"275 -6 OFFCURVE",
"312 -12 OFFCURVE",
"353 -11 CURVE SMOOTH",
"538 -8 OFFCURVE",
"683 143 OFFCURVE",
"683 378 CURVE SMOOTH",
"683 541 OFFCURVE",
"625 664 OFFCURVE",
"515 719 CURVE",
"556 819 LINE",
"518 833 LINE",
"479 734 LINE",
"446 745 OFFCURVE",
"410 751 OFFCURVE",
"370 751 CURVE SMOOTH",
"185 751 OFFCURVE",
"37 602 OFFCURVE",
"37 366 CURVE SMOOTH",
"37 204 OFFCURVE",
"96 78 OFFCURVE",
"205 21 CURVE"
);
},
{
closed = 1;
nodes = (
"397 704 OFFCURVE",
"429 696 OFFCURVE",
"456 682 CURVE",
"231 82 LINE",
"164 137 OFFCURVE",
"128 240 OFFCURVE",
"128 366 CURVE SMOOTH",
"128 593 OFFCURVE",
"223 704 OFFCURVE",
"362 704 CURVE SMOOTH"
);
},
{
closed = 1;
nodes = (
"591 151 OFFCURVE",
"496 36 OFFCURVE",
"359 36 CURVE SMOOTH",
"323 36 OFFCURVE",
"292 44 OFFCURVE",
"264 59 CURVE",
"490 659 LINE",
"555 604 OFFCURVE",
"591 503 OFFCURVE",
"591 378 CURVE SMOOTH"
);
}
);
width = 720;
},
{
layerId = "D0FF1146-32FF-444C-BC95-9626761FC64D";
paths = (
{
closed = 1;
nodes = (
"125 -98 LINE",
"215 -122 LINE",
"266 -2 LINE",
"295 -8 OFFCURVE",
"328 -11 OFFCURVE",
"364 -11 CURVE SMOOTH",
"580 -10 OFFCURVE",
"712 153 OFFCURVE",
"712 386 CURVE SMOOTH",
"712 543 OFFCURVE",
"667 660 OFFCURVE",
"554 716 CURVE",
"600 836 LINE",
"517 860 LINE",
"472 744 LINE",
"441 750 OFFCURVE",
"408 753 OFFCURVE",
"372 753 CURVE SMOOTH",
"155 754 OFFCURVE",
"23 604 OFFCURVE",
"23 372 CURVE SMOOTH",
"23 212 OFFCURVE",
"68 89 OFFCURVE",
"179 29 CURVE"
);
},
{
closed = 1;
nodes = (
"397 680 OFFCURVE",
"422 669 OFFCURVE",
"441 644 CURVE",
"262 182 LINE",
"251 229 OFFCURVE",
"246 292 OFFCURVE",
"246 373 CURVE SMOOTH",
"246 582 OFFCURVE",
"289 680 OFFCURVE",
"368 680 CURVE SMOOTH"
);
},
{
closed = 1;
nodes = (
"489 175 OFFCURVE",
"445 63 OFFCURVE",
"367 63 CURVE SMOOTH",
"336 63 OFFCURVE",
"311 76 OFFCURVE",
"291 106 CURVE",
"473 569 LINE",
"483 524 OFFCURVE",
"489 465 OFFCURVE",
"489 385 CURVE SMOOTH"
);
}
);
width = 735;
}
);
unicode = 00D8;
},
{
glyphname = Otilde;
layers = (
{
anchors = (
{
name = mark0;
position = "{355, -83}";
}
);
layerId = UUID0;
paths = (
{
closed = 1;
nodes = (
"505 833 OFFCURVE",
"544 882 OFFCURVE",
"560 934 CURVE",
"518 957 LINE",
"509 937 OFFCURVE",
"493 893 OFFCURVE",
"446 893 CURVE SMOOTH",
"388 893 OFFCURVE",
"376 978 OFFCURVE",
"296 978 CURVE SMOOTH",
"226 978 OFFCURVE",
"176 920 OFFCURVE",
"165 877 CURVE",
"207 854 LINE",
"216 874 OFFCURVE",
"236 918 OFFCURVE",
"283 918 CURVE SMOOTH",
"344 918 OFFCURVE",
"360 833 OFFCURVE",
"440 833 CURVE SMOOTH"
);
},
{
closed = 1;
nodes = (
"537 -8 OFFCURVE",
"683 143 OFFCURVE",
"683 378 CURVE SMOOTH",
"683 603 OFFCURVE",
"572 751 OFFCURVE",
"370 751 CURVE SMOOTH",
"184 751 OFFCURVE",
"37 602 OFFCURVE",
"37 366 CURVE SMOOTH",
"37 141 OFFCURVE",
"150 -15 OFFCURVE",
"353 -11 CURVE SMOOTH"
);
},
{
closed = 1;
nodes = (
"508 704 OFFCURVE",
"590 570 OFFCURVE",
"590 378 CURVE SMOOTH",
"590 151 OFFCURVE",
"496 36 OFFCURVE",
"358 36 CURVE SMOOTH",
"211 36 OFFCURVE",
"128 175 OFFCURVE",
"128 366 CURVE SMOOTH",
"128 593 OFFCURVE",
"223 704 OFFCURVE",
"361 704 CURVE SMOOTH"
);
}
);
width = 719;
},
{
anchors = (
{
name = mark0;
position = "{367, -83}";
}
);
layerId = "D0FF1146-32FF-444C-BC95-9626761FC64D";
paths = (
{
closed = 1;
nodes = (
"536 795 OFFCURVE",
"580 848 OFFCURVE",
"610 901 CURVE",
"558 954 LINE",
"539 933 OFFCURVE",
"523 907 OFFCURVE",
"478 907 CURVE SMOOTH",
"418 907 OFFCURVE",
"381 980 OFFCURVE",
"292 980 CURVE SMOOTH",
"204 980 OFFCURVE",
"155 917 OFFCURVE",
"132 875 CURVE",
"184 822 LINE",
"200 839 OFFCURVE",
"224 869 OFFCURVE",
"263 869 CURVE SMOOTH",
"327 869 OFFCURVE",
"372 795 OFFCURVE",
"457 795 CURVE SMOOTH"
);
},
{
closed = 1;
nodes = (
"582 -10 OFFCURVE",
"714 153 OFFCURVE",
"714 386 CURVE SMOOTH",
"714 611 OFFCURVE",
"621 752 OFFCURVE",
"374 753 CURVE SMOOTH",
"157 754 OFFCURVE",
"25 604 OFFCURVE",
"25 372 CURVE SMOOTH",
"25 143 OFFCURVE",
"119 -12 OFFCURVE",
"366 -11 CURVE SMOOTH"
);
},
{
closed = 1;
nodes = (
"445 680 OFFCURVE",
"491 614 OFFCURVE",
"491 385 CURVE SMOOTH",
"491 175 OFFCURVE",
"447 63 OFFCURVE",
"369 63 CURVE SMOOTH",
"294 63 OFFCURVE",
"248 144 OFFCURVE",
"248 373 CURVE SMOOTH",
"248 582 OFFCURVE",
"291 680 OFFCURVE",
"370 680 CURVE SMOOTH"
);
}
);
width = 740;
}
);
unicode = 00D5;
},
{
glyphname = OE;
layers = (
{
anchors = (
{
name = mark0;
position = "{498, -83}";
}
);
layerId = UUID0;
paths = (
{
closed = 1;
nodes = (
"505 0 LINE",
"963 0 LINE",
"1001 171 LINE",
"954 184 LINE",
"896 59 LINE",
"586 49 LINE",
"586 360 LINE",
"772 357 LINE",
"784 271 LINE",
"835 271 LINE",
"835 492 LINE",
"784 492 LINE",
"772 410 LINE",
"586 407 LINE",
"586 695 LINE",
"855 690 LINE",
"882 593 LINE",
"929 593 LINE",
"915 743 LINE",
"505 743 LINE",
"505 728 LINE",
"466 747 OFFCURVE",
"421 756 OFFCURVE",
"371 755 CURVE SMOOTH",
"186 751 OFFCURVE",
"37 603 OFFCURVE",
"37 367 CURVE SMOOTH",
"37 143 OFFCURVE",
"154 -12 OFFCURVE",
"356 -8 CURVE",
"410 -6 OFFCURVE",
"460 7 OFFCURVE",
"505 32 CURVE"
);
},
{
closed = 1;
nodes = (
"211 39 OFFCURVE",
"126 187 OFFCURVE",
"126 367 CURVE SMOOTH",
"126 587 OFFCURVE",
"221 709 OFFCURVE",
"364 709 CURVE SMOOTH",
"430 709 OFFCURVE",
"474 689 OFFCURVE",
"505 659 CURVE",
"505 96 LINE",
"470 59 OFFCURVE",
"422 39 OFFCURVE",
"362 39 CURVE SMOOTH"
);
}
);
width = 1027;
},
{
anchors = (
{
name = mark0;
position = "{503, -83}";
}
);
layerId = "D0FF1146-32FF-444C-BC95-9626761FC64D";
paths = (
{
closed = 1;
nodes = (
"470 0 LINE",
"1009 0 LINE",
"1041 191 LINE",
"948 218 LINE",
"874 91 LINE",
"678 76 LINE",
"678 334 LINE",
"779 331 LINE",
"797 244 LINE",
"878 244 LINE",
"878 505 LINE",
"797 505 LINE",
"779 425 LINE",
"678 421 LINE",
"678 671 LINE",
"853 658 LINE",
"889 556 LINE",
"980 556 LINE",
"966 743 LINE",
"470 743 LINE",
"470 738 LINE",
"440 749 OFFCURVE",
"408 754 OFFCURVE",
"374 754 CURVE SMOOTH",
"148 753 OFFCURVE",
"23 604 OFFCURVE",
"23 372 CURVE SMOOTH",
"23 148 OFFCURVE",
"124 -8 OFFCURVE",
"365 -8 CURVE SMOOTH",
"403 -8 OFFCURVE",
"438 0 OFFCURVE",
"470 18 CURVE"
);
},
{
closed = 1;
nodes = (
"293 63 OFFCURVE",
"245 149 OFFCURVE",
"245 373 CURVE SMOOTH",
"245 580 OFFCURVE",
"286 681 OFFCURVE",
"366 681 CURVE SMOOTH",
"416 681 OFFCURVE",
"451 659 OFFCURVE",
"470 574 CURVE",
"470 197 LINE",
"452 115 OFFCURVE",
"419 63 OFFCURVE",
"369 63 CURVE SMOOTH"
);
}
);
width = 1044;
}
);
unicode = 0152;
},
{
glyphname = P;
layers = (
{
anchors = (
{
name = bottom;
position = "{321, 0}";
},
{
name = mark0;
position = "{330, -83}";
},
{
name = top;
position = "{351, 743}";
}
);
layerId = UUID0;
paths = (
{
closed = 1;
nodes = (
"53 43 LINE",
"53 0 LINE",
"360 0 LINE",
"360 43 LINE",
"221 53 LINE",
"221 288 LINE",
"230 286 OFFCURVE",
"288 284 OFFCURVE",
"327 284 CURVE SMOOTH",
"486 284 OFFCURVE",
"613 378 OFFCURVE",
"613 540 CURVE SMOOTH",
"613 672 OFFCURVE",
"551 750 OFFCURVE",
"355 750 CURVE SMOOTH",
"268 750 OFFCURVE",
"246 743 OFFCURVE",
"180 743 CURVE SMOOTH",
"59 743 LINE",
"59 700 LINE",
"139 689 LINE",
"139 52 LINE"
);
},
{
closed = 1;
nodes = (
"221 696 LINE",
"249 696 OFFCURVE",
"282 702 OFFCURVE",
"330 702 CURVE SMOOTH",
"462 702 OFFCURVE",
"525 659 OFFCURVE",
"525 540 CURVE SMOOTH",
"525 381 OFFCURVE",
"430 333 OFFCURVE",
"329 333 CURVE SMOOTH",
"279 333 OFFCURVE",
"240 334 OFFCURVE",
"221 337 CURVE"
);
}
);
width = 641;
},
{
anchors = (
{
name = bottom;
position = "{339, 0}";
},
{
name = mark0;
position = "{336, -83}";
},
{
name = top;
position = "{379, 743}";
}
);
layerId = "D0FF1146-32FF-444C-BC95-9626761FC64D";
paths = (
{
closed = 1;
nodes = (
"29 74 LINE",
"29 0 LINE",
"434 0 LINE",
"434 74 LINE",
"305 85 LINE",
"305 249 LINE",
"313 248 OFFCURVE",
"336 246 OFFCURVE",
"361 246 CURVE SMOOTH",
"566 246 OFFCURVE",
"666 349 OFFCURVE",
"666 521 CURVE SMOOTH",
"666 667 OFFCURVE",
"601 747 OFFCURVE",
"373 748 CURVE",
"300 749 OFFCURVE",
"246 743 OFFCURVE",
"208 743 CURVE SMOOTH",
"31 743 LINE",
"31 664 LINE",
"102 649 LINE",
"102 85 LINE"
);
},
{
closed = 1;
nodes = (
"304 669 LINE",
"315 672 OFFCURVE",
"321 675 OFFCURVE",
"354 675 CURVE SMOOTH",
"423 675 OFFCURVE",
"461 626 OFFCURVE",
"461 516 CURVE SMOOTH",
"461 366 OFFCURVE",
"417 320 OFFCURVE",
"355 320 CURVE SMOOTH",
"328 320 OFFCURVE",
"313 322 OFFCURVE",
"304 325 CURVE"
);
}
);
width = 678;
}
);
unicode = 0050;
},
{
glyphname = Thorn;
layers = (
{
layerId = UUID0;
paths = (
{
closed = 1;
nodes = (
"50 42 LINE",
"50 0 LINE",
"325 0 LINE",
"325 42 LINE",
"216 52 LINE",
"216 168 LINE",
"248 165 OFFCURVE",
"285 164 OFFCURVE",
"342 164 CURVE SMOOTH",
"503 164 OFFCURVE",
"604 233 OFFCURVE",
"604 383 CURVE SMOOTH",
"604 514 OFFCURVE",
"518 579 OFFCURVE",
"375 579 CURVE SMOOTH",
"320 579 OFFCURVE",
"266 573 OFFCURVE",
"216 569 CURVE",
"216 690 LINE",
"306 701 LINE",
"306 744 LINE",
"52 744 LINE",
"52 701 LINE",
"135 690 LINE",
"135 52 LINE"
);
},
{
closed = 1;
nodes = (
"302 209 OFFCURVE",
"259 208 OFFCURVE",
"216 213 CURVE",
"216 521 LINE",
"246 525 OFFCURVE",
"288 530 OFFCURVE",
"333 531 CURVE SMOOTH",
"460 534 OFFCURVE",
"513 477 OFFCURVE",
"513 378 CURVE SMOOTH",
"513 252 OFFCURVE",
"438 209 OFFCURVE",
"339 209 CURVE SMOOTH"
);
}
);
width = 635;
},
{
layerId = "D0FF1146-32FF-444C-BC95-9626761FC64D";
paths = (
{
closed = 1;
nodes = (
"26 73 LINE",
"26 0 LINE",
"405 0 LINE",
"405 73 LINE",
"305 85 LINE",
"305 161 LINE",
"325 159 OFFCURVE",
"375 154 OFFCURVE",
"418 154 CURVE SMOOTH",
"572 154 OFFCURVE",
"665 228 OFFCURVE",
"665 387 CURVE SMOOTH",
"665 523 OFFCURVE",
"592 587 OFFCURVE",
"445 587 CURVE SMOOTH",
"385 587 OFFCURVE",
"354 581 OFFCURVE",
"305 577 CURVE",
"305 649 LINE",
"386 665 LINE",
"385 743 LINE",
"25 743 LINE",
"25 665 LINE",
"102 649 LINE",
"102 85 LINE"
);
},
{
closed = 1;
nodes = (
"355 228 OFFCURVE",
"330 227 OFFCURVE",
"305 232 CURVE",
"305 502 LINE",
"317 506 OFFCURVE",
"341 509 OFFCURVE",
"360 509 CURVE SMOOTH",
"430 510 OFFCURVE",
"453 444 OFFCURVE",
"453 380 CURVE SMOOTH",
"453 290 OFFCURVE",
"420 228 OFFCURVE",
"374 228 CURVE SMOOTH"
);
}
);
width = 682;
}
);
unicode = 00DE;
},
{
glyphname = Q;
layers = (
{
anchors = (
{
name = mark0;
position = "{358, -83}";
}
);
layerId = UUID0;
paths = (
{
closed = 1;
nodes = (
"840 -202 OFFCURVE",
"874 -192 OFFCURVE",
"896 -172 CURVE",
"886 -131 LINE",
"879 -131 OFFCURVE",
"874 -132 OFFCURVE",
"863 -132 CURVE",
"733 -132 OFFCURVE",
"626 6 OFFCURVE",
"480 16 CURVE",
"602 70 OFFCURVE",
"686 199 OFFCURVE",
"686 378 CURVE SMOOTH",
"686 603 OFFCURVE",
"575 751 OFFCURVE",
"373 751 CURVE SMOOTH",
"187 751 OFFCURVE",
"40 602 OFFCURVE",
"40 366 CURVE SMOOTH",
"40 141 OFFCURVE",
"153 -15 OFFCURVE",
"355 -11 CURVE SMOOTH",
"377 -11 OFFCURVE",
"399 -8 OFFCURVE",
"420 -3 CURVE",
"549 -25 OFFCURVE",
"642 -202 OFFCURVE",
"814 -202 CURVE SMOOTH"
);
},
{
closed = 1;
nodes = (
"214 36 OFFCURVE",
"131 175 OFFCURVE",
"131 366 CURVE SMOOTH",
"131 593 OFFCURVE",
"226 704 OFFCURVE",
"364 704 CURVE SMOOTH",
"511 704 OFFCURVE",
"593 570 OFFCURVE",
"593 378 CURVE SMOOTH",
"593 151 OFFCURVE",
"499 36 OFFCURVE",
"361 36 CURVE SMOOTH"
);
}
);
width = 725;
},
{
anchors = (
{
name = mark0;
position = "{365, -83}";
}
);
layerId = "D0FF1146-32FF-444C-BC95-9626761FC64D";
paths = (
{
closed = 1;
nodes = (
"861 -182 OFFCURVE",
"896 -163 OFFCURVE",
"934 -112 CURVE",
"917 -63 LINE",
"907 -67 OFFCURVE",
"890 -70 OFFCURVE",
"854 -70 CURVE SMOOTH",
"763 -70 OFFCURVE",
"644 13 OFFCURVE",
"544 36 CURVE",
"651 101 OFFCURVE",
"712 227 OFFCURVE",
"712 386 CURVE SMOOTH",
"712 611 OFFCURVE",
"619 752 OFFCURVE",
"372 753 CURVE SMOOTH",
"155 754 OFFCURVE",
"23 604 OFFCURVE",
"23 372 CURVE SMOOTH",
"23 143 OFFCURVE",
"117 -12 OFFCURVE",
"364 -11 CURVE SMOOTH",
"389 -11 OFFCURVE",
"413 -8 OFFCURVE",
"436 -4 CURVE",
"544 -50 OFFCURVE",
"645 -182 OFFCURVE",
"791 -182 CURVE SMOOTH"
);
},
{
closed = 1;
nodes = (
"292 63 OFFCURVE",
"246 144 OFFCURVE",
"246 373 CURVE SMOOTH",
"246 582 OFFCURVE",
"289 680 OFFCURVE",
"368 680 CURVE SMOOTH",
"443 680 OFFCURVE",
"489 614 OFFCURVE",
"489 385 CURVE SMOOTH",
"489 175 OFFCURVE",
"445 63 OFFCURVE",
"367 63 CURVE SMOOTH"
);
}
);
width = 735;
}
);
unicode = 0051;
},
{
glyphname = R;
layers = (
{
anchors = (
{
name = bottom;
position = "{377, 0}";
},
{
name = mark0;
position = "{371, -83}";
},
{
name = top;
position = "{347, 743}";
}
);
layerId = UUID0;
paths = (
{
closed = 1;
nodes = (
"321 0 LINE",
"321 43 LINE",
"218 52 LINE",
"218 331 LINE",
"237 330 OFFCURVE",
"328 330 OFFCURVE",
"359 330 CURVE",
"435 287 OFFCURVE",
"525 0 OFFCURVE",
"575 0 CURVE SMOOTH",
"692 0 LINE",
"692 42 LINE",
"650 53 LINE",
"601 64 OFFCURVE",
"517 294 OFFCURVE",
"441 344 CURVE",
"536 372 OFFCURVE",
"591 461 OFFCURVE",
"591 555 CURVE SMOOTH",
"591 685 OFFCURVE",
"521 751 OFFCURVE",
"326 751 CURVE SMOOTH",
"277 751 OFFCURVE",
"231 743 OFFCURVE",
"178 743 CURVE SMOOTH",
"56 743 LINE",
"56 702 LINE",
"136 690 LINE",
"136 52 LINE",
"50 43 LINE",
"50 0 LINE"
);
},
{
closed = 1;
nodes = (
"329 379 OFFCURVE",
"253 378 OFFCURVE",
"218 380 CURVE",
"218 696 LINE",
"241 696 OFFCURVE",
"267 702 OFFCURVE",
"318 702 CURVE SMOOTH",
"463 702 OFFCURVE",
"502 637 OFFCURVE",
"502 548 CURVE SMOOTH",
"502 434 OFFCURVE",
"442 379 OFFCURVE",
"353 379 CURVE SMOOTH"
);
}
);
width = 693;
},
{
anchors = (
{
name = bottom;
position = "{419, 0}";
},
{
name = mark0;
position = "{381, -83}";
},
{
name = top;
position = "{373, 743}";
}
);
layerId = "D0FF1146-32FF-444C-BC95-9626761FC64D";
paths = (
{
closed = 1;
nodes = (
"389 0 LINE",
"389 74 LINE",
"305 85 LINE",
"305 311 LINE",
"329 311 OFFCURVE",
"352 311 OFFCURVE",
"376 311 CURVE",
"451 287 OFFCURVE",
"488 0 OFFCURVE",
"537 0 CURVE SMOOTH",
"753 0 LINE",
"753 74 LINE",
"729 83 LINE",
"682 95 OFFCURVE",
"661 303 OFFCURVE",
"532 343 CURVE",
"633 375 OFFCURVE",
"671 472 OFFCURVE",
"671 549 CURVE SMOOTH",
"671 693 OFFCURVE",
"591 749 OFFCURVE",
"372 749 CURVE SMOOTH",
"295 749 OFFCURVE",
"257 743 OFFCURVE",
"197 743 CURVE SMOOTH",
"31 743 LINE",
"31 664 LINE",
"102 649 LINE",
"102 85 LINE",
"29 74 LINE",
"29 0 LINE"
);
},
{
closed = 1;
nodes = (
"349 382 OFFCURVE",
"313 381 OFFCURVE",
"305 385 CURVE",
"305 672 LINE",
"312 674 OFFCURVE",
"327 676 OFFCURVE",
"355 676 CURVE SMOOTH",
"427 676 OFFCURVE",
"458 639 OFFCURVE",
"458 543 CURVE SMOOTH",
"458 431 OFFCURVE",
"422 382 OFFCURVE",
"361 382 CURVE SMOOTH"
);
}
);
width = 745;
}
);
unicode = 0052;
},
{
glyphname = S;
layers = (
{
anchors = (
{
name = bottom;
position = "{294, 0}";
},
{
name = mark0;
position = "{293, -83}";
},
{
name = top;
position = "{324, 743}";
}
);
layerId = UUID0;
paths = (
{
closed = 1;
nodes = (
"451 -11 OFFCURVE",
"545 96 OFFCURVE",
"545 199 CURVE SMOOTH",
"545 319 OFFCURVE",
"429 370 OFFCURVE",
"331 417 CURVE SMOOTH",
"226 466 OFFCURVE",
"154 497 OFFCURVE",
"154 583 CURVE SMOOTH",
"154 664 OFFCURVE",
"208 704 OFFCURVE",
"306 704 CURVE SMOOTH",
"363 704 OFFCURVE",
"412 687 OFFCURVE",
"426 675 CURVE",
"444 551 LINE",
"494 551 LINE",
"500 715 LINE",
"471 720 OFFCURVE",
"400 751 OFFCURVE",
"311 751 CURVE SMOOTH",
"172 751 OFFCURVE",
"75 675 OFFCURVE",
"75 563 CURVE SMOOTH",
"75 434 OFFCURVE",
"196 380 OFFCURVE",
"279 344 CURVE SMOOTH",
"380 301 OFFCURVE",
"458 265 OFFCURVE",
"458 177 CURVE SMOOTH",
"458 92 OFFCURVE",
"401 38 OFFCURVE",
"291 38 CURVE SMOOTH",
"222 38 OFFCURVE",
"163 60 OFFCURVE",
"140 82 CURVE",
"125 213 LINE",
"73 213 LINE",
"65 35 LINE",
"96 32 OFFCURVE",
"173 -11 OFFCURVE",
"286 -11 CURVE SMOOTH"
);
}
);
width = 588;
},
{
anchors = (
{
name = bottom;
position = "{308, 0}";
},
{
name = mark0;
position = "{305, -83}";
},
{
name = top;
position = "{338, 743}";
}
);
layerId = "D0FF1146-32FF-444C-BC95-9626761FC64D";
paths = (
{
closed = 1;
nodes = (
"550 -11 OFFCURVE",
"600 123 OFFCURVE",
"600 219 CURVE SMOOTH",
"600 342 OFFCURVE",
"495 403 OFFCURVE",
"422 438 CURVE",
"331 484 OFFCURVE",
"243 523 OFFCURVE",
"243 596 CURVE SMOOTH",
"243 636 OFFCURVE",
"267 679 OFFCURVE",
"338 679 CURVE SMOOTH",
"378 679 OFFCURVE",
"407 667 OFFCURVE",
"413 657 CURVE",
"437 535 LINE",
"543 535 LINE",
"549 718 LINE",
"520 719 OFFCURVE",
"451 753 OFFCURVE",
"326 753 CURVE SMOOTH",
"127 753 OFFCURVE",
"52 648 OFFCURVE",
"52 543 CURVE SMOOTH",
"52 401 OFFCURVE",
"161 333 OFFCURVE",
"235 298 CURVE SMOOTH",
"338 249 OFFCURVE",
"399 215 OFFCURVE",
"399 154 CURVE SMOOTH",
"399 101 OFFCURVE",
"367 66 OFFCURVE",
"293 66 CURVE SMOOTH",
"238 66 OFFCURVE",
"205 82 OFFCURVE",
"195 96 CURVE",
"167 222 LINE",
"59 222 LINE",
"50 32 LINE",
"84 30 OFFCURVE",
"180 -11 OFFCURVE",
"306 -11 CURVE SMOOTH"
);
}
);
width = 616;
}
);
unicode = 0053;
},
{
glyphname = Scaron;
layers = (
{
anchors = (
{
name = mark0;
position = "{293, -83}";
}
);
layerId = UUID0;
paths = (
{
closed = 1;
nodes = (
"157 960 LINE",
"278 826 LINE",
"354 826 LINE",
"474 961 LINE",
"441 982 LINE",
"316 882 LINE",
"193 982 LINE"
);
},
{
closed = 1;
nodes = (
"451 -11 OFFCURVE",
"545 96 OFFCURVE",
"545 199 CURVE SMOOTH",
"545 319 OFFCURVE",
"429 370 OFFCURVE",
"331 417 CURVE SMOOTH",
"226 466 OFFCURVE",
"154 497 OFFCURVE",
"154 583 CURVE SMOOTH",
"154 664 OFFCURVE",
"208 704 OFFCURVE",
"306 704 CURVE SMOOTH",
"363 704 OFFCURVE",
"412 687 OFFCURVE",
"426 675 CURVE",
"444 551 LINE",
"494 551 LINE",
"500 715 LINE",
"471 720 OFFCURVE",
"400 751 OFFCURVE",
"311 751 CURVE SMOOTH",
"172 751 OFFCURVE",
"75 675 OFFCURVE",
"75 563 CURVE SMOOTH",
"75 434 OFFCURVE",
"196 380 OFFCURVE",
"279 344 CURVE SMOOTH",
"380 301 OFFCURVE",
"458 265 OFFCURVE",
"458 177 CURVE SMOOTH",
"458 92 OFFCURVE",
"401 38 OFFCURVE",
"291 38 CURVE SMOOTH",
"222 38 OFFCURVE",
"163 60 OFFCURVE",
"140 82 CURVE",
"125 213 LINE",
"73 213 LINE",
"65 35 LINE",
"96 32 OFFCURVE",
"173 -11 OFFCURVE",
"286 -11 CURVE SMOOTH"
);
}
);
width = 588;
},
{
anchors = (
{
name = mark0;
position = "{305, -83}";
}
);
layerId = "D0FF1146-32FF-444C-BC95-9626761FC64D";
paths = (
{
closed = 1;
nodes = (
"126 931 LINE",
"275 789 LINE",
"377 789 LINE",
"535 930 LINE",
"474 983 LINE",
"326 898 LINE",
"188 983 LINE"
);
},
{
closed = 1;
nodes = (
"550 -11 OFFCURVE",
"600 123 OFFCURVE",
"600 219 CURVE SMOOTH",
"600 342 OFFCURVE",
"495 403 OFFCURVE",
"422 438 CURVE",
"331 484 OFFCURVE",
"243 523 OFFCURVE",
"243 596 CURVE SMOOTH",
"243 636 OFFCURVE",
"267 679 OFFCURVE",
"338 679 CURVE SMOOTH",
"378 679 OFFCURVE",
"407 667 OFFCURVE",
"413 657 CURVE",
"437 535 LINE",
"543 535 LINE",
"549 718 LINE",
"520 719 OFFCURVE",
"451 753 OFFCURVE",
"326 753 CURVE SMOOTH",
"127 753 OFFCURVE",
"52 648 OFFCURVE",
"52 543 CURVE SMOOTH",
"52 401 OFFCURVE",
"161 333 OFFCURVE",
"235 298 CURVE SMOOTH",
"338 249 OFFCURVE",
"399 215 OFFCURVE",
"399 154 CURVE SMOOTH",
"399 101 OFFCURVE",
"367 66 OFFCURVE",
"293 66 CURVE SMOOTH",
"238 66 OFFCURVE",
"205 82 OFFCURVE",
"195 96 CURVE",
"167 222 LINE",
"59 222 LINE",
"50 32 LINE",
"84 30 OFFCURVE",
"180 -11 OFFCURVE",
"306 -11 CURVE SMOOTH"
);
}
);
width = 616;
}
);
unicode = 0160;
},
{
glyphname = Scircumflex;
layers = (
{
anchors = (
{
name = mark0;
position = "{293, -83}";
}
);
layerId = UUID0;
paths = (
{
closed = 1;
nodes = (
"149 838 LINE",
"182 817 LINE",
"315 923 LINE",
"445 817 LINE",
"481 839 LINE",
"352 983 LINE",
"277 983 LINE"
);
},
{
closed = 1;
nodes = (
"451 -11 OFFCURVE",
"545 96 OFFCURVE",
"545 199 CURVE SMOOTH",
"545 319 OFFCURVE",
"429 370 OFFCURVE",
"331 417 CURVE SMOOTH",
"226 466 OFFCURVE",
"154 497 OFFCURVE",
"154 583 CURVE SMOOTH",
"154 664 OFFCURVE",
"208 704 OFFCURVE",
"306 704 CURVE SMOOTH",
"363 704 OFFCURVE",
"412 687 OFFCURVE",
"426 675 CURVE",
"444 551 LINE",
"494 551 LINE",
"500 715 LINE",
"471 720 OFFCURVE",
"400 751 OFFCURVE",
"311 751 CURVE SMOOTH",
"172 751 OFFCURVE",
"75 675 OFFCURVE",
"75 563 CURVE SMOOTH",
"75 434 OFFCURVE",
"196 380 OFFCURVE",
"279 344 CURVE SMOOTH",
"380 301 OFFCURVE",
"458 265 OFFCURVE",
"458 177 CURVE SMOOTH",
"458 92 OFFCURVE",
"401 38 OFFCURVE",
"291 38 CURVE SMOOTH",
"222 38 OFFCURVE",
"163 60 OFFCURVE",
"140 82 CURVE",
"125 213 LINE",
"73 213 LINE",
"65 35 LINE",
"96 32 OFFCURVE",
"173 -11 OFFCURVE",
"286 -11 CURVE SMOOTH"
);
}
);
width = 588;
},
{
anchors = (
{
name = mark0;
position = "{305, -83}";
}
);
layerId = "D0FF1146-32FF-444C-BC95-9626761FC64D";
paths = (
{
closed = 1;
nodes = (
"117 832 LINE",
"178 779 LINE",
"326 870 LINE",
"474 779 LINE",
"535 833 LINE",
"378 979 LINE",
"276 979 LINE"
);
},
{
closed = 1;
nodes = (
"550 -11 OFFCURVE",
"600 123 OFFCURVE",
"600 219 CURVE SMOOTH",
"600 342 OFFCURVE",
"495 403 OFFCURVE",
"422 438 CURVE",
"331 484 OFFCURVE",
"243 523 OFFCURVE",
"243 596 CURVE SMOOTH",
"243 636 OFFCURVE",
"267 679 OFFCURVE",
"338 679 CURVE SMOOTH",
"378 679 OFFCURVE",
"407 667 OFFCURVE",
"413 657 CURVE",
"437 535 LINE",
"543 535 LINE",
"549 718 LINE",
"520 719 OFFCURVE",
"451 753 OFFCURVE",
"326 753 CURVE SMOOTH",
"127 753 OFFCURVE",
"52 648 OFFCURVE",
"52 543 CURVE SMOOTH",
"52 401 OFFCURVE",
"161 333 OFFCURVE",
"235 298 CURVE SMOOTH",
"338 249 OFFCURVE",
"399 215 OFFCURVE",
"399 154 CURVE SMOOTH",
"399 101 OFFCURVE",
"367 66 OFFCURVE",
"293 66 CURVE SMOOTH",
"238 66 OFFCURVE",
"205 82 OFFCURVE",
"195 96 CURVE",
"167 222 LINE",
"59 222 LINE",
"50 32 LINE",
"84 30 OFFCURVE",
"180 -11 OFFCURVE",
"306 -11 CURVE SMOOTH"
);
}
);
width = 616;
}
);
unicode = 015C;
},
{
glyphname = Scommaaccent;
layers = (
{
anchors = (
{
name = mark0;
position = "{293, -83}";
}
);
layerId = UUID0;
paths = (
{
closed = 1;
nodes = (
"451 -11 OFFCURVE",
"545 96 OFFCURVE",
"545 199 CURVE SMOOTH",
"545 319 OFFCURVE",
"429 370 OFFCURVE",
"331 417 CURVE SMOOTH",
"226 466 OFFCURVE",
"154 497 OFFCURVE",
"154 583 CURVE SMOOTH",
"154 664 OFFCURVE",
"208 704 OFFCURVE",
"306 704 CURVE SMOOTH",
"363 704 OFFCURVE",
"412 687 OFFCURVE",
"426 675 CURVE",
"444 551 LINE",
"494 551 LINE",
"500 715 LINE",
"471 720 OFFCURVE",
"400 751 OFFCURVE",
"311 751 CURVE SMOOTH",
"172 751 OFFCURVE",
"75 675 OFFCURVE",
"75 563 CURVE SMOOTH",
"75 434 OFFCURVE",
"196 380 OFFCURVE",
"279 344 CURVE SMOOTH",
"380 301 OFFCURVE",
"458 265 OFFCURVE",
"458 177 CURVE SMOOTH",
"458 92 OFFCURVE",
"401 38 OFFCURVE",
"291 38 CURVE SMOOTH",
"222 38 OFFCURVE",
"163 60 OFFCURVE",
"140 82 CURVE",
"125 213 LINE",
"73 213 LINE",
"65 35 LINE",
"96 32 OFFCURVE",
"173 -11 OFFCURVE",
"286 -11 CURVE SMOOTH"
);
},
{
closed = 1;
nodes = (
"363 -86 OFFCURVE",
"339 -58 OFFCURVE",
"302 -58 CURVE SMOOTH",
"298 -58 LINE SMOOTH",
"286 -58 OFFCURVE",
"254 -65 OFFCURVE",
"254 -102 CURVE SMOOTH",
"254 -123 OFFCURVE",
"263 -132 OFFCURVE",
"273 -139 CURVE SMOOTH",
"283 -146 OFFCURVE",
"294 -155 OFFCURVE",
"294 -175 CURVE SMOOTH",
"294 -206 OFFCURVE",
"280 -237 OFFCURVE",
"260 -247 CURVE",
"260 -253 LINE",
"287 -272 LINE",
"288 -272 LINE",
"299 -268 OFFCURVE",
"363 -219 OFFCURVE",
"363 -138 CURVE SMOOTH"
);
}
);
width = 588;
},
{
anchors = (
{
name = mark0;
position = "{305, -83}";
}
);
layerId = "D0FF1146-32FF-444C-BC95-9626761FC64D";
paths = (
{
closed = 1;
nodes = (
"550 -11 OFFCURVE",
"600 123 OFFCURVE",
"600 219 CURVE SMOOTH",
"600 342 OFFCURVE",
"495 403 OFFCURVE",
"422 438 CURVE",
"331 484 OFFCURVE",
"243 523 OFFCURVE",
"243 596 CURVE SMOOTH",
"243 636 OFFCURVE",
"267 679 OFFCURVE",
"338 679 CURVE SMOOTH",
"378 679 OFFCURVE",
"407 667 OFFCURVE",
"413 657 CURVE",
"437 535 LINE",
"543 535 LINE",
"549 718 LINE",
"520 719 OFFCURVE",
"451 753 OFFCURVE",
"326 753 CURVE SMOOTH",
"127 753 OFFCURVE",
"52 648 OFFCURVE",
"52 543 CURVE SMOOTH",
"52 401 OFFCURVE",
"161 333 OFFCURVE",
"235 298 CURVE SMOOTH",
"338 249 OFFCURVE",
"399 215 OFFCURVE",
"399 154 CURVE SMOOTH",
"399 101 OFFCURVE",
"367 66 OFFCURVE",
"293 66 CURVE SMOOTH",
"238 66 OFFCURVE",
"205 82 OFFCURVE",
"195 96 CURVE",
"167 222 LINE",
"59 222 LINE",
"50 32 LINE",
"84 30 OFFCURVE",
"180 -11 OFFCURVE",
"306 -11 CURVE SMOOTH"
);
},
{
closed = 1;
nodes = (
"405 -70 OFFCURVE",
"370 -42 OFFCURVE",
"321 -42 CURVE SMOOTH",
"318 -42 LINE SMOOTH",
"282 -42 OFFCURVE",
"231 -57 OFFCURVE",
"231 -107 CURVE SMOOTH",
"231 -134 OFFCURVE",
"244 -150 OFFCURVE",
"255 -158 CURVE SMOOTH",
"263 -163 OFFCURVE",
"273 -172 OFFCURVE",
"273 -193 CURVE SMOOTH",
"273 -215 OFFCURVE",
"265 -247 OFFCURVE",
"252 -252 CURVE",
"255 -260 LINE",
"315 -273 LINE",
"317 -273 LINE",
"345 -263 OFFCURVE",
"404 -195 OFFCURVE",
"405 -123 CURVE SMOOTH"
);
}
);
width = 616;
}
);
unicode = 0218;
},
{
glyphname = Germandbls;
layers = (
{
layerId = UUID0;
paths = (
{
closed = 1;
nodes = (
"20 0 LINE",
"166 0 LINE",
"166 463 LINE SMOOTH",
"166 615 OFFCURVE",
"260 705 OFFCURVE",
"371 705 CURVE SMOOTH",
"461 705 OFFCURVE",
"504 672 OFFCURVE",
"523 652 CURVE",
"389 426 LINE",
"389 406 LINE",
"453 376 OFFCURVE",
"612 308 OFFCURVE",
"612 189 CURVE SMOOTH",
"612 77 OFFCURVE",
"555 36 OFFCURVE",
"487 36 CURVE SMOOTH",
"439 36 OFFCURVE",
"390 52 OFFCURVE",
"374 74 CURVE",
"357 200 LINE",
"306 200 LINE",
"300 30 LINE",
"327 27 OFFCURVE",
"392 -11 OFFCURVE",
"482 -11 CURVE SMOOTH",
"611 -11 OFFCURVE",
"693 85 OFFCURVE",
"693 207 CURVE SMOOTH",
"693 354 OFFCURVE",
"559 409 OFFCURVE",
"473 457 CURVE",
"601 661 LINE",
"601 696 LINE",
"548 728 OFFCURVE",
"487 751 OFFCURVE",
"396 751 CURVE SMOOTH",
"220 751 OFFCURVE",
"82 616 OFFCURVE",
"82 445 CURVE SMOOTH",
"82 52 LINE",
"20 42 LINE"
);
}
);
width = 717;
},
{
layerId = "D0FF1146-32FF-444C-BC95-9626761FC64D";
paths = (
{
closed = 1;
nodes = (
"6 0 LINE",
"253 0 LINE",
"253 456 LINE SMOOTH",
"253 596 OFFCURVE",
"303 680 OFFCURVE",
"412 680 CURVE SMOOTH",
"452 680 OFFCURVE",
"479 671 OFFCURVE",
"502 655 CURVE",
"368 457 LINE",
"368 411 LINE",
"490 401 OFFCURVE",
"557 284 OFFCURVE",
"557 204 CURVE SMOOTH",
"557 97 OFFCURVE",
"525 63 OFFCURVE",
"490 63 CURVE SMOOTH",
"470 63 OFFCURVE",
"450 70 OFFCURVE",
"441 84 CURVE",
"414 209 LINE",
"321 209 LINE",
"317 28 LINE",
"354 27 OFFCURVE",
"397 -12 OFFCURVE",
"502 -12 CURVE SMOOTH",
"672 -12 OFFCURVE",
"761 63 OFFCURVE",
"761 229 CURVE SMOOTH",
"761 387 OFFCURVE",
"628 451 OFFCURVE",
"503 465 CURVE",
"668 629 LINE",
"669 710 LINE",
"622 719 OFFCURVE",
"563 753 OFFCURVE",
"429 753 CURVE SMOOTH",
"195 753 OFFCURVE",
"57 642 OFFCURVE",
"57 443 CURVE SMOOTH",
"57 85 LINE",
"6 74 LINE"
);
}
);
width = 757;
}
);
unicode = 1E9E;
},
{
glyphname = Schwa;
layers = (
{
layerId = UUID0;
paths = (
{
closed = 1;
nodes = (
"482 -11 OFFCURVE",
"620 146 OFFCURVE",
"620 376 CURVE SMOOTH",
"620 599 OFFCURVE",
"505 751 OFFCURVE",
"324 751 CURVE SMOOTH",
"185 751 OFFCURVE",
"127 715 OFFCURVE",
"71 712 CURVE",
"65 569 LINE",
"118 569 LINE",
"136 649 LINE",
"165 673 OFFCURVE",
"213 702 OFFCURVE",
"308 702 CURVE SMOOTH",
"437 702 OFFCURVE",
"528 582 OFFCURVE",
"536 381 CURVE",
"53 381 LINE",
"48 358 OFFCURVE",
"48 325 OFFCURVE",
"48 284 CURVE",
"52 96 OFFCURVE",
"149 -11 OFFCURVE",
"299 -11 CURVE SMOOTH"
);
},
{
closed = 1;
nodes = (
"190 43 OFFCURVE",
"133 167 OFFCURVE",
"133 277 CURVE SMOOTH",
"133 296 OFFCURVE",
"134 314 OFFCURVE",
"137 332 CURVE",
"536 332 LINE",
"531 126 OFFCURVE",
"438 43 OFFCURVE",
"320 43 CURVE SMOOTH"
);
}
);
width = 655;
},
{
layerId = "D0FF1146-32FF-444C-BC95-9626761FC64D";
paths = (
{
closed = 1;
nodes = (
"532 -11 OFFCURVE",
"681 125 OFFCURVE",
"681 379 CURVE SMOOTH",
"681 625 OFFCURVE",
"538 751 OFFCURVE",
"342 751 CURVE SMOOTH",
"202 751 OFFCURVE",
"121 715 OFFCURVE",
"65 712 CURVE",
"66 542 LINE",
"205 536 LINE",
"223 601 LINE",
"241 640 OFFCURVE",
"249 676 OFFCURVE",
"326 676 CURVE SMOOTH",
"419 676 OFFCURVE",
"464 567 OFFCURVE",
"472 413 CURVE",
"41 414 LINE",
"35 388 OFFCURVE",
"30 323 OFFCURVE",
"30 278 CURVE",
"36 70 OFFCURVE",
"177 -11 OFFCURVE",
"327 -11 CURVE SMOOTH"
);
},
{
closed = 1;
nodes = (
"253 80 OFFCURVE",
"232 190 OFFCURVE",
"232 271 CURVE SMOOTH",
"232 292 OFFCURVE",
"232 305 OFFCURVE",
"233 323 CURVE",
"474 322 LINE",
"474 160 OFFCURVE",
"436 80 OFFCURVE",
"350 80 CURVE SMOOTH"
);
}
);
width = 702;
}
);
unicode = 018F;
},
{
glyphname = T;
layers = (
{
anchors = (
{
name = bottom;
position = "{340, 0}";
},
{
name = center;
position = "{340, 372}";
},
{
name = mark0;
position = "{348, -83}";
},
{
name = top;
position = "{340, 743}";
}
);
layerId = UUID0;
paths = (
{
closed = 1;
nodes = (
"164 43 LINE",
"164 0 LINE",
"524 0 LINE",
"524 43 LINE",
"381 52 LINE",
"381 698 LINE",
"574 692 LINE",
"602 489 LINE",
"655 489 LINE",
"644 743 LINE",
"35 743 LINE",
"18 489 LINE",
"73 489 LINE",
"105 692 LINE",
"295 698 LINE",
"295 52 LINE"
);
}
);
width = 679;
},
{
anchors = (
{
name = bottom;
position = "{371, 0}";
},
{
name = center;
position = "{371, 372}";
},
{
name = mark0;
position = "{372, -83}";
},
{
name = top;
position = "{371, 743}";
}
);
layerId = "D0FF1146-32FF-444C-BC95-9626761FC64D";
paths = (
{
closed = 1;
nodes = (
"145 74 LINE",
"145 0 LINE",
"612 0 LINE",
"612 74 LINE",
"474 86 LINE",
"474 659 LINE",
"570 654 LINE",
"619 424 LINE",
"721 424 LINE",
"708 743 LINE",
"31 743 LINE",
"15 424 LINE",
"123 424 LINE",
"169 654 LINE",
"271 659 LINE",
"271 86 LINE"
);
}
);
width = 741;
}
);
unicode = 0054;
},
{
glyphname = Tbar;
layers = (
{
layerId = UUID0;
paths = (
{
closed = 1;
nodes = (
"180 386 LINE",
"180 332 LINE",
"305 332 LINE",
"305 52 LINE",
"174 43 LINE",
"174 0 LINE",
"534 0 LINE",
"534 43 LINE",
"391 52 LINE",
"391 332 LINE",
"517 332 LINE",
"517 386 LINE",
"391 386 LINE",
"391 698 LINE",
"583 692 LINE",
"611 489 LINE",
"665 489 LINE",
"654 743 LINE",
"44 743 LINE",
"28 489 LINE",
"83 489 LINE",
"115 692 LINE",
"305 698 LINE",
"305 386 LINE"
);
}
);
width = 697;
},
{
layerId = "D0FF1146-32FF-444C-BC95-9626761FC64D";
paths = (
{
closed = 1;
nodes = (
"172 352 LINE",
"172 268 LINE",
"273 268 LINE",
"273 86 LINE",
"148 74 LINE",
"148 0 LINE",
"615 0 LINE",
"615 74 LINE",
"477 86 LINE",
"477 268 LINE",
"575 268 LINE",
"575 352 LINE",
"477 352 LINE",
"477 659 LINE",
"573 654 LINE",
"622 424 LINE",
"724 424 LINE",
"710 743 LINE",
"34 743 LINE",
"18 424 LINE",
"126 424 LINE",
"172 654 LINE",
"273 659 LINE",
"273 352 LINE"
);
}
);
width = 747;
}
);
unicode = 0166;
},
{
glyphname = Tcaron;
layers = (
{
anchors = (
{
name = mark0;
position = "{348, -83}";
}
);
layerId = UUID0;
paths = (
{
closed = 1;
nodes = (
"189 960 LINE",
"310 826 LINE",
"386 826 LINE",
"506 961 LINE",
"473 982 LINE",
"348 882 LINE",
"225 982 LINE"
);
},
{
closed = 1;
nodes = (
"164 43 LINE",
"164 0 LINE",
"524 0 LINE",
"524 43 LINE",
"381 52 LINE",
"381 698 LINE",
"574 692 LINE",
"602 489 LINE",
"655 489 LINE",
"644 743 LINE",
"35 743 LINE",
"18 489 LINE",
"73 489 LINE",
"105 692 LINE",
"295 698 LINE",
"295 52 LINE"
);
}
);
width = 679;
},
{
anchors = (
{
name = mark0;
position = "{372, -83}";
}
);
layerId = "D0FF1146-32FF-444C-BC95-9626761FC64D";
paths = (
{
closed = 1;
nodes = (
"175 931 LINE",
"324 789 LINE",
"426 789 LINE",
"584 930 LINE",
"523 983 LINE",
"375 898 LINE",
"237 983 LINE"
);
},
{
closed = 1;
nodes = (
"145 74 LINE",
"145 0 LINE",
"612 0 LINE",
"612 74 LINE",
"474 86 LINE",
"474 659 LINE",
"570 654 LINE",
"619 424 LINE",
"721 424 LINE",
"708 743 LINE",
"31 743 LINE",
"15 424 LINE",
"123 424 LINE",
"169 654 LINE",
"271 659 LINE",
"271 86 LINE"
);
}
);
width = 741;
}
);
unicode = 0164;
},
{
glyphname = Tcommaaccent;
layers = (
{
anchors = (
{
name = mark0;
position = "{348, -83}";
}
);
layerId = UUID0;
paths = (
{
closed = 1;
nodes = (
"164 43 LINE",
"164 0 LINE",
"524 0 LINE",
"524 43 LINE",
"381 52 LINE",
"381 698 LINE",
"574 692 LINE",
"602 489 LINE",
"655 489 LINE",
"644 743 LINE",
"35 743 LINE",
"18 489 LINE",
"73 489 LINE",
"105 692 LINE",
"295 698 LINE",
"295 52 LINE"
);
},
{
closed = 1;
nodes = (
"415 -86 OFFCURVE",
"391 -58 OFFCURVE",
"354 -58 CURVE SMOOTH",
"350 -58 LINE SMOOTH",
"338 -58 OFFCURVE",
"306 -65 OFFCURVE",
"306 -102 CURVE SMOOTH",
"306 -123 OFFCURVE",
"315 -132 OFFCURVE",
"325 -139 CURVE SMOOTH",
"335 -146 OFFCURVE",
"346 -155 OFFCURVE",
"346 -175 CURVE SMOOTH",
"346 -206 OFFCURVE",
"332 -237 OFFCURVE",
"312 -247 CURVE",
"312 -253 LINE",
"339 -272 LINE",
"340 -272 LINE",
"351 -268 OFFCURVE",
"415 -219 OFFCURVE",
"415 -138 CURVE SMOOTH"
);
}
);
width = 679;
},
{
anchors = (
{
name = mark0;
position = "{372, -83}";
}
);
layerId = "D0FF1146-32FF-444C-BC95-9626761FC64D";
paths = (
{
closed = 1;
nodes = (
"145 74 LINE",
"145 0 LINE",
"612 0 LINE",
"612 74 LINE",
"474 86 LINE",
"474 659 LINE",
"570 654 LINE",
"619 424 LINE",
"721 424 LINE",
"708 743 LINE",
"31 743 LINE",
"15 424 LINE",
"123 424 LINE",
"169 654 LINE",
"271 659 LINE",
"271 86 LINE"
);
},
{
closed = 1;
nodes = (
"459 -70 OFFCURVE",
"424 -42 OFFCURVE",
"375 -42 CURVE SMOOTH",
"372 -42 LINE SMOOTH",
"336 -42 OFFCURVE",
"285 -57 OFFCURVE",
"285 -107 CURVE SMOOTH",
"285 -134 OFFCURVE",
"298 -150 OFFCURVE",
"309 -158 CURVE SMOOTH",
"317 -163 OFFCURVE",
"327 -172 OFFCURVE",
"327 -193 CURVE SMOOTH",
"327 -215 OFFCURVE",
"319 -247 OFFCURVE",
"306 -252 CURVE",
"309 -260 LINE",
"369 -273 LINE",
"371 -273 LINE",
"399 -263 OFFCURVE",
"458 -195 OFFCURVE",
"459 -123 CURVE SMOOTH"
);
}
);
width = 741;
}
);
unicode = 021A;
},
{
glyphname = U;
layers = (
{
anchors = (
{
name = bottom;
position = "{369, 0}";
},
{
name = mark0;
position = "{385, -83}";
},
{
name = ogonek;
position = "{664, 10}";
},
{
name = top;
position = "{399, 743}";
},
{
name = topright;
position = "{718, 743}";
}
);
layerId = UUID0;
paths = (
{
closed = 1;
nodes = (
"531 -8 OFFCURVE",
"644 88 OFFCURVE",
"644 305 CURVE SMOOTH",
"644 689 LINE",
"720 700 LINE",
"720 743 LINE",
"498 743 LINE",
"498 700 LINE",
"581 688 LINE",
"581 301 LINE SMOOTH",
"581 131 OFFCURVE",
"515 41 OFFCURVE",
"387 41 CURVE SMOOTH",
"270 41 OFFCURVE",
"186 102 OFFCURVE",
"186 309 CURVE SMOOTH",
"186 689 LINE",
"272 700 LINE",
"272 743 LINE",
"27 743 LINE",
"27 700 LINE",
"102 689 LINE",
"102 318 LINE SMOOTH",
"102 97 OFFCURVE",
"186 -8 OFFCURVE",
"379 -8 CURVE SMOOTH"
);
}
);
width = 738;
},
{
anchors = (
{
name = bottom;
position = "{374, 0}";
},
{
name = mark0;
position = "{368, -83}";
},
{
name = ogonek;
position = "{672, 10}";
},
{
name = top;
position = "{414, 743}";
},
{
name = topright;
position = "{727, 743}";
}
);
layerId = "D0FF1146-32FF-444C-BC95-9626761FC64D";
paths = (
{
closed = 1;
nodes = (
"559 -8 OFFCURVE",
"681 75 OFFCURVE",
"681 292 CURVE SMOOTH",
"681 649 LINE",
"743 664 LINE",
"743 743 LINE",
"469 743 LINE",
"469 664 LINE",
"557 649 LINE",
"557 281 LINE SMOOTH",
"557 162 OFFCURVE",
"523 69 OFFCURVE",
"421 69 CURVE SMOOTH",
"316 69 OFFCURVE",
"280 156 OFFCURVE",
"280 281 CURVE SMOOTH",
"280 647 LINE",
"363 664 LINE",
"363 743 LINE",
"12 743 LINE",
"12 664 LINE",
"70 649 LINE",
"70 297 LINE SMOOTH",
"70 81 OFFCURVE",
"182 -8 OFFCURVE",
"390 -8 CURVE SMOOTH"
);
}
);
width = 747;
}
);
unicode = 0055;
},
{
glyphname = Ubreve;
layers = (
{
anchors = (
{
name = mark0;
position = "{385, -83}";
}
);
layerId = UUID0;
paths = (
{
closed = 1;
nodes = (
"488 808 OFFCURVE",
"547 872 OFFCURVE",
"547 955 CURVE SMOOTH",
"547 961 OFFCURVE",
"547 967 OFFCURVE",
"546 974 CURVE",
"502 974 LINE",
"502 971 OFFCURVE",
"502 967 OFFCURVE",
"501 961 CURVE SMOOTH",
"498 925 OFFCURVE",
"472 874 OFFCURVE",
"389 874 CURVE SMOOTH",
"306 874 OFFCURVE",
"279 924 OFFCURVE",
"275 960 CURVE SMOOTH",
"274 966 OFFCURVE",
"274 971 OFFCURVE",
"274 974 CURVE",
"228 974 LINE",
"227 967 OFFCURVE",
"227 961 OFFCURVE",
"227 954 CURVE SMOOTH",
"227 872 OFFCURVE",
"285 808 OFFCURVE",
"389 808 CURVE SMOOTH"
);
},
{
closed = 1;
nodes = (
"531 -8 OFFCURVE",
"644 88 OFFCURVE",
"644 305 CURVE SMOOTH",
"644 689 LINE",
"720 700 LINE",
"720 743 LINE",
"498 743 LINE",
"498 700 LINE",
"581 688 LINE",
"581 301 LINE SMOOTH",
"581 131 OFFCURVE",
"515 41 OFFCURVE",
"387 41 CURVE SMOOTH",
"270 41 OFFCURVE",
"186 102 OFFCURVE",
"186 309 CURVE SMOOTH",
"186 689 LINE",
"272 700 LINE",
"272 743 LINE",
"27 743 LINE",
"27 700 LINE",
"102 689 LINE",
"102 318 LINE SMOOTH",
"102 97 OFFCURVE",
"186 -8 OFFCURVE",
"379 -8 CURVE SMOOTH"
);
}
);
width = 738;
},
{
anchors = (
{
name = mark0;
position = "{368, -83}";
}
);
layerId = "D0FF1146-32FF-444C-BC95-9626761FC64D";
paths = (
{
closed = 1;
nodes = (
"527 789 OFFCURVE",
"593 871 OFFCURVE",
"593 959 CURVE SMOOTH",
"593 967 OFFCURVE",
"593 974 OFFCURVE",
"592 981 CURVE",
"499 981 LINE",
"499 979 OFFCURVE",
"499 975 OFFCURVE",
"498 971 CURVE SMOOTH",
"495 943 OFFCURVE",
"476 902 OFFCURVE",
"397 902 CURVE SMOOTH",
"317 902 OFFCURVE",
"295 944 OFFCURVE",
"291 971 CURVE SMOOTH",
"290 975 OFFCURVE",
"290 979 OFFCURVE",
"290 981 CURVE",
"199 981 LINE",
"198 974 OFFCURVE",
"198 966 OFFCURVE",
"198 958 CURVE SMOOTH",
"198 870 OFFCURVE",
"261 789 OFFCURVE",
"396 789 CURVE SMOOTH"
);
},
{
closed = 1;
nodes = (
"559 -8 OFFCURVE",
"681 75 OFFCURVE",
"681 292 CURVE SMOOTH",
"681 649 LINE",
"743 664 LINE",
"743 743 LINE",
"469 743 LINE",
"469 664 LINE",
"557 649 LINE",
"557 281 LINE SMOOTH",
"557 162 OFFCURVE",
"523 69 OFFCURVE",
"421 69 CURVE SMOOTH",
"316 69 OFFCURVE",
"280 156 OFFCURVE",
"280 281 CURVE SMOOTH",
"280 647 LINE",
"363 664 LINE",
"363 743 LINE",
"12 743 LINE",
"12 664 LINE",
"70 649 LINE",
"70 297 LINE SMOOTH",
"70 81 OFFCURVE",
"182 -8 OFFCURVE",
"390 -8 CURVE SMOOTH"
);
}
);
width = 747;
}
);
unicode = 016C;
},
{
glyphname = Ucircumflex;
layers = (
{
anchors = (
{
name = mark0;
position = "{385, -83}";
}
);
layerId = UUID0;
paths = (
{
closed = 1;
nodes = (
"222 838 LINE",
"255 817 LINE",
"388 923 LINE",
"518 817 LINE",
"554 839 LINE",
"425 983 LINE",
"350 983 LINE"
);
},
{
closed = 1;
nodes = (
"531 -8 OFFCURVE",
"644 88 OFFCURVE",
"644 305 CURVE SMOOTH",
"644 689 LINE",
"720 700 LINE",
"720 743 LINE",
"498 743 LINE",
"498 700 LINE",
"581 688 LINE",
"581 301 LINE SMOOTH",
"581 131 OFFCURVE",
"515 41 OFFCURVE",
"387 41 CURVE SMOOTH",
"270 41 OFFCURVE",
"186 102 OFFCURVE",
"186 309 CURVE SMOOTH",
"186 689 LINE",
"272 700 LINE",
"272 743 LINE",
"27 743 LINE",
"27 700 LINE",
"102 689 LINE",
"102 318 LINE SMOOTH",
"102 97 OFFCURVE",
"186 -8 OFFCURVE",
"379 -8 CURVE SMOOTH"
);
}
);
width = 738;
},
{
anchors = (
{
name = mark0;
position = "{368, -83}";
}
);
layerId = "D0FF1146-32FF-444C-BC95-9626761FC64D";
paths = (
{
closed = 1;
nodes = (
"184 832 LINE",
"245 779 LINE",
"393 870 LINE",
"541 779 LINE",
"602 833 LINE",
"445 979 LINE",
"343 979 LINE"
);
},
{
closed = 1;
nodes = (
"559 -8 OFFCURVE",
"681 75 OFFCURVE",
"681 292 CURVE SMOOTH",
"681 649 LINE",
"743 664 LINE",
"743 743 LINE",
"469 743 LINE",
"469 664 LINE",
"557 649 LINE",
"557 281 LINE SMOOTH",
"557 162 OFFCURVE",
"523 69 OFFCURVE",
"421 69 CURVE SMOOTH",
"316 69 OFFCURVE",
"280 156 OFFCURVE",
"280 281 CURVE SMOOTH",
"280 647 LINE",
"363 664 LINE",
"363 743 LINE",
"12 743 LINE",
"12 664 LINE",
"70 649 LINE",
"70 297 LINE SMOOTH",
"70 81 OFFCURVE",
"182 -8 OFFCURVE",
"390 -8 CURVE SMOOTH"
);
}
);
width = 747;
}
);
unicode = 00DB;
},
{
glyphname = Udieresis;
layers = (
{
anchors = (
{
name = mark0;
position = "{385, -83}";
}
);
layerId = UUID0;
paths = (
{
closed = 1;
nodes = (
"266 834 LINE",
"307 834 OFFCURVE",
"327 864 OFFCURVE",
"327 899 CURVE SMOOTH",
"327 928 OFFCURVE",
"307 958 OFFCURVE",
"274 958 CURVE",
"273 958 LINE",
"234 958 OFFCURVE",
"215 925 OFFCURVE",
"215 891 CURVE SMOOTH",
"215 860 OFFCURVE",
"234 834 OFFCURVE",
"265 834 CURVE"
);
},
{
closed = 1;
nodes = (
"544 834 OFFCURVE",
"564 864 OFFCURVE",
"564 899 CURVE SMOOTH",
"564 928 OFFCURVE",
"546 958 OFFCURVE",
"512 958 CURVE",
"511 958 LINE",
"472 958 OFFCURVE",
"453 925 OFFCURVE",
"453 891 CURVE SMOOTH",
"453 860 OFFCURVE",
"472 834 OFFCURVE",
"503 834 CURVE SMOOTH"
);
},
{
closed = 1;
nodes = (
"531 -8 OFFCURVE",
"644 88 OFFCURVE",
"644 305 CURVE SMOOTH",
"644 689 LINE",
"720 700 LINE",
"720 743 LINE",
"498 743 LINE",
"498 700 LINE",
"581 688 LINE",
"581 301 LINE SMOOTH",
"581 131 OFFCURVE",
"515 41 OFFCURVE",
"387 41 CURVE SMOOTH",
"270 41 OFFCURVE",
"186 102 OFFCURVE",
"186 309 CURVE SMOOTH",
"186 689 LINE",
"272 700 LINE",
"272 743 LINE",
"27 743 LINE",
"27 700 LINE",
"102 689 LINE",
"102 318 LINE SMOOTH",
"102 97 OFFCURVE",
"186 -8 OFFCURVE",
"379 -8 CURVE SMOOTH"
);
}
);
width = 738;
},
{
anchors = (
{
name = mark0;
position = "{368, -83}";
}
);
layerId = "D0FF1146-32FF-444C-BC95-9626761FC64D";
paths = (
{
closed = 1;
nodes = (
"247 794 LINE",
"321 794 OFFCURVE",
"353 838 OFFCURVE",
"353 894 CURVE SMOOTH",
"353 938 OFFCURVE",
"326 977 OFFCURVE",
"264 977 CURVE",
"263 977 LINE",
"197 977 OFFCURVE",
"167 934 OFFCURVE",
"167 878 CURVE SMOOTH",
"167 833 OFFCURVE",
"200 794 OFFCURVE",
"246 794 CURVE"
);
},
{
closed = 1;
nodes = (
"590 794 OFFCURVE",
"621 838 OFFCURVE",
"621 894 CURVE SMOOTH",
"621 938 OFFCURVE",
"595 977 OFFCURVE",
"532 977 CURVE",
"531 977 LINE",
"465 977 OFFCURVE",
"436 934 OFFCURVE",
"436 878 CURVE SMOOTH",
"436 839 OFFCURVE",
"468 794 OFFCURVE",
"515 794 CURVE SMOOTH"
);
},
{
closed = 1;
nodes = (
"559 -8 OFFCURVE",
"681 75 OFFCURVE",
"681 292 CURVE SMOOTH",
"681 649 LINE",
"743 664 LINE",
"743 743 LINE",
"469 743 LINE",
"469 664 LINE",
"557 649 LINE",
"557 281 LINE SMOOTH",
"557 162 OFFCURVE",
"523 69 OFFCURVE",
"421 69 CURVE SMOOTH",
"316 69 OFFCURVE",
"280 156 OFFCURVE",
"280 281 CURVE SMOOTH",
"280 647 LINE",
"363 664 LINE",
"363 743 LINE",
"12 743 LINE",
"12 664 LINE",
"70 649 LINE",
"70 297 LINE SMOOTH",
"70 81 OFFCURVE",
"182 -8 OFFCURVE",
"390 -8 CURVE SMOOTH"
);
}
);
width = 747;
}
);
unicode = 00DC;
},
{
color = 9;
glyphname = Uhorn;
layers = (
{
anchors = (
{
name = _topright;
position = "{718, 743}";
},
{
name = bottom;
position = "{369, 0}";
},
{
name = mark0;
position = "{385, -83}";
},
{
name = ogonek;
position = "{664, 10}";
},
{
name = top;
position = "{369, 743}";
},
{
name = topright;
position = "{682, 743}";
}
);
layerId = UUID0;
paths = (
{
closed = 1;
nodes = (
"531 -8 OFFCURVE",
"644 88 OFFCURVE",
"644 305 CURVE SMOOTH",
"644 743 LINE",
"498 743 LINE",
"498 700 LINE",
"581 688 LINE",
"581 301 LINE SMOOTH",
"581 131 OFFCURVE",
"515 41 OFFCURVE",
"387 41 CURVE SMOOTH",
"270 41 OFFCURVE",
"186 102 OFFCURVE",
"186 309 CURVE SMOOTH",
"186 689 LINE",
"272 700 LINE",
"272 743 LINE",
"27 743 LINE",
"27 700 LINE",
"102 689 LINE",
"102 318 LINE SMOOTH",
"102 97 OFFCURVE",
"186 -8 OFFCURVE",
"379 -8 CURVE SMOOTH"
);
},
{
closed = 1;
nodes = (
"710 686 OFFCURVE",
"797 766 OFFCURVE",
"797 852 CURVE SMOOTH",
"797 859 OFFCURVE",
"796 866 OFFCURVE",
"795 874 CURVE",
"725 874 LINE",
"726 870 OFFCURVE",
"725 864 OFFCURVE",
"724 857 CURVE SMOOTH",
"718 816 OFFCURVE",
"695 743 OFFCURVE",
"613 743 CURVE",
"613 686 LINE"
);
}
);
width = 738;
},
{
anchors = (
{
name = _topright;
position = "{727, 743}";
},
{
name = bottom;
position = "{374, 0}";
},
{
name = mark0;
position = "{368, -83}";
},
{
name = ogonek;
position = "{672, 10}";
},
{
name = top;
position = "{374, 743}";
},
{
name = topright;
position = "{727, 743}";
}
);
layerId = "D0FF1146-32FF-444C-BC95-9626761FC64D";
paths = (
{
closed = 1;
nodes = (
"559 -8 OFFCURVE",
"681 75 OFFCURVE",
"681 292 CURVE SMOOTH",
"681 743 LINE",
"469 743 LINE",
"469 664 LINE",
"557 649 LINE",
"557 281 LINE SMOOTH",
"557 162 OFFCURVE",
"523 69 OFFCURVE",
"421 69 CURVE SMOOTH",
"316 69 OFFCURVE",
"280 156 OFFCURVE",
"280 281 CURVE SMOOTH",
"280 647 LINE",
"363 664 LINE",
"363 743 LINE",
"12 743 LINE",
"12 664 LINE",
"70 649 LINE",
"70 297 LINE SMOOTH",
"70 81 OFFCURVE",
"182 -8 OFFCURVE",
"390 -8 CURVE SMOOTH"
);
},
{
closed = 1;
nodes = (
"696 628 OFFCURVE",
"829 696 OFFCURVE",
"829 840 CURVE SMOOTH",
"829 847 OFFCURVE",
"828 854 OFFCURVE",
"827 862 CURVE",
"711 862 LINE",
"712 858 OFFCURVE",
"711 852 OFFCURVE",
"710 845 CURVE SMOOTH",
"704 804 OFFCURVE",
"681 743 OFFCURVE",
"599 743 CURVE",
"599 628 LINE"
);
}
);
width = 747;
}
);
unicode = 01AF;
},
{
glyphname = Uhungarumlaut;
layers = (
{
anchors = (
{
name = mark0;
position = "{385, -83}";
}
);
layerId = UUID0;
paths = (
{
closed = 1;
nodes = (
"212 839 LINE",
"247 809 LINE",
"293 838 OFFCURVE",
"356 885 OFFCURVE",
"401 936 CURVE",
"344 982 LINE"
);
},
{
closed = 1;
nodes = (
"449 840 LINE",
"484 809 LINE",
"532 837 OFFCURVE",
"601 886 OFFCURVE",
"642 932 CURVE",
"591 980 LINE"
);
},
{
closed = 1;
nodes = (
"531 -8 OFFCURVE",
"644 88 OFFCURVE",
"644 305 CURVE SMOOTH",
"644 689 LINE",
"720 700 LINE",
"720 743 LINE",
"498 743 LINE",
"498 700 LINE",
"581 688 LINE",
"581 301 LINE SMOOTH",
"581 131 OFFCURVE",
"515 41 OFFCURVE",
"387 41 CURVE SMOOTH",
"270 41 OFFCURVE",
"186 102 OFFCURVE",
"186 309 CURVE SMOOTH",
"186 689 LINE",
"272 700 LINE",
"272 743 LINE",
"27 743 LINE",
"27 700 LINE",
"102 689 LINE",
"102 318 LINE SMOOTH",
"102 97 OFFCURVE",
"186 -8 OFFCURVE",
"379 -8 CURVE SMOOTH"
);
}
);
width = 738;
},
{
anchors = (
{
name = mark0;
position = "{368, -83}";
}
);
layerId = "D0FF1146-32FF-444C-BC95-9626761FC64D";
paths = (
{
closed = 1;
nodes = (
"181 835 LINE",
"254 774 LINE",
"303 798 OFFCURVE",
"383 857 OFFCURVE",
"425 910 CURVE",
"325 983 LINE"
);
},
{
closed = 1;
nodes = (
"464 835 LINE",
"538 774 LINE",
"588 797 OFFCURVE",
"675 864 OFFCURVE",
"708 912 CURVE",
"611 983 LINE"
);
},
{
closed = 1;
nodes = (
"559 -8 OFFCURVE",
"681 75 OFFCURVE",
"681 292 CURVE SMOOTH",
"681 649 LINE",
"743 664 LINE",
"743 743 LINE",
"469 743 LINE",
"469 664 LINE",
"557 649 LINE",
"557 281 LINE SMOOTH",
"557 162 OFFCURVE",
"523 69 OFFCURVE",
"421 69 CURVE SMOOTH",
"316 69 OFFCURVE",
"280 156 OFFCURVE",
"280 281 CURVE SMOOTH",
"280 647 LINE",
"363 664 LINE",
"363 743 LINE",
"12 743 LINE",
"12 664 LINE",
"70 649 LINE",
"70 297 LINE SMOOTH",
"70 81 OFFCURVE",
"182 -8 OFFCURVE",
"390 -8 CURVE SMOOTH"
);
}
);
width = 747;
}
);
unicode = 0170;
},
{
glyphname = Umacron;
layers = (
{
anchors = (
{
name = mark0;
position = "{385, -83}";
}
);
layerId = UUID0;
paths = (
{
closed = 1;
nodes = (
"259 920 LINE",
"259 859 LINE",
"522 859 LINE",
"522 920 LINE"
);
},
{
closed = 1;
nodes = (
"531 -8 OFFCURVE",
"644 88 OFFCURVE",
"644 305 CURVE SMOOTH",
"644 689 LINE",
"720 700 LINE",
"720 743 LINE",
"498 743 LINE",
"498 700 LINE",
"581 688 LINE",
"581 301 LINE SMOOTH",
"581 131 OFFCURVE",
"515 41 OFFCURVE",
"387 41 CURVE SMOOTH",
"270 41 OFFCURVE",
"186 102 OFFCURVE",
"186 309 CURVE SMOOTH",
"186 689 LINE",
"272 700 LINE",
"272 743 LINE",
"27 743 LINE",
"27 700 LINE",
"102 689 LINE",
"102 318 LINE SMOOTH",
"102 97 OFFCURVE",
"186 -8 OFFCURVE",
"379 -8 CURVE SMOOTH"
);
}
);
width = 738;
},
{
anchors = (
{
name = mark0;
position = "{368, -83}";
}
);
layerId = "D0FF1146-32FF-444C-BC95-9626761FC64D";
paths = (
{
closed = 1;
nodes = (
"224 937 LINE",
"224 829 LINE",
"564 829 LINE",
"564 937 LINE"
);
},
{
closed = 1;
nodes = (
"559 -8 OFFCURVE",
"681 75 OFFCURVE",
"681 292 CURVE SMOOTH",
"681 649 LINE",
"743 664 LINE",
"743 743 LINE",
"469 743 LINE",
"469 664 LINE",
"557 649 LINE",
"557 281 LINE SMOOTH",
"557 162 OFFCURVE",
"523 69 OFFCURVE",
"421 69 CURVE SMOOTH",
"316 69 OFFCURVE",
"280 156 OFFCURVE",
"280 281 CURVE SMOOTH",
"280 647 LINE",
"363 664 LINE",
"363 743 LINE",
"12 743 LINE",
"12 664 LINE",
"70 649 LINE",
"70 297 LINE SMOOTH",
"70 81 OFFCURVE",
"182 -8 OFFCURVE",
"390 -8 CURVE SMOOTH"
);
}
);
width = 747;
}
);
unicode = 016A;
},
{
glyphname = Uogonek;
layers = (
{
layerId = UUID0;
paths = (
{
closed = 1;
nodes = (
"384 -8 OFFCURVE",
"388 -8 OFFCURVE",
"392 -7 CURVE",
"327 -40 OFFCURVE",
"271 -104 OFFCURVE",
"271 -155 CURVE SMOOTH",
"271 -226 OFFCURVE",
"331 -249 OFFCURVE",
"393 -249 CURVE SMOOTH",
"434 -249 OFFCURVE",
"478 -236 OFFCURVE",
"505 -215 CURVE",
"505 -173 LINE",
"482 -185 OFFCURVE",
"454 -193 OFFCURVE",
"427 -193 CURVE SMOOTH",
"386 -193 OFFCURVE",
"350 -176 OFFCURVE",
"350 -128 CURVE SMOOTH",
"350 -87 OFFCURVE",
"402 -31 OFFCURVE",
"466 4 CURVE",
"572 36 OFFCURVE",
"644 132 OFFCURVE",
"644 305 CURVE SMOOTH",
"644 689 LINE",
"720 700 LINE",
"720 743 LINE",
"498 743 LINE",
"498 700 LINE",
"581 688 LINE",
"581 301 LINE SMOOTH",
"581 131 OFFCURVE",
"515 41 OFFCURVE",
"387 41 CURVE SMOOTH",
"270 41 OFFCURVE",
"186 102 OFFCURVE",
"186 309 CURVE SMOOTH",
"186 689 LINE",
"272 700 LINE",
"272 743 LINE",
"27 743 LINE",
"27 700 LINE",
"102 689 LINE",
"102 318 LINE SMOOTH",
"102 97 OFFCURVE",
"186 -8 OFFCURVE",
"379 -8 CURVE SMOOTH"
);
}
);
width = 738;
},
{
layerId = "D0FF1146-32FF-444C-BC95-9626761FC64D";
paths = (
{
closed = 1;
nodes = (
"402 -8 OFFCURVE",
"414 -7 OFFCURVE",
"426 -6 CURVE",
"371 -33 OFFCURVE",
"303 -88 OFFCURVE",
"303 -149 CURVE SMOOTH",
"303 -220 OFFCURVE",
"366 -251 OFFCURVE",
"438 -251 CURVE SMOOTH",
"480 -251 OFFCURVE",
"538 -239 OFFCURVE",
"566 -218 CURVE",
"566 -139 LINE",
"543 -148 OFFCURVE",
"535 -150 OFFCURVE",
"511 -150 CURVE SMOOTH",
"473 -150 OFFCURVE",
"453 -121 OFFCURVE",
"453 -93 CURVE SMOOTH",
"453 -57 OFFCURVE",
"484 -21 OFFCURVE",
"531 18 CURVE",
"623 57 OFFCURVE",
"681 143 OFFCURVE",
"681 292 CURVE SMOOTH",
"681 649 LINE",
"743 664 LINE",
"743 743 LINE",
"469 743 LINE",
"469 664 LINE",
"557 649 LINE",
"557 281 LINE SMOOTH",
"557 162 OFFCURVE",
"523 69 OFFCURVE",
"421 69 CURVE SMOOTH",
"316 69 OFFCURVE",
"280 156 OFFCURVE",
"280 281 CURVE SMOOTH",
"280 647 LINE",
"363 664 LINE",
"363 743 LINE",
"12 743 LINE",
"12 664 LINE",
"70 649 LINE",
"70 297 LINE SMOOTH",
"70 81 OFFCURVE",
"182 -8 OFFCURVE",
"390 -8 CURVE SMOOTH"
);
}
);
width = 747;
}
);
unicode = 0172;
},
{
glyphname = Utilde;
layers = (
{
anchors = (
{
name = mark0;
position = "{385, -83}";
}
);
layerId = UUID0;
paths = (
{
closed = 1;
nodes = (
"531 833 OFFCURVE",
"570 882 OFFCURVE",
"586 934 CURVE",
"544 957 LINE",
"535 937 OFFCURVE",
"519 893 OFFCURVE",
"472 893 CURVE SMOOTH",
"414 893 OFFCURVE",
"402 978 OFFCURVE",
"322 978 CURVE SMOOTH",
"252 978 OFFCURVE",
"202 920 OFFCURVE",
"191 877 CURVE",
"233 854 LINE",
"242 874 OFFCURVE",
"262 918 OFFCURVE",
"309 918 CURVE SMOOTH",
"370 918 OFFCURVE",
"386 833 OFFCURVE",
"466 833 CURVE SMOOTH"
);
},
{
closed = 1;
nodes = (
"531 -8 OFFCURVE",
"644 88 OFFCURVE",
"644 305 CURVE SMOOTH",
"644 689 LINE",
"720 700 LINE",
"720 743 LINE",
"498 743 LINE",
"498 700 LINE",
"581 688 LINE",
"581 301 LINE SMOOTH",
"581 131 OFFCURVE",
"515 41 OFFCURVE",
"387 41 CURVE SMOOTH",
"270 41 OFFCURVE",
"186 102 OFFCURVE",
"186 309 CURVE SMOOTH",
"186 689 LINE",
"272 700 LINE",
"272 743 LINE",
"27 743 LINE",
"27 700 LINE",
"102 689 LINE",
"102 318 LINE SMOOTH",
"102 97 OFFCURVE",
"186 -8 OFFCURVE",
"379 -8 CURVE SMOOTH"
);
}
);
width = 738;
},
{
anchors = (
{
name = mark0;
position = "{368, -83}";
}
);
layerId = "D0FF1146-32FF-444C-BC95-9626761FC64D";
paths = (
{
closed = 1;
nodes = (
"559 795 OFFCURVE",
"603 848 OFFCURVE",
"633 901 CURVE",
"581 954 LINE",
"562 933 OFFCURVE",
"546 907 OFFCURVE",
"501 907 CURVE SMOOTH",
"441 907 OFFCURVE",
"404 980 OFFCURVE",
"315 980 CURVE SMOOTH",
"227 980 OFFCURVE",
"178 917 OFFCURVE",
"155 875 CURVE",
"207 822 LINE",
"223 839 OFFCURVE",
"247 869 OFFCURVE",
"286 869 CURVE SMOOTH",
"350 869 OFFCURVE",
"395 795 OFFCURVE",
"480 795 CURVE SMOOTH"
);
},
{
closed = 1;
nodes = (
"559 -8 OFFCURVE",
"681 75 OFFCURVE",
"681 292 CURVE SMOOTH",
"681 649 LINE",
"743 664 LINE",
"743 743 LINE",
"469 743 LINE",
"469 664 LINE",
"557 649 LINE",
"557 281 LINE SMOOTH",
"557 162 OFFCURVE",
"523 69 OFFCURVE",
"421 69 CURVE SMOOTH",
"316 69 OFFCURVE",
"280 156 OFFCURVE",
"280 281 CURVE SMOOTH",
"280 647 LINE",
"363 664 LINE",
"363 743 LINE",
"12 743 LINE",
"12 664 LINE",
"70 649 LINE",
"70 297 LINE SMOOTH",
"70 81 OFFCURVE",
"182 -8 OFFCURVE",
"390 -8 CURVE SMOOTH"
);
}
);
width = 747;
}
);
unicode = 0168;
},
{
glyphname = V;
layers = (
{
anchors = (
{
name = mark0;
position = "{343, -83}";
}
);
layerId = UUID0;
paths = (
{
closed = 1;
nodes = (
"47 689 LINE",
"309 -8 LINE",
"375 -8 LINE",
"613 689 LINE",
"677 700 LINE",
"677 743 LINE",
"466 743 LINE",
"466 700 LINE",
"546 689 LINE",
"393 209 LINE",
"355 71 LINE",
"313 207 LINE",
"136 689 LINE",
"228 700 LINE",
"228 743 LINE",
"-15 743 LINE",
"-15 700 LINE"
);
}
);
width = 660;
},
{
anchors = (
{
name = mark0;
position = "{331, -83}";
}
);
layerId = "D0FF1146-32FF-444C-BC95-9626761FC64D";
paths = (
{
closed = 1;
nodes = (
"37 649 LINE",
"283 -7 LINE",
"448 -7 LINE",
"669 649 LINE",
"734 664 LINE",
"734 743 LINE",
"464 743 LINE",
"464 664 LINE",
"542 649 LINE",
"417 232 LINE",
"403 161 LINE",
"385 232 LINE",
"258 650 LINE",
"336 664 LINE",
"336 743 LINE",
"-21 743 LINE",
"-21 664 LINE"
);
}
);
width = 710;
}
);
unicode = 0056;
},
{
glyphname = W;
layers = (
{
anchors = (
{
name = bottom;
position = "{495, 0}";
},
{
name = mark0;
position = "{487, -83}";
},
{
name = top;
position = "{495, 743}";
}
);
layerId = UUID0;
paths = (
{
closed = 1;
nodes = (
"49 688 LINE",
"265 -5 LINE",
"338 -5 LINE",
"497 518 LINE",
"659 -5 LINE",
"736 -5 LINE",
"941 689 LINE",
"1008 700 LINE",
"1008 743 LINE",
"771 743 LINE",
"771 700 LINE",
"876 689 LINE",
"743 214 LINE",
"710 44 LINE",
"671 214 LINE",
"530 689 LINE",
"629 700 LINE",
"629 743 LINE",
"369 743 LINE",
"369 700 LINE",
"443 689 LINE",
"470 605 LINE",
"350 214 LINE",
"311 56 LINE",
"278 214 LINE",
"133 689 LINE",
"231 700 LINE",
"231 743 LINE",
"-21 743 LINE",
"-21 700 LINE"
);
}
);
width = 989;
},
{
anchors = (
{
name = bottom;
position = "{521, 0}";
},
{
name = mark0;
position = "{453, -83}";
},
{
name = top;
position = "{521, 743}";
}
);
layerId = "D0FF1146-32FF-444C-BC95-9626761FC64D";
paths = (
{
closed = 1;
nodes = (
"37 649 LINE",
"235 -5 LINE",
"414 -5 LINE",
"522 413 LINE",
"640 -5 LINE",
"820 -5 LINE",
"997 649 LINE",
"1058 664 LINE",
"1058 743 LINE",
"813 743 LINE",
"813 664 LINE",
"891 649 LINE",
"793 220 LINE",
"782 143 LINE",
"766 220 LINE",
"654 649 LINE",
"748 664 LINE",
"748 743 LINE",
"388 743 LINE",
"388 664 LINE",
"447 649 LINE",
"476 563 LINE",
"381 220 LINE",
"372 150 LINE",
"358 220 LINE",
"248 649 LINE",
"326 664 LINE",
"326 743 LINE",
"-17 743 LINE",
"-17 664 LINE"
);
}
);
width = 1042;
}
);
unicode = 0057;
},
{
glyphname = Wcircumflex;
layers = (
{
anchors = (
{
name = mark0;
position = "{487, -83}";
}
);
layerId = UUID0;
paths = (
{
closed = 1;
nodes = (
"326 838 LINE",
"359 817 LINE",
"492 923 LINE",
"622 817 LINE",
"658 839 LINE",
"529 983 LINE",
"454 983 LINE"
);
},
{
closed = 1;
nodes = (
"49 688 LINE",
"265 -5 LINE",
"338 -5 LINE",
"497 518 LINE",
"659 -5 LINE",
"736 -5 LINE",
"941 689 LINE",
"1008 700 LINE",
"1008 743 LINE",
"771 743 LINE",
"771 700 LINE",
"876 689 LINE",
"743 214 LINE",
"710 44 LINE",
"671 214 LINE",
"530 689 LINE",
"629 700 LINE",
"629 743 LINE",
"369 743 LINE",
"369 700 LINE",
"443 689 LINE",
"470 605 LINE",
"350 214 LINE",
"311 56 LINE",
"278 214 LINE",
"133 689 LINE",
"231 700 LINE",
"231 743 LINE",
"-21 743 LINE",
"-21 700 LINE"
);
}
);
width = 989;
},
{
anchors = (
{
name = mark0;
position = "{453, -83}";
}
);
layerId = "D0FF1146-32FF-444C-BC95-9626761FC64D";
paths = (
{
closed = 1;
nodes = (
"330 832 LINE",
"391 779 LINE",
"539 870 LINE",
"687 779 LINE",
"748 833 LINE",
"591 979 LINE",
"489 979 LINE"
);
},
{
closed = 1;
nodes = (
"37 649 LINE",
"235 -5 LINE",
"414 -5 LINE",
"522 413 LINE",
"640 -5 LINE",
"820 -5 LINE",
"997 649 LINE",
"1058 664 LINE",
"1058 743 LINE",
"813 743 LINE",
"813 664 LINE",
"891 649 LINE",
"793 220 LINE",
"782 143 LINE",
"766 220 LINE",
"654 649 LINE",
"748 664 LINE",
"748 743 LINE",
"388 743 LINE",
"388 664 LINE",
"447 649 LINE",
"476 563 LINE",
"381 220 LINE",
"372 150 LINE",
"358 220 LINE",
"248 649 LINE",
"326 664 LINE",
"326 743 LINE",
"-17 743 LINE",
"-17 664 LINE"
);
}
);
width = 1042;
}
);
unicode = 0174;
},
{
glyphname = Wdieresis;
layers = (
{
anchors = (
{
name = mark0;
position = "{487, -83}";
}
);
layerId = UUID0;
paths = (
{
closed = 1;
nodes = (
"369 834 LINE",
"410 834 OFFCURVE",
"430 864 OFFCURVE",
"430 899 CURVE SMOOTH",
"430 928 OFFCURVE",
"410 958 OFFCURVE",
"377 958 CURVE",
"376 958 LINE",
"337 958 OFFCURVE",
"318 925 OFFCURVE",
"318 891 CURVE SMOOTH",
"318 860 OFFCURVE",
"337 834 OFFCURVE",
"368 834 CURVE"
);
},
{
closed = 1;
nodes = (
"647 834 OFFCURVE",
"667 864 OFFCURVE",
"667 899 CURVE SMOOTH",
"667 928 OFFCURVE",
"649 958 OFFCURVE",
"615 958 CURVE",
"614 958 LINE",
"575 958 OFFCURVE",
"556 925 OFFCURVE",
"556 891 CURVE SMOOTH",
"556 860 OFFCURVE",
"575 834 OFFCURVE",
"606 834 CURVE SMOOTH"
);
},
{
closed = 1;
nodes = (
"49 688 LINE",
"265 -5 LINE",
"338 -5 LINE",
"497 518 LINE",
"659 -5 LINE",
"736 -5 LINE",
"941 689 LINE",
"1008 700 LINE",
"1008 743 LINE",
"771 743 LINE",
"771 700 LINE",
"876 689 LINE",
"743 214 LINE",
"710 44 LINE",
"671 214 LINE",
"530 689 LINE",
"629 700 LINE",
"629 743 LINE",
"369 743 LINE",
"369 700 LINE",
"443 689 LINE",
"470 605 LINE",
"350 214 LINE",
"311 56 LINE",
"278 214 LINE",
"133 689 LINE",
"231 700 LINE",
"231 743 LINE",
"-21 743 LINE",
"-21 700 LINE"
);
}
);
width = 989;
},
{
anchors = (
{
name = mark0;
position = "{451, -83}";
}
);
layerId = "D0FF1146-32FF-444C-BC95-9626761FC64D";
paths = (
{
closed = 1;
nodes = (
"391 794 LINE",
"465 794 OFFCURVE",
"497 838 OFFCURVE",
"497 894 CURVE SMOOTH",
"497 938 OFFCURVE",
"470 977 OFFCURVE",
"408 977 CURVE",
"407 977 LINE",
"341 977 OFFCURVE",
"311 934 OFFCURVE",
"311 878 CURVE SMOOTH",
"311 833 OFFCURVE",
"344 794 OFFCURVE",
"390 794 CURVE"
);
},
{
closed = 1;
nodes = (
"734 794 OFFCURVE",
"765 838 OFFCURVE",
"765 894 CURVE SMOOTH",
"765 938 OFFCURVE",
"739 977 OFFCURVE",
"676 977 CURVE",
"675 977 LINE",
"609 977 OFFCURVE",
"580 934 OFFCURVE",
"580 878 CURVE SMOOTH",
"580 839 OFFCURVE",
"612 794 OFFCURVE",
"659 794 CURVE SMOOTH"
);
},
{
closed = 1;
nodes = (
"35 649 LINE",
"233 -5 LINE",
"412 -5 LINE",
"520 413 LINE",
"638 -5 LINE",
"818 -5 LINE",
"995 649 LINE",
"1056 664 LINE",
"1056 743 LINE",
"811 743 LINE",
"811 664 LINE",
"889 649 LINE",
"791 220 LINE",
"780 143 LINE",
"764 220 LINE",
"652 649 LINE",
"746 664 LINE",
"746 743 LINE",
"386 743 LINE",
"386 664 LINE",
"445 649 LINE",
"474 563 LINE",
"379 220 LINE",
"370 150 LINE",
"356 220 LINE",
"246 649 LINE",
"324 664 LINE",
"324 743 LINE",
"-19 743 LINE",
"-19 664 LINE"
);
}
);
width = 1039;
}
);
unicode = 1E84;
},
{
glyphname = X;
layers = (
{
anchors = (
{
name = mark0;
position = "{354, -83}";
}
);
layerId = UUID0;
paths = (
{
closed = 1;
nodes = (
"7 43 LINE",
"7 0 LINE",
"270 0 LINE",
"270 43 LINE",
"167 52 LINE",
"342 342 LINE",
"524 52 LINE",
"426 43 LINE",
"426 0 LINE",
"705 0 LINE",
"705 43 LINE",
"625 52 LINE",
"398 386 LINE",
"607 688 LINE",
"686 700 LINE",
"686 743 LINE",
"447 743 LINE",
"447 700 LINE",
"537 689 LINE",
"371 419 LINE",
"203 688 LINE",
"305 700 LINE",
"305 743 LINE",
"25 743 LINE",
"25 700 LINE",
"102 688 LINE",
"313 376 LINE",
"94 52 LINE"
);
}
);
width = 708;
},
{
anchors = (
{
name = mark0;
position = "{359, -83}";
}
);
layerId = "D0FF1146-32FF-444C-BC95-9626761FC64D";
paths = (
{
closed = 1;
nodes = (
"5 74 LINE",
"5 0 LINE",
"286 0 LINE",
"286 74 LINE",
"197 85 LINE",
"314 292 LINE",
"436 86 LINE",
"365 74 LINE",
"365 0 LINE",
"731 0 LINE",
"731 74 LINE",
"670 86 LINE",
"459 403 LINE",
"641 649 LINE",
"723 664 LINE",
"723 743 LINE",
"451 743 LINE",
"451 664 LINE",
"533 649 LINE",
"414 459 LINE",
"304 648 LINE",
"374 664 LINE",
"374 743 LINE",
"7 743 LINE",
"7 664 LINE",
"69 649 LINE",
"267 351 LINE",
"86 85 LINE"
);
}
);
width = 728;
}
);
unicode = 0058;
},
{
glyphname = Y;
layers = (
{
anchors = (
{
name = bottom;
position = "{320, 0}";
},
{
name = mark0;
position = "{305, -83}";
},
{
name = top;
position = "{320, 743}";
},
{
name = topleft;
position = "{20, 743}";
}
);
layerId = UUID0;
paths = (
{
closed = 1;
nodes = (
"173 43 LINE",
"173 0 LINE",
"482 0 LINE",
"482 43 LINE",
"368 53 LINE",
"368 287 LINE",
"584 689 LINE",
"650 700 LINE",
"650 743 LINE",
"433 743 LINE",
"433 700 LINE",
"517 689 LINE",
"372 406 LINE",
"333 326 LINE",
"297 406 LINE",
"146 689 LINE",
"230 700 LINE",
"230 743 LINE",
"-9 743 LINE",
"-9 700 LINE",
"53 688 LINE",
"284 286 LINE",
"284 52 LINE"
);
}
);
width = 640;
},
{
anchors = (
{
name = bottom;
position = "{331, 0}";
},
{
name = mark0;
position = "{265, -83}";
},
{
name = top;
position = "{361, 743}";
},
{
name = topleft;
position = "{20, 743}";
}
);
layerId = "D0FF1146-32FF-444C-BC95-9626761FC64D";
paths = (
{
closed = 1;
nodes = (
"129 74 LINE",
"129 0 LINE",
"549 0 LINE",
"549 74 LINE",
"445 85 LINE",
"445 303 LINE",
"629 652 LINE",
"688 664 LINE",
"688 743 LINE",
"419 743 LINE",
"419 664 LINE",
"493 649 LINE",
"404 438 LINE",
"383 379 LINE",
"362 438 LINE",
"261 649 LINE",
"320 664 LINE",
"320 743 LINE",
"-23 743 LINE",
"-23 664 LINE",
"30 650 LINE",
"229 302 LINE",
"229 86 LINE"
);
}
);
width = 661;
}
);
unicode = 0059;
},
{
glyphname = Ycircumflex;
layers = (
{
anchors = (
{
name = mark0;
position = "{305, -83}";
}
);
layerId = UUID0;
paths = (
{
closed = 1;
nodes = (
"165 838 LINE",
"198 817 LINE",
"331 923 LINE",
"461 817 LINE",
"497 839 LINE",
"368 983 LINE",
"293 983 LINE"
);
},
{
closed = 1;
nodes = (
"173 43 LINE",
"173 0 LINE",
"482 0 LINE",
"482 43 LINE",
"368 53 LINE",
"368 287 LINE",
"584 689 LINE",
"650 700 LINE",
"650 743 LINE",
"433 743 LINE",
"433 700 LINE",
"517 689 LINE",
"372 406 LINE",
"333 326 LINE",
"297 406 LINE",
"146 689 LINE",
"230 700 LINE",
"230 743 LINE",
"-9 743 LINE",
"-9 700 LINE",
"53 688 LINE",
"284 286 LINE",
"284 52 LINE"
);
}
);
width = 640;
},
{
anchors = (
{
name = mark0;
position = "{265, -83}";
}
);
layerId = "D0FF1146-32FF-444C-BC95-9626761FC64D";
paths = (
{
closed = 1;
nodes = (
"134 832 LINE",
"195 779 LINE",
"343 870 LINE",
"491 779 LINE",
"552 833 LINE",
"395 979 LINE",
"293 979 LINE"
);
},
{
closed = 1;
nodes = (
"129 74 LINE",
"129 0 LINE",
"549 0 LINE",
"549 74 LINE",
"445 85 LINE",
"445 303 LINE",
"629 652 LINE",
"688 664 LINE",
"688 743 LINE",
"419 743 LINE",
"419 664 LINE",
"493 649 LINE",
"404 438 LINE",
"383 379 LINE",
"362 438 LINE",
"261 649 LINE",
"320 664 LINE",
"320 743 LINE",
"-23 743 LINE",
"-23 664 LINE",
"30 650 LINE",
"229 302 LINE",
"229 86 LINE"
);
}
);
width = 661;
}
);
unicode = 0176;
},
{
glyphname = Ydieresis;
layers = (
{
anchors = (
{
name = mark0;
position = "{305, -83}";
}
);
layerId = UUID0;
paths = (
{
closed = 1;
nodes = (
"208 834 LINE",
"249 834 OFFCURVE",
"269 864 OFFCURVE",
"269 899 CURVE SMOOTH",
"269 928 OFFCURVE",
"249 958 OFFCURVE",
"216 958 CURVE",
"215 958 LINE",
"176 958 OFFCURVE",
"157 925 OFFCURVE",
"157 891 CURVE SMOOTH",
"157 860 OFFCURVE",
"176 834 OFFCURVE",
"207 834 CURVE"
);
},
{
closed = 1;
nodes = (
"486 834 OFFCURVE",
"506 864 OFFCURVE",
"506 899 CURVE SMOOTH",
"506 928 OFFCURVE",
"488 958 OFFCURVE",
"454 958 CURVE",
"453 958 LINE",
"414 958 OFFCURVE",
"395 925 OFFCURVE",
"395 891 CURVE SMOOTH",
"395 860 OFFCURVE",
"414 834 OFFCURVE",
"445 834 CURVE SMOOTH"
);
},
{
closed = 1;
nodes = (
"173 43 LINE",
"173 0 LINE",
"482 0 LINE",
"482 43 LINE",
"368 53 LINE",
"368 287 LINE",
"584 689 LINE",
"650 700 LINE",
"650 743 LINE",
"433 743 LINE",
"433 700 LINE",
"517 689 LINE",
"372 406 LINE",
"333 326 LINE",
"297 406 LINE",
"146 689 LINE",
"230 700 LINE",
"230 743 LINE",
"-9 743 LINE",
"-9 700 LINE",
"53 688 LINE",
"284 286 LINE",
"284 52 LINE"
);
}
);
width = 640;
},
{
anchors = (
{
name = mark0;
position = "{265, -83}";
}
);
layerId = "D0FF1146-32FF-444C-BC95-9626761FC64D";
paths = (
{
closed = 1;
nodes = (
"197 794 LINE",
"271 794 OFFCURVE",
"303 838 OFFCURVE",
"303 894 CURVE SMOOTH",
"303 938 OFFCURVE",
"276 977 OFFCURVE",
"214 977 CURVE",
"213 977 LINE",
"147 977 OFFCURVE",
"117 934 OFFCURVE",
"117 878 CURVE SMOOTH",
"117 833 OFFCURVE",
"150 794 OFFCURVE",
"196 794 CURVE"
);
},
{
closed = 1;
nodes = (
"540 794 OFFCURVE",
"571 838 OFFCURVE",
"571 894 CURVE SMOOTH",
"571 938 OFFCURVE",
"545 977 OFFCURVE",
"482 977 CURVE",
"481 977 LINE",
"415 977 OFFCURVE",
"386 934 OFFCURVE",
"386 878 CURVE SMOOTH",
"386 839 OFFCURVE",
"418 794 OFFCURVE",
"465 794 CURVE SMOOTH"
);
},
{
closed = 1;
nodes = (
"129 74 LINE",
"129 0 LINE",
"549 0 LINE",
"549 74 LINE",
"445 85 LINE",
"445 303 LINE",
"629 652 LINE",
"688 664 LINE",
"688 743 LINE",
"419 743 LINE",
"419 664 LINE",
"493 649 LINE",
"404 438 LINE",
"383 379 LINE",
"362 438 LINE",
"261 649 LINE",
"320 664 LINE",
"320 743 LINE",
"-23 743 LINE",
"-23 664 LINE",
"30 650 LINE",
"229 302 LINE",
"229 86 LINE"
);
}
);
width = 661;
}
);
unicode = 0178;
},
{
glyphname = Z;
layers = (
{
anchors = (
{
name = bottom;
position = "{327, 0}";
},
{
name = mark0;
position = "{333, -83}";
},
{
name = top;
position = "{367, 743}";
}
);
layerId = UUID0;
paths = (
{
closed = 1;
nodes = (
"42 39 LINE",
"66 0 LINE",
"586 0 LINE",
"610 211 LINE",
"562 222 LINE",
"512 64 LINE",
"142 47 LINE",
"207 125 LINE",
"599 709 LINE",
"577 746 LINE",
"106 746 LINE",
"85 565 LINE",
"131 560 LINE",
"180 690 LINE",
"498 700 LINE",
"441 628 LINE"
);
}
);
width = 653;
},
{
anchors = (
{
name = bottom;
position = "{328, 0}";
},
{
name = mark0;
position = "{339, -83}";
},
{
name = top;
position = "{368, 743}";
}
);
layerId = "D0FF1146-32FF-444C-BC95-9626761FC64D";
paths = (
{
closed = 1;
nodes = (
"5 65 LINE",
"42 0 LINE",
"618 0 LINE",
"640 229 LINE",
"540 249 LINE",
"479 96 LINE",
"224 74 LINE",
"297 135 LINE",
"633 678 LINE",
"607 745 LINE",
"69 745 LINE",
"43 534 LINE",
"143 519 LINE",
"201 659 LINE",
"411 675 LINE",
"350 609 LINE"
);
}
);
width = 656;
}
);
unicode = 005A;
},
{
glyphname = Zcaron;
layers = (
{
anchors = (
{
name = mark0;
position = "{333, -83}";
}
);
layerId = UUID0;
paths = (
{
closed = 1;
nodes = (
"187 960 LINE",
"308 826 LINE",
"384 826 LINE",
"504 961 LINE",
"471 982 LINE",
"346 882 LINE",
"223 982 LINE"
);
},
{
closed = 1;
nodes = (
"42 39 LINE",
"66 0 LINE",
"586 0 LINE",
"610 211 LINE",
"562 222 LINE",
"512 64 LINE",
"142 47 LINE",
"207 125 LINE",
"599 709 LINE",
"577 746 LINE",
"106 746 LINE",
"85 565 LINE",
"131 560 LINE",
"180 690 LINE",
"498 700 LINE",
"441 628 LINE"
);
}
);
width = 654;
},
{
anchors = (
{
name = mark0;
position = "{339, -83}";
}
);
layerId = "D0FF1146-32FF-444C-BC95-9626761FC64D";
paths = (
{
closed = 1;
nodes = (
"150 931 LINE",
"299 789 LINE",
"401 789 LINE",
"559 930 LINE",
"498 983 LINE",
"350 898 LINE",
"212 983 LINE"
);
},
{
closed = 1;
nodes = (
"5 65 LINE",
"42 0 LINE",
"618 0 LINE",
"640 229 LINE",
"540 249 LINE",
"479 96 LINE",
"224 74 LINE",
"297 135 LINE",
"633 678 LINE",
"607 745 LINE",
"69 745 LINE",
"43 534 LINE",
"143 519 LINE",
"201 659 LINE",
"411 675 LINE",
"350 609 LINE"
);
}
);
width = 656;
}
);
unicode = 017D;
},
{
glyphname = I.uc;
layers = (
{
layerId = UUID0;
paths = (
{
closed = 1;
nodes = (
"236 836 OFFCURVE",
"256 866 OFFCURVE",
"256 901 CURVE SMOOTH",
"256 930 OFFCURVE",
"237 959 OFFCURVE",
"203 959 CURVE SMOOTH",
"163 959 OFFCURVE",
"144 927 OFFCURVE",
"144 893 CURVE SMOOTH",
"144 861 OFFCURVE",
"163 836 OFFCURVE",
"195 836 CURVE SMOOTH"
);
},
{
closed = 1;
nodes = (
"337 0 LINE",
"337 42 LINE",
"240 52 LINE",
"240 689 LINE",
"337 700 LINE",
"337 743 LINE",
"60 743 LINE",
"60 700 LINE",
"157 689 LINE",
"157 52 LINE",
"60 43 LINE",
"60 0 LINE"
);
}
);
width = 397;
},
{
background = {
paths = (
{
closed = 1;
nodes = (
"393 0 LINE",
"393 73 LINE",
"314 85 LINE",
"314 649 LINE",
"393 664 LINE",
"393 743 LINE",
"35 743 LINE",
"35 664 LINE",
"111 649 LINE",
"111 86 LINE",
"36 74 LINE",
"36 0 LINE"
);
}
);
};
layerId = "D0FF1146-32FF-444C-BC95-9626761FC64D";
paths = (
{
closed = 1;
nodes = (
"277 800 OFFCURVE",
"312 837 OFFCURVE",
"312 896 CURVE SMOOTH",
"312 943 OFFCURVE",
"275 977 OFFCURVE",
"211 977 CURVE",
"145 977 OFFCURVE",
"108 941 OFFCURVE",
"108 882 CURVE SMOOTH",
"108 835 OFFCURVE",
"147 800 OFFCURVE",
"201 800 CURVE SMOOTH"
);
},
{
closed = 1;
nodes = (
"393 0 LINE",
"393 73 LINE",
"314 85 LINE",
"314 649 LINE",
"393 664 LINE",
"393 743 LINE",
"35 743 LINE",
"35 664 LINE",
"111 649 LINE",
"111 86 LINE",
"36 74 LINE",
"36 0 LINE"
);
}
);
width = 425;
}
);
},
{
glyphname = a;
layers = (
{
anchors = (
{
name = bottom;
position = "{279, 0}";
},
{
name = mark0;
position = "{257, -83}";
},
{
name = ogonek;
position = "{471, 10}";
},
{
name = top;
position = "{289, 555}";
}
);
layerId = UUID0;
paths = (
{
closed = 1;
nodes = (
"51 37 OFFCURVE",
"129 -11 OFFCURVE",
"218 -11 CURVE SMOOTH",
"302 -11 OFFCURVE",
"368 48 OFFCURVE",
"393 70 CURVE",
"393 33 LINE SMOOTH",
"393 -6 OFFCURVE",
"406 -9 OFFCURVE",
"435 -9 CURVE SMOOTH",
"465 -9 OFFCURVE",
"506 0 OFFCURVE",
"528 6 CURVE",
"528 43 LINE",
"466 43 LINE",
"466 373 LINE SMOOTH",
"466 513 OFFCURVE",
"419 566 OFFCURVE",
"284 566 CURVE SMOOTH",
"192 566 OFFCURVE",
"86 509 OFFCURVE",
"68 492 CURVE",
"90 448 LINE",
"122 466 OFFCURVE",
"188 501 OFFCURVE",
"266 501 CURVE SMOOTH",
"360 501 OFFCURVE",
"386 463 OFFCURVE",
"386 364 CURVE SMOOTH",
"386 333 LINE",
"221 330 OFFCURVE",
"51 286 OFFCURVE",
"51 146 CURVE SMOOTH"
);
},
{
closed = 1;
nodes = (
"187 48 OFFCURVE",
"140 76 OFFCURVE",
"140 156 CURVE SMOOTH",
"140 232 OFFCURVE",
"220 285 OFFCURVE",
"386 286 CURVE",
"386 109 LINE",
"346 78 OFFCURVE",
"288 48 OFFCURVE",
"248 48 CURVE SMOOTH"
);
}
);
width = 557;
},
{
anchors = (
{
name = bottom;
position = "{287, 0}";
},
{
name = mark0;
position = "{277, -83}";
},
{
name = ogonek;
position = "{497, 10}";
},
{
name = top;
position = "{307, 556}";
}
);
layerId = "D0FF1146-32FF-444C-BC95-9626761FC64D";
paths = (
{
closed = 1;
nodes = (
"20 52 OFFCURVE",
"97 -11 OFFCURVE",
"190 -11 CURVE SMOOTH",
"271 -11 OFFCURVE",
"324 29 OFFCURVE",
"350 65 CURVE",
"350 47 LINE SMOOTH",
"350 2 OFFCURVE",
"361 -13 OFFCURVE",
"420 -13 CURVE SMOOTH",
"468 -13 OFFCURVE",
"544 -3 OFFCURVE",
"568 2 CURVE",
"568 74 LINE",
"520 74 LINE",
"520 360 LINE SMOOTH",
"520 509 OFFCURVE",
"469 570 OFFCURVE",
"300 570 CURVE SMOOTH",
"170 570 OFFCURVE",
"70 514 OFFCURVE",
"42 492 CURVE",
"81 410 LINE",
"113 423 OFFCURVE",
"171 448 OFFCURVE",
"250 448 CURVE SMOOTH",
"329 448 OFFCURVE",
"341 420 OFFCURVE",
"341 362 CURVE SMOOTH",
"341 347 LINE",
"123 346 OFFCURVE",
"20 276 OFFCURVE",
"20 161 CURVE SMOOTH"
);
},
{
closed = 1;
nodes = (
"244 92 OFFCURVE",
"221 130 OFFCURVE",
"221 183 CURVE SMOOTH",
"221 228 OFFCURVE",
"250 273 OFFCURVE",
"341 273 CURVE",
"341 120 LINE",
"327 104 OFFCURVE",
"303 92 OFFCURVE",
"284 92 CURVE SMOOTH"
);
}
);
width = 574;
}
);
unicode = 0061;
},
{
glyphname = abreve;
layers = (
{
anchors = (
{
name = mark0;
position = "{257, -83}";
}
);
layerId = UUID0;
paths = (
{
closed = 1;
nodes = (
"367 666 OFFCURVE",
"428 746 OFFCURVE",
"428 832 CURVE SMOOTH",
"428 839 OFFCURVE",
"427 846 OFFCURVE",
"426 854 CURVE",
"382 854 LINE",
"383 850 OFFCURVE",
"382 844 OFFCURVE",
"381 837 CURVE SMOOTH",
"378 796 OFFCURVE",
"352 735 OFFCURVE",
"270 735 CURVE SMOOTH",
"188 735 OFFCURVE",
"160 796 OFFCURVE",
"156 837 CURVE SMOOTH",
"155 844 OFFCURVE",
"155 850 OFFCURVE",
"155 854 CURVE",
"110 854 LINE",
"108 846 OFFCURVE",
"108 838 OFFCURVE",
"108 831 CURVE SMOOTH",
"108 745 OFFCURVE",
"167 666 OFFCURVE",
"270 666 CURVE SMOOTH"
);
},
{
closed = 1;
nodes = (
"51 37 OFFCURVE",
"129 -11 OFFCURVE",
"218 -11 CURVE SMOOTH",
"302 -11 OFFCURVE",
"368 48 OFFCURVE",
"393 70 CURVE",
"393 33 LINE SMOOTH",
"393 -6 OFFCURVE",
"406 -9 OFFCURVE",
"435 -9 CURVE SMOOTH",
"465 -9 OFFCURVE",
"506 0 OFFCURVE",
"528 6 CURVE",
"528 43 LINE",
"466 43 LINE",
"466 373 LINE SMOOTH",
"466 513 OFFCURVE",
"419 566 OFFCURVE",
"284 566 CURVE SMOOTH",
"192 566 OFFCURVE",
"86 509 OFFCURVE",
"68 492 CURVE",
"90 448 LINE",
"122 466 OFFCURVE",
"188 501 OFFCURVE",
"266 501 CURVE SMOOTH",
"360 501 OFFCURVE",
"386 463 OFFCURVE",
"386 364 CURVE SMOOTH",
"386 333 LINE",
"221 330 OFFCURVE",
"51 286 OFFCURVE",
"51 146 CURVE SMOOTH"
);
},
{
closed = 1;
nodes = (
"187 48 OFFCURVE",
"140 76 OFFCURVE",
"140 156 CURVE SMOOTH",
"140 232 OFFCURVE",
"220 285 OFFCURVE",
"386 286 CURVE",
"386 109 LINE",
"346 78 OFFCURVE",
"288 48 OFFCURVE",
"248 48 CURVE SMOOTH"
);
}
);
width = 557;
},
{
anchors = (
{
name = mark0;
position = "{277, -83}";
}
);
layerId = "D0FF1146-32FF-444C-BC95-9626761FC64D";
paths = (
{
closed = 1;
nodes = (
"394 642 OFFCURVE",
"472 714 OFFCURVE",
"472 811 CURVE SMOOTH",
"472 828 OFFCURVE",
"471 855 OFFCURVE",
"471 866 CURVE",
"388 866 LINE",
"388 859 OFFCURVE",
"387 851 OFFCURVE",
"386 842 CURVE SMOOTH",
"379 802 OFFCURVE",
"354 766 OFFCURVE",
"284 766 CURVE SMOOTH",
"213 766 OFFCURVE",
"187 803 OFFCURVE",
"180 843 CURVE SMOOTH",
"179 851 OFFCURVE",
"179 859 OFFCURVE",
"179 866 CURVE",
"94 866 LINE",
"92 855 OFFCURVE",
"92 828 OFFCURVE",
"92 810 CURVE SMOOTH",
"92 715 OFFCURVE",
"168 642 OFFCURVE",
"284 642 CURVE SMOOTH"
);
},
{
closed = 1;
nodes = (
"20 52 OFFCURVE",
"97 -11 OFFCURVE",
"190 -11 CURVE SMOOTH",
"271 -11 OFFCURVE",
"324 29 OFFCURVE",
"350 65 CURVE",
"350 47 LINE SMOOTH",
"350 2 OFFCURVE",
"361 -13 OFFCURVE",
"420 -13 CURVE SMOOTH",
"468 -13 OFFCURVE",
"544 -3 OFFCURVE",
"568 2 CURVE",
"568 74 LINE",
"520 74 LINE",
"520 360 LINE SMOOTH",
"520 509 OFFCURVE",
"469 570 OFFCURVE",
"300 570 CURVE SMOOTH",
"170 570 OFFCURVE",
"70 514 OFFCURVE",
"42 492 CURVE",
"81 410 LINE",
"113 423 OFFCURVE",
"171 448 OFFCURVE",
"250 448 CURVE SMOOTH",
"329 448 OFFCURVE",
"341 420 OFFCURVE",
"341 362 CURVE SMOOTH",
"341 347 LINE",
"123 346 OFFCURVE",
"20 276 OFFCURVE",
"20 161 CURVE SMOOTH"
);
},
{
closed = 1;
nodes = (
"244 92 OFFCURVE",
"221 130 OFFCURVE",
"221 183 CURVE SMOOTH",
"221 228 OFFCURVE",
"250 273 OFFCURVE",
"341 273 CURVE",
"341 120 LINE",
"327 104 OFFCURVE",
"303 92 OFFCURVE",
"284 92 CURVE SMOOTH"
);
}
);
width = 574;
}
);
unicode = 0103;
},
{
glyphname = acircumflex;
layers = (
{
anchors = (
{
name = mark0;
position = "{257, -83}";
}
);
layerId = UUID0;
paths = (
{
closed = 1;
nodes = (
"92 671 LINE",
"124 651 LINE",
"268 802 LINE",
"406 651 LINE",
"441 672 LINE",
"306 867 LINE",
"231 867 LINE"
);
},
{
closed = 1;
nodes = (
"51 37 OFFCURVE",
"129 -11 OFFCURVE",
"218 -11 CURVE SMOOTH",
"302 -11 OFFCURVE",
"368 48 OFFCURVE",
"393 70 CURVE",
"393 33 LINE SMOOTH",
"393 -6 OFFCURVE",
"406 -9 OFFCURVE",
"435 -9 CURVE SMOOTH",
"465 -9 OFFCURVE",
"506 0 OFFCURVE",
"528 6 CURVE",
"528 43 LINE",
"466 43 LINE",
"466 373 LINE SMOOTH",
"466 513 OFFCURVE",
"419 566 OFFCURVE",
"284 566 CURVE SMOOTH",
"192 566 OFFCURVE",
"86 509 OFFCURVE",
"68 492 CURVE",
"90 448 LINE",
"122 466 OFFCURVE",
"188 501 OFFCURVE",
"266 501 CURVE SMOOTH",
"360 501 OFFCURVE",
"386 463 OFFCURVE",
"386 364 CURVE SMOOTH",
"386 333 LINE",
"221 330 OFFCURVE",
"51 286 OFFCURVE",
"51 146 CURVE SMOOTH"
);
},
{
closed = 1;
nodes = (
"187 48 OFFCURVE",
"140 76 OFFCURVE",
"140 156 CURVE SMOOTH",
"140 232 OFFCURVE",
"220 285 OFFCURVE",
"386 286 CURVE",
"386 109 LINE",
"346 78 OFFCURVE",
"288 48 OFFCURVE",
"248 48 CURVE SMOOTH"
);
}
);
width = 557;
},
{
anchors = (
{
name = mark0;
position = "{277, -83}";
}
);
layerId = "D0FF1146-32FF-444C-BC95-9626761FC64D";
paths = (
{
closed = 1;
nodes = (
"76 683 LINE",
"136 629 LINE",
"284 746 LINE",
"430 630 LINE",
"492 683 LINE",
"331 879 LINE",
"234 879 LINE"
);
},
{
closed = 1;
nodes = (
"20 52 OFFCURVE",
"97 -11 OFFCURVE",
"190 -11 CURVE SMOOTH",
"271 -11 OFFCURVE",
"324 29 OFFCURVE",
"350 65 CURVE",
"350 47 LINE SMOOTH",
"350 2 OFFCURVE",
"361 -13 OFFCURVE",
"420 -13 CURVE SMOOTH",
"468 -13 OFFCURVE",
"544 -3 OFFCURVE",
"568 2 CURVE",
"568 74 LINE",
"520 74 LINE",
"520 360 LINE SMOOTH",
"520 509 OFFCURVE",
"469 570 OFFCURVE",
"300 570 CURVE SMOOTH",
"170 570 OFFCURVE",
"70 514 OFFCURVE",
"42 492 CURVE",
"81 410 LINE",
"113 423 OFFCURVE",
"171 448 OFFCURVE",
"250 448 CURVE SMOOTH",
"329 448 OFFCURVE",
"341 420 OFFCURVE",
"341 362 CURVE SMOOTH",
"341 347 LINE",
"123 346 OFFCURVE",
"20 276 OFFCURVE",
"20 161 CURVE SMOOTH"
);
},
{
closed = 1;
nodes = (
"244 92 OFFCURVE",
"221 130 OFFCURVE",
"221 183 CURVE SMOOTH",
"221 228 OFFCURVE",
"250 273 OFFCURVE",
"341 273 CURVE",
"341 120 LINE",
"327 104 OFFCURVE",
"303 92 OFFCURVE",
"284 92 CURVE SMOOTH"
);
}
);
width = 574;
}
);
unicode = 00E2;
},
{
glyphname = agrave;
layers = (
{
anchors = (
{
name = mark0;
position = "{257, -83}";
}
);
layerId = UUID0;
paths = (
{
closed = 1;
nodes = (
"293 659 LINE",
"322 686 LINE",
"166 878 LINE",
"103 824 LINE",
"128 785 OFFCURVE",
"256 674 OFFCURVE",
"292 659 CURVE"
);
},
{
closed = 1;
nodes = (
"51 37 OFFCURVE",
"129 -11 OFFCURVE",
"218 -11 CURVE SMOOTH",
"302 -11 OFFCURVE",
"368 48 OFFCURVE",
"393 70 CURVE",
"393 33 LINE SMOOTH",
"393 -6 OFFCURVE",
"406 -9 OFFCURVE",
"435 -9 CURVE SMOOTH",
"465 -9 OFFCURVE",
"506 0 OFFCURVE",
"528 6 CURVE",
"528 43 LINE",
"466 43 LINE",
"466 373 LINE SMOOTH",
"466 513 OFFCURVE",
"419 566 OFFCURVE",
"284 566 CURVE SMOOTH",
"192 566 OFFCURVE",
"86 509 OFFCURVE",
"68 492 CURVE",
"90 448 LINE",
"122 466 OFFCURVE",
"188 501 OFFCURVE",
"266 501 CURVE SMOOTH",
"360 501 OFFCURVE",
"386 463 OFFCURVE",
"386 364 CURVE SMOOTH",
"386 333 LINE",
"221 330 OFFCURVE",
"51 286 OFFCURVE",
"51 146 CURVE SMOOTH"
);
},
{
closed = 1;
nodes = (
"187 48 OFFCURVE",
"140 76 OFFCURVE",
"140 156 CURVE SMOOTH",
"140 232 OFFCURVE",
"220 285 OFFCURVE",
"386 286 CURVE",
"386 109 LINE",
"346 78 OFFCURVE",
"288 48 OFFCURVE",
"248 48 CURVE SMOOTH"
);
}
);
width = 557;
},
{
anchors = (
{
name = mark0;
position = "{277, -83}";
}
);
layerId = "D0FF1146-32FF-444C-BC95-9626761FC64D";
paths = (
{
closed = 1;
nodes = (
"302 628 LINE",
"375 685 LINE",
"189 906 LINE",
"83 809 LINE",
"121 742 OFFCURVE",
"238 651 OFFCURVE",
"301 628 CURVE"
);
},
{
closed = 1;
nodes = (
"20 52 OFFCURVE",
"97 -11 OFFCURVE",
"190 -11 CURVE SMOOTH",
"271 -11 OFFCURVE",
"324 29 OFFCURVE",
"350 65 CURVE",
"350 47 LINE SMOOTH",
"350 2 OFFCURVE",
"361 -13 OFFCURVE",
"420 -13 CURVE SMOOTH",
"468 -13 OFFCURVE",
"544 -3 OFFCURVE",
"568 2 CURVE",
"568 74 LINE",
"520 74 LINE",
"520 360 LINE SMOOTH",
"520 509 OFFCURVE",
"469 570 OFFCURVE",
"300 570 CURVE SMOOTH",
"170 570 OFFCURVE",
"70 514 OFFCURVE",
"42 492 CURVE",
"81 410 LINE",
"113 423 OFFCURVE",
"171 448 OFFCURVE",
"250 448 CURVE SMOOTH",
"329 448 OFFCURVE",
"341 420 OFFCURVE",
"341 362 CURVE SMOOTH",
"341 347 LINE",
"123 346 OFFCURVE",
"20 276 OFFCURVE",
"20 161 CURVE SMOOTH"
);
},
{
closed = 1;
nodes = (
"244 92 OFFCURVE",
"221 130 OFFCURVE",
"221 183 CURVE SMOOTH",
"221 228 OFFCURVE",
"250 273 OFFCURVE",
"341 273 CURVE",
"341 120 LINE",
"327 104 OFFCURVE",
"303 92 OFFCURVE",
"284 92 CURVE SMOOTH"
);
}
);
width = 574;
}
);
unicode = 00E0;
},
{
glyphname = amacron;
layers = (
{
anchors = (
{
name = mark0;
position = "{257, -83}";
}
);
layerId = UUID0;
paths = (
{
closed = 1;
nodes = (
"138 760 LINE",
"138 699 LINE",
"399 699 LINE",
"399 760 LINE"
);
},
{
closed = 1;
nodes = (
"51 37 OFFCURVE",
"129 -11 OFFCURVE",
"218 -11 CURVE SMOOTH",
"302 -11 OFFCURVE",
"368 48 OFFCURVE",
"393 70 CURVE",
"393 33 LINE SMOOTH",
"393 -6 OFFCURVE",
"406 -9 OFFCURVE",
"435 -9 CURVE SMOOTH",
"465 -9 OFFCURVE",
"506 0 OFFCURVE",
"528 6 CURVE",
"528 43 LINE",
"466 43 LINE",
"466 373 LINE SMOOTH",
"466 513 OFFCURVE",
"419 566 OFFCURVE",
"284 566 CURVE SMOOTH",
"192 566 OFFCURVE",
"86 509 OFFCURVE",
"68 492 CURVE",
"90 448 LINE",
"122 466 OFFCURVE",
"188 501 OFFCURVE",
"266 501 CURVE SMOOTH",
"360 501 OFFCURVE",
"386 463 OFFCURVE",
"386 364 CURVE SMOOTH",
"386 333 LINE",
"221 330 OFFCURVE",
"51 286 OFFCURVE",
"51 146 CURVE SMOOTH"
);
},
{
closed = 1;
nodes = (
"187 48 OFFCURVE",
"140 76 OFFCURVE",
"140 156 CURVE SMOOTH",
"140 232 OFFCURVE",
"220 285 OFFCURVE",
"386 286 CURVE",
"386 109 LINE",
"346 78 OFFCURVE",
"288 48 OFFCURVE",
"248 48 CURVE SMOOTH"
);
}
);
width = 557;
},
{
anchors = (
{
name = mark0;
position = "{277, -83}";
}
);
layerId = "D0FF1146-32FF-444C-BC95-9626761FC64D";
paths = (
{
closed = 1;
nodes = (
"119 798 LINE",
"119 690 LINE",
"447 690 LINE",
"447 798 LINE"
);
},
{
closed = 1;
nodes = (
"20 52 OFFCURVE",
"97 -11 OFFCURVE",
"190 -11 CURVE SMOOTH",
"271 -11 OFFCURVE",
"324 29 OFFCURVE",
"350 65 CURVE",
"350 47 LINE SMOOTH",
"350 2 OFFCURVE",
"361 -13 OFFCURVE",
"420 -13 CURVE SMOOTH",
"468 -13 OFFCURVE",
"544 -3 OFFCURVE",
"568 2 CURVE",
"568 74 LINE",
"520 74 LINE",
"520 360 LINE SMOOTH",
"520 509 OFFCURVE",
"469 570 OFFCURVE",
"300 570 CURVE SMOOTH",
"170 570 OFFCURVE",
"70 514 OFFCURVE",
"42 492 CURVE",
"81 410 LINE",
"113 423 OFFCURVE",
"171 448 OFFCURVE",
"250 448 CURVE SMOOTH",
"329 448 OFFCURVE",
"341 420 OFFCURVE",
"341 362 CURVE SMOOTH",
"341 347 LINE",
"123 346 OFFCURVE",
"20 276 OFFCURVE",
"20 161 CURVE SMOOTH"
);
},
{
closed = 1;
nodes = (
"244 92 OFFCURVE",
"221 130 OFFCURVE",
"221 183 CURVE SMOOTH",
"221 228 OFFCURVE",
"250 273 OFFCURVE",
"341 273 CURVE",
"341 120 LINE",
"327 104 OFFCURVE",
"303 92 OFFCURVE",
"284 92 CURVE SMOOTH"
);
}
);
width = 574;
}
);
unicode = 0101;
},
{
glyphname = atilde;
layers = (
{
anchors = (
{
name = mark0;
position = "{257, -83}";
}
);
layerId = UUID0;
paths = (
{
closed = 1;
nodes = (
"114 681 LINE",
"124 701 OFFCURVE",
"143 745 OFFCURVE",
"190 745 CURVE SMOOTH",
"252 745 OFFCURVE",
"267 660 OFFCURVE",
"346 660 CURVE SMOOTH",
"412 660 OFFCURVE",
"450 709 OFFCURVE",
"466 761 CURVE",
"425 784 LINE",
"417 764 OFFCURVE",
"399 720 OFFCURVE",
"353 720 CURVE SMOOTH",
"295 720 OFFCURVE",
"283 805 OFFCURVE",
"203 805 CURVE SMOOTH",
"133 805 OFFCURVE",
"84 748 OFFCURVE",
"73 704 CURVE"
);
},
{
closed = 1;
nodes = (
"51 37 OFFCURVE",
"129 -11 OFFCURVE",
"218 -11 CURVE SMOOTH",
"302 -11 OFFCURVE",
"368 48 OFFCURVE",
"393 70 CURVE",
"393 33 LINE SMOOTH",
"393 -6 OFFCURVE",
"406 -9 OFFCURVE",
"435 -9 CURVE SMOOTH",
"465 -9 OFFCURVE",
"506 0 OFFCURVE",
"528 6 CURVE",
"528 43 LINE",
"466 43 LINE",
"466 373 LINE SMOOTH",
"466 513 OFFCURVE",
"419 566 OFFCURVE",
"284 566 CURVE SMOOTH",
"192 566 OFFCURVE",
"86 509 OFFCURVE",
"68 492 CURVE",
"90 448 LINE",
"122 466 OFFCURVE",
"188 501 OFFCURVE",
"266 501 CURVE SMOOTH",
"360 501 OFFCURVE",
"386 463 OFFCURVE",
"386 364 CURVE SMOOTH",
"386 333 LINE",
"221 330 OFFCURVE",
"51 286 OFFCURVE",
"51 146 CURVE SMOOTH"
);
},
{
closed = 1;
nodes = (
"187 48 OFFCURVE",
"140 76 OFFCURVE",
"140 156 CURVE SMOOTH",
"140 232 OFFCURVE",
"220 285 OFFCURVE",
"386 286 CURVE",
"386 109 LINE",
"346 78 OFFCURVE",
"288 48 OFFCURVE",
"248 48 CURVE SMOOTH"
);
}
);
width = 557;
},
{
anchors = (
{
name = mark0;
position = "{277, -83}";
}
);
layerId = "D0FF1146-32FF-444C-BC95-9626761FC64D";
paths = (
{
closed = 1;
nodes = (
"102 679 LINE",
"119 696 OFFCURVE",
"142 719 OFFCURVE",
"180 719 CURVE SMOOTH",
"245 719 OFFCURVE",
"278 642 OFFCURVE",
"364 642 CURVE SMOOTH",
"451 642 OFFCURVE",
"493 709 OFFCURVE",
"519 754 CURVE",
"467 800 LINE",
"451 784 OFFCURVE",
"429 760 OFFCURVE",
"390 760 CURVE SMOOTH",
"329 760 OFFCURVE",
"298 837 OFFCURVE",
"209 837 CURVE SMOOTH",
"120 837 OFFCURVE",
"75 767 OFFCURVE",
"51 725 CURVE"
);
},
{
closed = 1;
nodes = (
"20 52 OFFCURVE",
"97 -11 OFFCURVE",
"190 -11 CURVE SMOOTH",
"271 -11 OFFCURVE",
"324 29 OFFCURVE",
"350 65 CURVE",
"350 47 LINE SMOOTH",
"350 2 OFFCURVE",
"361 -13 OFFCURVE",
"420 -13 CURVE SMOOTH",
"468 -13 OFFCURVE",
"544 -3 OFFCURVE",
"568 2 CURVE",
"568 74 LINE",
"520 74 LINE",
"520 360 LINE SMOOTH",
"520 509 OFFCURVE",
"469 570 OFFCURVE",
"300 570 CURVE SMOOTH",
"170 570 OFFCURVE",
"70 514 OFFCURVE",
"42 492 CURVE",
"81 410 LINE",
"113 423 OFFCURVE",
"171 448 OFFCURVE",
"250 448 CURVE SMOOTH",
"329 448 OFFCURVE",
"341 420 OFFCURVE",
"341 362 CURVE SMOOTH",
"341 347 LINE",
"123 346 OFFCURVE",
"20 276 OFFCURVE",
"20 161 CURVE SMOOTH"
);
},
{
closed = 1;
nodes = (
"244 92 OFFCURVE",
"221 130 OFFCURVE",
"221 183 CURVE SMOOTH",
"221 228 OFFCURVE",
"250 273 OFFCURVE",
"341 273 CURVE",
"341 120 LINE",
"327 104 OFFCURVE",
"303 92 OFFCURVE",
"284 92 CURVE SMOOTH"
);
}
);
width = 574;
}
);
unicode = 00E3;
},
{
glyphname = ae;
layers = (
{
anchors = (
{
name = bottom;
position = "{435, 0}";
},
{
name = top;
position = "{455, 555}";
}
);
background = {
paths = (
{
closed = 1;
nodes = (
"473 470 OFFCURVE",
"533 519 OFFCURVE",
"613 519 CURVE SMOOTH",
"702 519 OFFCURVE",
"737 457 OFFCURVE",
"737 375 CURVE SMOOTH",
"737 361 OFFCURVE",
"736 345 OFFCURVE",
"735 331 CURVE",
"464 331 LINE"
);
},
{
closed = 1;
nodes = (
"184 48 OFFCURVE",
"136 76 OFFCURVE",
"136 156 CURVE SMOOTH",
"136 231 OFFCURVE",
"216 289 OFFCURVE",
"377 290 CURVE",
"377 233 OFFCURVE",
"383 185 OFFCURVE",
"400 139 CURVE",
"376 98 OFFCURVE",
"314 48 OFFCURVE",
"244 48 CURVE SMOOTH"
);
}
);
};
layerId = UUID0;
paths = (
{
closed = 1;
nodes = (
"320 -11 OFFCURVE",
"388 56 OFFCURVE",
"419 99 CURVE",
"458 30 OFFCURVE",
"526 -11 OFFCURVE",
"619 -11 CURVE SMOOTH",
"695 -11 OFFCURVE",
"775 21 OFFCURVE",
"813 60 CURVE",
"797 97 LINE",
"767 70 OFFCURVE",
"701 46 OFFCURVE",
"644 46 CURVE SMOOTH",
"525 46 OFFCURVE",
"463 149 OFFCURVE",
"463 284 CURVE",
"819 284 LINE",
"824 306 OFFCURVE",
"825 334 OFFCURVE",
"825 372 CURVE",
"820 501 OFFCURVE",
"751 570 OFFCURVE",
"633 570 CURVE SMOOTH",
"557 570 OFFCURVE",
"492 539 OFFCURVE",
"446 485 CURVE",
"423 542 OFFCURVE",
"372 566 OFFCURVE",
"281 566 CURVE SMOOTH",
"191 566 OFFCURVE",
"79 512 OFFCURVE",
"55 489 CURVE",
"76 447 LINE",
"115 468 OFFCURVE",
"186 504 OFFCURVE",
"262 504 CURVE SMOOTH",
"362 504 OFFCURVE",
"377 474 OFFCURVE",
"377 333 CURVE",
"218 330 OFFCURVE",
"47 285 OFFCURVE",
"47 146 CURVE SMOOTH",
"47 37 OFFCURVE",
"126 -11 OFFCURVE",
"215 -11 CURVE SMOOTH"
);
},
{
closed = 1;
nodes = (
"473 470 OFFCURVE",
"533 519 OFFCURVE",
"613 519 CURVE SMOOTH",
"702 519 OFFCURVE",
"737 457 OFFCURVE",
"737 375 CURVE SMOOTH",
"737 361 OFFCURVE",
"736 345 OFFCURVE",
"735 331 CURVE",
"464 331 LINE"
);
},
{
closed = 1;
nodes = (
"184 48 OFFCURVE",
"136 76 OFFCURVE",
"136 156 CURVE SMOOTH",
"136 231 OFFCURVE",
"216 289 OFFCURVE",
"377 290 CURVE",
"377 233 OFFCURVE",
"383 185 OFFCURVE",
"400 139 CURVE",
"376 98 OFFCURVE",
"314 48 OFFCURVE",
"244 48 CURVE SMOOTH"
);
}
);
width = 869;
},
{
anchors = (
{
name = bottom;
position = "{434, 0}";
},
{
name = top;
position = "{454, 556}";
}
);
background = {
paths = (
{
closed = 1;
nodes = (
"531 471 OFFCURVE",
"560 494 OFFCURVE",
"601 494 CURVE SMOOTH",
"646 494 OFFCURVE",
"657 446 OFFCURVE",
"657 371 CURVE SMOOTH",
"657 362 OFFCURVE",
"657 339 OFFCURVE",
"656 330 CURVE",
"530 330 LINE"
);
},
{
closed = 1;
nodes = (
"251 92 OFFCURVE",
"229 119 OFFCURVE",
"229 182 CURVE SMOOTH",
"229 225 OFFCURVE",
"251 274 OFFCURVE",
"340 276 CURVE",
"340 225 OFFCURVE",
"347 178 OFFCURVE",
"362 137 CURVE",
"346 112 OFFCURVE",
"315 92 OFFCURVE",
"286 92 CURVE SMOOTH"
);
}
);
};
layerId = "D0FF1146-32FF-444C-BC95-9626761FC64D";
paths = (
{
closed = 1;
nodes = (
"270 -11 OFFCURVE",
"352 26 OFFCURVE",
"390 85 CURVE",
"433 24 OFFCURVE",
"505 -11 OFFCURVE",
"615 -11 CURVE SMOOTH",
"715 -11 OFFCURVE",
"811 43 OFFCURVE",
"838 74 CURVE",
"808 142 LINE",
"777 126 OFFCURVE",
"716 105 OFFCURVE",
"663 105 CURVE SMOOTH",
"584 105 OFFCURVE",
"542 152 OFFCURVE",
"532 257 CURVE",
"835 257 LINE",
"840 284 OFFCURVE",
"843 317 OFFCURVE",
"843 365 CURVE SMOOTH",
"842 492 OFFCURVE",
"767 570 OFFCURVE",
"616 570 CURVE SMOOTH",
"552 570 OFFCURVE",
"496 555 OFFCURVE",
"452 525 CURVE",
"425 556 OFFCURVE",
"378 570 OFFCURVE",
"298 570 CURVE SMOOTH",
"168 570 OFFCURVE",
"64 516 OFFCURVE",
"36 492 CURVE",
"75 409 LINE",
"116 424 OFFCURVE",
"169 444 OFFCURVE",
"246 444 CURVE SMOOTH",
"325 444 OFFCURVE",
"344 422 OFFCURVE",
"344 347 CURVE",
"127 346 OFFCURVE",
"20 275 OFFCURVE",
"20 155 CURVE SMOOTH",
"20 46 OFFCURVE",
"97 -11 OFFCURVE",
"189 -11 CURVE SMOOTH"
);
},
{
closed = 1;
nodes = (
"531 471 OFFCURVE",
"560 494 OFFCURVE",
"601 494 CURVE SMOOTH",
"646 494 OFFCURVE",
"657 446 OFFCURVE",
"657 371 CURVE SMOOTH",
"657 362 OFFCURVE",
"657 339 OFFCURVE",
"656 330 CURVE",
"530 330 LINE"
);
},
{
closed = 1;
nodes = (
"251 92 OFFCURVE",
"229 119 OFFCURVE",
"229 182 CURVE SMOOTH",
"229 225 OFFCURVE",
"251 274 OFFCURVE",
"340 276 CURVE",
"340 225 OFFCURVE",
"347 178 OFFCURVE",
"362 137 CURVE",
"346 112 OFFCURVE",
"315 92 OFFCURVE",
"286 92 CURVE SMOOTH"
);
}
);
width = 868;
}
);
unicode = 00E6;
},
{
glyphname = b;
layers = (
{
anchors = (
{
name = mark0;
position = "{294, -83}";
}
);
layerId = UUID0;
paths = (
{
closed = 1;
nodes = (
"83 756 LINE",
"83 27 LINE",
"96 14 OFFCURVE",
"178 -11 OFFCURVE",
"269 -11 CURVE SMOOTH",
"444 -11 OFFCURVE",
"554 127 OFFCURVE",
"554 298 CURVE SMOOTH",
"554 490 OFFCURVE",
"447 570 OFFCURVE",
"335 570 CURVE SMOOTH",
"257 570 OFFCURVE",
"199 534 OFFCURVE",
"164 501 CURVE",
"164 805 LINE",
"145 819 LINE",
"143 819 LINE",
"-3 802 LINE",
"-3 765 LINE"
);
},
{
closed = 1;
nodes = (
"391 509 OFFCURVE",
"468 443 OFFCURVE",
"466 284 CURVE SMOOTH",
"463 118 OFFCURVE",
"384 40 OFFCURVE",
"276 40 CURVE SMOOTH",
"226 40 OFFCURVE",
"174 52 OFFCURVE",
"164 75 CURVE",
"164 445 LINE",
"187 470 OFFCURVE",
"239 509 OFFCURVE",
"302 509 CURVE SMOOTH"
);
}
);
width = 600;
},
{
anchors = (
{
name = mark0;
position = "{266, -83}";
}
);
layerId = "D0FF1146-32FF-444C-BC95-9626761FC64D";
paths = (
{
closed = 1;
nodes = (
"68 714 LINE",
"68 27 LINE",
"82 19 OFFCURVE",
"154 -11 OFFCURVE",
"300 -11 CURVE SMOOTH",
"491 -11 OFFCURVE",
"606 121 OFFCURVE",
"606 295 CURVE SMOOTH",
"606 493 OFFCURVE",
"514 570 OFFCURVE",
"392 570 CURVE SMOOTH",
"335 570 OFFCURVE",
"285 542 OFFCURVE",
"256 511 CURVE",
"256 798 LINE",
"219 820 LINE",
"217 820 LINE",
"2 794 LINE",
"2 729 LINE"
);
},
{
closed = 1;
nodes = (
"371 459 OFFCURVE",
"403 410 OFFCURVE",
"402 277 CURVE SMOOTH",
"401 126 OFFCURVE",
"362 55 OFFCURVE",
"304 55 CURVE SMOOTH",
"279 55 OFFCURVE",
"261 63 OFFCURVE",
"256 72 CURVE",
"256 431 LINE",
"269 446 OFFCURVE",
"293 459 OFFCURVE",
"320 459 CURVE SMOOTH"
);
}
);
width = 634;
}
);
unicode = 0062;
},
{
glyphname = bdotaccent;
layers = (
{
anchors = (
{
name = mark0;
position = "{294, -83}";
}
);
layerId = UUID0;
paths = (
{
closed = 1;
nodes = (
"444 -11 OFFCURVE",
"554 127 OFFCURVE",
"554 298 CURVE SMOOTH",
"554 490 OFFCURVE",
"447 570 OFFCURVE",
"335 570 CURVE SMOOTH",
"257 570 OFFCURVE",
"199 534 OFFCURVE",
"164 501 CURVE",
"164 805 LINE",
"145 819 LINE",
"143 819 LINE",
"-3 802 LINE",
"-3 765 LINE",
"83 756 LINE",
"83 27 LINE",
"96 14 OFFCURVE",
"178 -11 OFFCURVE",
"269 -11 CURVE SMOOTH"
);
},
{
closed = 1;
nodes = (
"226 40 OFFCURVE",
"174 52 OFFCURVE",
"164 75 CURVE",
"164 445 LINE",
"187 470 OFFCURVE",
"239 509 OFFCURVE",
"302 509 CURVE SMOOTH",
"391 509 OFFCURVE",
"468 443 OFFCURVE",
"466 284 CURVE SMOOTH",
"463 118 OFFCURVE",
"384 40 OFFCURVE",
"276 40 CURVE SMOOTH"
);
},
{
closed = 1;
nodes = (
"361 670 LINE",
"402 670 OFFCURVE",
"421 700 OFFCURVE",
"421 736 CURVE SMOOTH",
"421 764 OFFCURVE",
"403 793 OFFCURVE",
"369 793 CURVE SMOOTH",
"329 793 OFFCURVE",
"310 760 OFFCURVE",
"310 727 CURVE SMOOTH",
"310 696 OFFCURVE",
"329 670 OFFCURVE",
"360 670 CURVE"
);
}
);
width = 600;
},
{
anchors = (
{
name = mark0;
position = "{266, -83}";
}
);
layerId = "D0FF1146-32FF-444C-BC95-9626761FC64D";
paths = (
{
closed = 1;
nodes = (
"491 -11 OFFCURVE",
"606 121 OFFCURVE",
"606 295 CURVE SMOOTH",
"606 493 OFFCURVE",
"514 570 OFFCURVE",
"392 570 CURVE SMOOTH",
"335 570 OFFCURVE",
"285 542 OFFCURVE",
"256 511 CURVE",
"256 798 LINE",
"219 820 LINE",
"217 820 LINE",
"2 794 LINE",
"2 729 LINE",
"68 714 LINE",
"68 27 LINE",
"82 19 OFFCURVE",
"154 -11 OFFCURVE",
"300 -11 CURVE SMOOTH"
);
},
{
closed = 1;
nodes = (
"279 55 OFFCURVE",
"261 63 OFFCURVE",
"256 72 CURVE",
"256 431 LINE",
"269 446 OFFCURVE",
"293 459 OFFCURVE",
"320 459 CURVE SMOOTH",
"371 459 OFFCURVE",
"403 410 OFFCURVE",
"402 277 CURVE SMOOTH",
"401 126 OFFCURVE",
"362 55 OFFCURVE",
"304 55 CURVE SMOOTH"
);
},
{
closed = 1;
nodes = (
"409 635 LINE",
"485 635 OFFCURVE",
"523 682 OFFCURVE",
"523 742 CURVE SMOOTH",
"523 793 OFFCURVE",
"488 833 OFFCURVE",
"420 833 CURVE SMOOTH",
"351 833 OFFCURVE",
"310 786 OFFCURVE",
"310 726 CURVE SMOOTH",
"310 674 OFFCURVE",
"351 635 OFFCURVE",
"408 635 CURVE"
);
}
);
width = 634;
}
);
unicode = 1E03;
},
{
glyphname = c;
layers = (
{
anchors = (
{
name = bottom;
position = "{255, 0}";
},
{
name = mark0;
position = "{277, -83}";
},
{
name = top;
position = "{285, 555}";
}
);
layerId = UUID0;
paths = (
{
closed = 1;
nodes = (
"35 113 OFFCURVE",
"120 -11 OFFCURVE",
"282 -11 CURVE SMOOTH",
"351 -11 OFFCURVE",
"426 23 OFFCURVE",
"463 60 CURVE",
"447 93 LINE",
"417 72 OFFCURVE",
"361 47 OFFCURVE",
"300 47 CURVE SMOOTH",
"198 47 OFFCURVE",
"119 128 OFFCURVE",
"120 302 CURVE SMOOTH",
"121 439 OFFCURVE",
"188 523 OFFCURVE",
"291 523 CURVE SMOOTH",
"332 523 OFFCURVE",
"372 517 OFFCURVE",
"377 493 CURVE SMOOTH",
"398 397 LINE",
"448 397 LINE",
"452 540 LINE",
"426 551 OFFCURVE",
"370 570 OFFCURVE",
"312 570 CURVE SMOOTH",
"124 570 OFFCURVE",
"33 429 OFFCURVE",
"34 271 CURVE SMOOTH"
);
}
);
width = 509;
},
{
anchors = (
{
name = bottom;
position = "{294, 0}";
},
{
name = mark0;
position = "{298, -83}";
},
{
name = top;
position = "{294, 556}";
}
);
layerId = "D0FF1146-32FF-444C-BC95-9626761FC64D";
paths = (
{
closed = 1;
nodes = (
"30 109 OFFCURVE",
"105 -11 OFFCURVE",
"296 -11 CURVE SMOOTH",
"406 -11 OFFCURVE",
"483 45 OFFCURVE",
"503 69 CURVE",
"473 137 LINE",
"441 119 OFFCURVE",
"402 102 OFFCURVE",
"340 102 CURVE SMOOTH",
"274 102 OFFCURVE",
"236 172 OFFCURVE",
"236 304 CURVE SMOOTH",
"237 455 OFFCURVE",
"269 489 OFFCURVE",
"311 489 CURVE SMOOTH",
"326 489 OFFCURVE",
"343 483 OFFCURVE",
"347 467 CURVE SMOOTH",
"375 345 LINE",
"494 345 LINE",
"502 540 LINE",
"467 542 OFFCURVE",
"425 570 OFFCURVE",
"320 570 CURVE SMOOTH",
"154 570 OFFCURVE",
"30 462 OFFCURVE",
"30 275 CURVE SMOOTH"
);
}
);
width = 528;
}
);
unicode = 0063;
},
{
glyphname = ccaron;
layers = (
{
anchors = (
{
name = mark0;
position = "{277, -83}";
}
);
layerId = UUID0;
paths = (
{
closed = 1;
nodes = (
"115 856 LINE",
"251 662 LINE",
"327 662 LINE",
"462 857 LINE",
"431 877 LINE",
"289 726 LINE",
"150 877 LINE"
);
},
{
closed = 1;
nodes = (
"35 113 OFFCURVE",
"120 -11 OFFCURVE",
"282 -11 CURVE SMOOTH",
"351 -11 OFFCURVE",
"426 23 OFFCURVE",
"463 60 CURVE",
"447 93 LINE",
"417 72 OFFCURVE",
"361 47 OFFCURVE",
"300 47 CURVE SMOOTH",
"198 47 OFFCURVE",
"119 128 OFFCURVE",
"120 302 CURVE SMOOTH",
"121 439 OFFCURVE",
"188 523 OFFCURVE",
"291 523 CURVE SMOOTH",
"332 523 OFFCURVE",
"372 517 OFFCURVE",
"377 493 CURVE SMOOTH",
"398 397 LINE",
"448 397 LINE",
"452 540 LINE",
"426 551 OFFCURVE",
"370 570 OFFCURVE",
"312 570 CURVE SMOOTH",
"124 570 OFFCURVE",
"33 429 OFFCURVE",
"34 271 CURVE SMOOTH"
);
}
);
width = 509;
},
{
anchors = (
{
name = mark0;
position = "{296, -83}";
}
);
layerId = "D0FF1146-32FF-444C-BC95-9626761FC64D";
paths = (
{
closed = 1;
nodes = (
"96 827 LINE",
"254 630 LINE",
"351 630 LINE",
"512 827 LINE",
"451 880 LINE",
"303 759 LINE",
"156 879 LINE"
);
},
{
closed = 1;
nodes = (
"28 109 OFFCURVE",
"103 -11 OFFCURVE",
"294 -11 CURVE SMOOTH",
"404 -11 OFFCURVE",
"481 45 OFFCURVE",
"501 69 CURVE",
"471 137 LINE",
"439 119 OFFCURVE",
"400 102 OFFCURVE",
"338 102 CURVE SMOOTH",
"272 102 OFFCURVE",
"234 172 OFFCURVE",
"234 304 CURVE SMOOTH",
"235 455 OFFCURVE",
"267 489 OFFCURVE",
"309 489 CURVE SMOOTH",
"324 489 OFFCURVE",
"341 483 OFFCURVE",
"345 467 CURVE SMOOTH",
"373 345 LINE",
"492 345 LINE",
"500 540 LINE",
"465 542 OFFCURVE",
"423 570 OFFCURVE",
"318 570 CURVE SMOOTH",
"152 570 OFFCURVE",
"28 462 OFFCURVE",
"28 275 CURVE SMOOTH"
);
}
);
width = 526;
}
);
unicode = 010D;
},
{
glyphname = ccircumflex;
layers = (
{
anchors = (
{
name = mark0;
position = "{277, -83}";
}
);
layerId = UUID0;
paths = (
{
closed = 1;
nodes = (
"111 671 LINE",
"143 651 LINE",
"287 802 LINE",
"425 651 LINE",
"460 672 LINE",
"325 867 LINE",
"250 867 LINE"
);
},
{
closed = 1;
nodes = (
"35 113 OFFCURVE",
"120 -11 OFFCURVE",
"282 -11 CURVE SMOOTH",
"351 -11 OFFCURVE",
"426 23 OFFCURVE",
"463 60 CURVE",
"447 93 LINE",
"417 72 OFFCURVE",
"361 47 OFFCURVE",
"300 47 CURVE SMOOTH",
"198 47 OFFCURVE",
"119 128 OFFCURVE",
"120 302 CURVE SMOOTH",
"121 439 OFFCURVE",
"188 523 OFFCURVE",
"291 523 CURVE SMOOTH",
"332 523 OFFCURVE",
"372 517 OFFCURVE",
"377 493 CURVE SMOOTH",
"398 397 LINE",
"448 397 LINE",
"452 540 LINE",
"426 551 OFFCURVE",
"370 570 OFFCURVE",
"312 570 CURVE SMOOTH",
"124 570 OFFCURVE",
"33 429 OFFCURVE",
"34 271 CURVE SMOOTH"
);
}
);
width = 509;
},
{
anchors = (
{
name = mark0;
position = "{296, -83}";
}
);
layerId = "D0FF1146-32FF-444C-BC95-9626761FC64D";
paths = (
{
closed = 1;
nodes = (
"97 682 LINE",
"157 628 LINE",
"305 745 LINE",
"451 629 LINE",
"513 682 LINE",
"352 878 LINE",
"255 878 LINE"
);
},
{
closed = 1;
nodes = (
"28 109 OFFCURVE",
"103 -11 OFFCURVE",
"294 -11 CURVE SMOOTH",
"404 -11 OFFCURVE",
"481 45 OFFCURVE",
"501 69 CURVE",
"471 137 LINE",
"439 119 OFFCURVE",
"400 102 OFFCURVE",
"338 102 CURVE SMOOTH",
"272 102 OFFCURVE",
"234 172 OFFCURVE",
"234 304 CURVE SMOOTH",
"235 455 OFFCURVE",
"267 489 OFFCURVE",
"309 489 CURVE SMOOTH",
"324 489 OFFCURVE",
"341 483 OFFCURVE",
"345 467 CURVE SMOOTH",
"373 345 LINE",
"492 345 LINE",
"500 540 LINE",
"465 542 OFFCURVE",
"423 570 OFFCURVE",
"318 570 CURVE SMOOTH",
"152 570 OFFCURVE",
"28 462 OFFCURVE",
"28 275 CURVE SMOOTH"
);
}
);
width = 526;
}
);
unicode = 0109;
},
